<svg xmlns="http://www.w3.org/2000/svg" width="464px" height="606px" viewBox="0 0 464 606" xmlns:xlink="http://www.w3.org/1999/xlink" style="display: block; width: 464px; height: 606px; overflow: auto;"><rect width="464px" height="606px" fill="white"/><defs><path fill="rgb(0,0,0)" stroke="rgb(0,0,0)" d="M 8,-3 L 0,0 L 8,3 Z" fill-opacity="1" stroke-opacity="1" stroke-width="1" stroke-linecap="butt" stroke-linejoin="miter" stroke-miterlimit="10" id="ygc153_0"/><path fill="rgb(0,0,0)" stroke="rgb(0,0,0)" d="M 8,-3 L 0,0 L 8,3 Z" fill-opacity="1" stroke-opacity="1" stroke-width="1" stroke-linecap="butt" stroke-linejoin="miter" stroke-miterlimit="10" id="ygc153_1"/><path fill="rgb(0,0,0)" stroke="rgb(0,0,0)" d="M 8,-3 L 0,0 L 8,3 Z" fill-opacity="1" stroke-opacity="1" stroke-width="1" stroke-linecap="butt" stroke-linejoin="miter" stroke-miterlimit="10" id="ygc153_2"/><path fill="rgb(0,0,0)" stroke="rgb(0,0,0)" d="M 8,-3 L 0,0 L 8,3 Z" fill-opacity="1" stroke-opacity="1" stroke-width="1" stroke-linecap="butt" stroke-linejoin="miter" stroke-miterlimit="10" id="ygc153_3"/><path fill="rgb(0,0,0)" stroke="rgb(0,0,0)" d="M 8,-3 L 0,0 L 8,3 Z" fill-opacity="1" stroke-opacity="1" stroke-width="1" stroke-linecap="butt" stroke-linejoin="miter" stroke-miterlimit="10" id="ygc153_4"/><path fill="rgb(0,0,0)" stroke="rgb(0,0,0)" d="M 8,-3 L 0,0 L 8,3 Z" fill-opacity="1" stroke-opacity="1" stroke-width="1" stroke-linecap="butt" stroke-linejoin="miter" stroke-miterlimit="10" id="ygc153_5"/><path fill="rgb(0,0,0)" stroke="rgb(0,0,0)" d="M 8,-3 L 0,0 L 8,3 Z" fill-opacity="1" stroke-opacity="1" stroke-width="1" stroke-linecap="butt" stroke-linejoin="miter" stroke-miterlimit="10" id="ygc153_6"/></defs><g transform="translate(57.5 208.25)" image-rendering="auto" shape-rendering="auto" style="pointer-events: visiblepainted;"><g style="box-sizing: initial;"><g transform="translate(-27.5 -178.25)" class="y-group-node yfiles-expanded"><path d="M 152.25 0H 300.5A 4 4 0 0 1 304.5 4V 541.25A 4 4 0 0 1 300.5 545.25H 4A 4 4 0 0 1 0 541.25V 4A 4 4 0 0 1 4 0z" fill="#FFF" transform="translate(0 0)" class="yfiles-group-node-tab-background"/><path d="M 152.25 3H 299.5A 2 2 0 0 1 301.5 5V 540.25A 2 2 0 0 1 299.5 542.25H 5A 2 2 0 0 1 3 540.25V 5A 2 2 0 0 1 5 3z" fill="#FFF" transform="translate(0 0)" class="yfiles-content-transparent yfiles-group-node-content"/><path d="M 152.25 0H 300.5A 4 4 0 0 1 304.5 4V 541.25A 4 4 0 0 1 300.5 545.25H 4A 4 4 0 0 1 0 541.25V 4A 4 4 0 0 1 4 0z" fill="none" stroke="#ABABAB" stroke-width="2" stroke-dasharray="2,4" stroke-dashoffset="1" stroke-linecap="square" stroke-linejoin="miter" stroke-miterlimit="10" transform="translate(0 0)" class="yfiles-group-node-stroke"/></g><g transform="translate(108.25 -171.25)" class="y-group-node yfiles-expanded"><path d="M 80.875 0H 157.75A 4 4 0 0 1 161.75 4V 527.25A 4 4 0 0 1 157.75 531.25H 4A 4 4 0 0 1 0 527.25V 4A 4 4 0 0 1 4 0z" fill="#FFF" transform="translate(0 0)" class="yfiles-group-node-tab-background"/><path d="M 80.875 3H 156.75A 2 2 0 0 1 158.75 5V 526.25A 2 2 0 0 1 156.75 528.25H 5A 2 2 0 0 1 3 526.25V 5A 2 2 0 0 1 5 3z" fill="#FFF" transform="translate(0 0)" class="yfiles-content-transparent yfiles-group-node-content"/><path d="M 80.875 0H 157.75A 4 4 0 0 1 161.75 4V 527.25A 4 4 0 0 1 157.75 531.25H 4A 4 4 0 0 1 0 527.25V 4A 4 4 0 0 1 4 0z" fill="none" stroke="#ABABAB" stroke-width="2" stroke-dasharray="2,4" stroke-dashoffset="1" stroke-linecap="square" stroke-linejoin="miter" stroke-miterlimit="10" transform="translate(0 0)" class="yfiles-group-node-stroke"/></g><g><path fill="none" stroke="rgb(0,0,0)" d="M 192.875,94.75 L 192.875,106.57599937578041" stroke-opacity="1" stroke-width="3" stroke-linecap="butt" stroke-linejoin="miter" stroke-miterlimit="10"/><use transform="matrix(0 -1 1 0 192.875 114.57599937578041)" xlink:href="#ygc153_0"/></g><g><path fill="none" stroke="rgb(0,0,0)" d="M 192.875,147 L 192.875,162.5759993757804" stroke-opacity="1" stroke-width="3" stroke-linecap="butt" stroke-linejoin="miter" stroke-miterlimit="10"/><use transform="matrix(0 -1 1 0 192.875 170.5759993757804)" xlink:href="#ygc153_1"/></g><g><path fill="none" stroke="rgb(0,0,0)" d="M 192.875,203 L 192.875,218.5759993757804" stroke-opacity="1" stroke-width="3" stroke-linecap="butt" stroke-linejoin="miter" stroke-miterlimit="10"/><use transform="matrix(0 -1 1 0 192.875 226.5759993757804)" xlink:href="#ygc153_2"/></g><g><path fill="none" stroke="rgb(0,0,0)" d="M 192.875,259 L 192.875,274.5759993757804" stroke-opacity="1" stroke-width="3" stroke-linecap="butt" stroke-linejoin="miter" stroke-miterlimit="10"/><use transform="matrix(0 -1 1 0 192.875 282.5759993757804)" xlink:href="#ygc153_3"/></g><g><path fill="none" stroke="rgb(0,0,0)" d="M 192.875,34.625 L 192.875,54.32599937578041" stroke-opacity="1" stroke-width="3" stroke-linecap="butt" stroke-linejoin="miter" stroke-miterlimit="10"/><use transform="matrix(0 -1 1 0 192.875 62.32599937578041)" xlink:href="#ygc153_4"/></g><g><path fill="none" stroke="rgb(0,0,0)" d="M 192.875,-25.5 L 192.875,-5.7990006242195875" stroke-opacity="1" stroke-width="3" stroke-linecap="butt" stroke-linejoin="miter" stroke-miterlimit="10"/><use transform="matrix(0 -1 1 0 192.875 2.2009993757804116)" xlink:href="#ygc153_5"/></g><image xlink:href="data:image/svg+xml;charset=utf-8,%3Csvg%20xmlns%3D%22http%3A%2F%2Fwww.w3.org%2F2000%2Fsvg%22%20viewBox%3D%220%200%20512%20512%22%20width%3D%22512%22%20height%3D%22512%22%20fill%3D%22rgb(0%2C0%2C0)%22%20fill-opacity%3D%221%22%3E%3Cpath%20d%3D%22M320%20336c0%208.84-7.16%2016-16%2016h-96c-8.84%200-16-7.16-16-16v-48H0v144c0%2025.6%2022.4%2048%2048%2048h416c25.6%200%2048-22.4%2048-48V288H320v48zm144-208h-80V80c0-25.6-22.4-48-48-48H176c-25.6%200-48%2022.4-48%2048v48H48c-25.6%200-48%2022.4-48%2048v80h512v-80c0-25.6-22.4-48-48-48zm-144%200H192V96h128v32z%22%2F%3E%3C%2Fsvg%3E" width="60" height="60" transform="translate(162.875 -138.5)"/><ellipse cx="192.875" cy="-40.5" rx="15" ry="15" fill="rgb(0,0,0)" fill-opacity="1" stroke="rgb(0,0,0)" stroke-opacity="1" stroke-width="1" stroke-linecap="butt" stroke-linejoin="miter" stroke-miterlimit="10"/><ellipse cx="192.875" cy="79.75" rx="15" ry="15" fill="rgb(0,0,0)" fill-opacity="1" stroke="rgb(0,0,0)" stroke-opacity="1" stroke-width="1" stroke-linecap="butt" stroke-linejoin="miter" stroke-miterlimit="10"/><ellipse cx="192.875" cy="132" rx="15" ry="15" fill="rgb(0,0,0)" fill-opacity="1" stroke="rgb(0,0,0)" stroke-opacity="1" stroke-width="1" stroke-linecap="butt" stroke-linejoin="miter" stroke-miterlimit="10"/><ellipse cx="192.875" cy="188" rx="15" ry="15" fill="rgb(0,0,0)" fill-opacity="1" stroke="rgb(0,0,0)" stroke-opacity="1" stroke-width="1" stroke-linecap="butt" stroke-linejoin="miter" stroke-miterlimit="10"/><ellipse cx="192.875" cy="244" rx="15" ry="15" fill="rgb(0,0,0)" fill-opacity="1" stroke="rgb(0,0,0)" stroke-opacity="1" stroke-width="1" stroke-linecap="butt" stroke-linejoin="miter" stroke-miterlimit="10"/><ellipse cx="192.875" cy="300" rx="15" ry="15" fill="rgb(0,0,0)" fill-opacity="1" stroke="rgb(0,0,0)" stroke-opacity="1" stroke-width="1" stroke-linecap="butt" stroke-linejoin="miter" stroke-miterlimit="10"/><ellipse cx="192.875" cy="19.625" rx="15" ry="15" fill="rgb(0,0,0)" fill-opacity="1" stroke="rgb(0,0,0)" stroke-opacity="1" stroke-width="1" stroke-linecap="butt" stroke-linejoin="miter" stroke-miterlimit="10"/><image xlink:href="data:image/svg+xml;charset=utf-8,%3Csvg%20xmlns%3D%22http%3A%2F%2Fwww.w3.org%2F2000%2Fsvg%22%20viewBox%3D%220%200%20320%20512%22%20width%3D%22320%22%20height%3D%22512%22%20fill%3D%22rgb(0%2C0%2C0)%22%20fill-opacity%3D%221%22%3E%3Cpath%20d%3D%22M272%200H48C21.5%200%200%2021.5%200%2048v416c0%2026.5%2021.5%2048%2048%2048h224c26.5%200%2048-21.5%2048-48V48c0-26.5-21.5-48-48-48zM160%20480c-17.7%200-32-14.3-32-32s14.3-32%2032-32%2032%2014.3%2032%2032-14.3%2032-32%2032zm112-108c0%206.6-5.4%2012-12%2012H60c-6.6%200-12-5.4-12-12V60c0-6.6%205.4-12%2012-12h200c6.6%200%2012%205.4%2012%2012v312z%22%2F%3E%3C%2Fsvg%3E" width="60" height="60" transform="translate(10.125 -138.5)"/><ellipse cx="40.125" cy="-40.5" rx="15" ry="15" fill="rgb(0,0,0)" fill-opacity="1" stroke="rgb(0,0,0)" stroke-opacity="1" stroke-width="1" stroke-linecap="butt" stroke-linejoin="miter" stroke-miterlimit="10"/><g><path fill="none" stroke="rgb(0,0,0)" d="M 55.125,-40.5 L 167.4509993757804,-40.5" stroke-opacity="1" stroke-width="3" stroke-linecap="butt" stroke-linejoin="miter" stroke-miterlimit="10"/><use transform="matrix(-1 0 0 -1 175.4509993757804 -40.5)" xlink:href="#ygc153_6"/></g><g transform="translate(284.31 -178.25)" class="y-group-node yfiles-expanded"><path d="M 45.69 0H 87.38A 4 4 0 0 1 91.38 4V 541.25A 4 4 0 0 1 87.38 545.25H 4A 4 4 0 0 1 0 541.25V 4A 4 4 0 0 1 4 0z" fill="#FFF" transform="translate(0 0)" class="yfiles-group-node-tab-background"/><path d="M 45.69 3H 86.38A 2 2 0 0 1 88.38 5V 540.25A 2 2 0 0 1 86.38 542.25H 5A 2 2 0 0 1 3 540.25V 5A 2 2 0 0 1 5 3z" fill="#FFF" transform="translate(0 0)" class="yfiles-content-transparent yfiles-group-node-content"/><path d="M 45.69 0H 87.38A 4 4 0 0 1 91.38 4V 541.25A 4 4 0 0 1 87.38 545.25H 4A 4 4 0 0 1 0 541.25V 4A 4 4 0 0 1 4 0z" fill="none" stroke="#ABABAB" stroke-width="2" stroke-dasharray="2,4" stroke-dashoffset="1" stroke-linecap="square" stroke-linejoin="miter" stroke-miterlimit="10" transform="translate(0 0)" class="yfiles-group-node-stroke"/></g><image xlink:href="data:image/svg+xml;charset=utf-8,%3Csvg%20xmlns%3D%22http%3A%2F%2Fwww.w3.org%2F2000%2Fsvg%22%20viewBox%3D%220%200%20576%20512%22%20width%3D%22576%22%20height%3D%22512%22%20fill%3D%22rgb(0%2C0%2C0)%22%20fill-opacity%3D%221%22%3E%3Cpath%20d%3D%22M572.694%20292.093L500.27%20416.248A63.997%2063.997%200%200%201%20444.989%20448H45.025c-18.523%200-30.064-20.093-20.731-36.093l72.424-124.155A64%2064%200%200%201%20152%20256h399.964c18.523%200%2030.064%2020.093%2020.73%2036.093zM152%20224h328v-48c0-26.51-21.49-48-48-48H272l-64-64H48C21.49%2064%200%2085.49%200%20112v278.046l69.077-118.418C86.214%20242.25%20117.989%20224%20152%20224z%22%2F%3E%3C%2Fsvg%3E" width="60" height="60" transform="translate(300 -138.5)"/><ellipse cx="330" cy="300" rx="15" ry="15" fill="rgb(0,0,0)" fill-opacity="1" stroke="rgb(0,0,0)" stroke-opacity="1" stroke-width="1" stroke-linecap="butt" stroke-linejoin="miter" stroke-miterlimit="10"/><g><path fill="none" stroke="rgb(0,0,0)" d="M 207.875,300 L 304.57599937578044,300" stroke-opacity="1" stroke-width="3" stroke-linecap="butt" stroke-linejoin="miter" stroke-miterlimit="10"/><use transform="matrix(-1 0 0 -1 312.5759993757804 300)" xlink:href="#ygc153_0"/></g><g transform="translate(-8.875 -164.5)"><text font-family="Arial" font-size="12px" font-style="normal" font-weight="normal" text-decoration="none" text-anchor="middle" fill="black" xml:space="preserve" transform="translate(49 0.43359375)"><tspan class="yfiles-label-h2" dy="16.3125px" x="0" style="font-size: 1.5em; font-weight: bold;">Application</tspan></text></g><g transform="translate(144.375 -164.5)"><text font-family="Arial" font-size="12px" font-style="normal" font-weight="normal" text-decoration="none" text-anchor="middle" fill="black" xml:space="preserve" transform="translate(48.5 0.43359375)"><tspan class="yfiles-label-h2" dy="16.3125px" x="0" style="font-size: 1.5em; font-weight: bold;">Wallet SDK</tspan></text></g><g transform="translate(189.375 -47.5)"><text font-family="Arial" font-size="12px" font-style="normal" font-weight="normal" text-decoration="none" text-anchor="middle" fill="rgb(255,255,255)" fill-opacity="1" dy="0.90625em" xml:space="preserve" transform="translate(3.5 0.2890625)">2</text></g><g><g><g transform="translate(221.5 -58.625)"><g transform="translate(0 0)"><rect x="0" y="0" width="142" height="38" rx="0" ry="0" stroke="rgb(255,255,255)" stroke-opacity="0" stroke-width="1" stroke-linecap="butt" stroke-linejoin="miter" stroke-miterlimit="10" fill="rgb(224,224,224)" fill-opacity="1"/><path d="M 14.200000000000001,0 L 0,0 L 0,38 L 14.200000000000001,38" stroke="rgb(0,0,0)" stroke-opacity="1" stroke-width="1" stroke-linecap="butt" stroke-linejoin="miter" stroke-miterlimit="10" fill="rgb(255,255,255)" fill-opacity="0" transform="translate(0 0)"/></g></g><g transform="translate(226.5 -53.625)"><text font-family="Arial" font-size="12px" font-style="normal" font-weight="normal" text-decoration="none" text-anchor="middle" fill="rgb(0,0,0)" fill-opacity="1" transform="translate(66 0.08906250000000071)"><tspan x="0" y="10.875" xml:space="preserve">키스토어에 생체인증이있는 </tspan><tspan x="0" y="25.275" xml:space="preserve">Secp256R1키 생성 요청</tspan></text></g><g><path d="M 221.5,-40.248588456712675 L 207.87442148373265,-40.36826104092079" stroke="rgb(0,0,0)" stroke-opacity="1" stroke-width="1" stroke-dasharray="0.01,2" stroke-dashoffset="0" stroke-linecap="round" stroke-linejoin="miter" stroke-miterlimit="10" fill="none"/></g></g></g><g transform="translate(189.375 72.75)"><text font-family="Arial" font-size="12px" font-style="normal" font-weight="normal" text-decoration="none" text-anchor="middle" fill="rgb(255,255,255)" fill-opacity="1" dy="0.90625em" xml:space="preserve" transform="translate(3.5 0.2890625)">4</text></g><g><g><g transform="translate(223.5625 59.5)"><g transform="translate(0 0)"><rect x="0" y="0" width="124" height="38" rx="0" ry="0" stroke="rgb(255,255,255)" stroke-opacity="0" stroke-width="1" stroke-linecap="butt" stroke-linejoin="miter" stroke-miterlimit="10" fill="rgb(224,224,224)" fill-opacity="1"/><path d="M 12.4,0 L 0,0 L 0,38 L 12.4,38" stroke="rgb(0,0,0)" stroke-opacity="1" stroke-width="1" stroke-linecap="butt" stroke-linejoin="miter" stroke-miterlimit="10" fill="rgb(255,255,255)" fill-opacity="0" transform="translate(0 0)"/></g></g><g transform="translate(228.5625 64.5)"><text font-family="Arial" font-size="12px" font-style="normal" font-weight="normal" text-decoration="none" text-anchor="middle" fill="rgb(0,0,0)" fill-opacity="1" transform="translate(57 0.08906250000000071)"><tspan x="0" y="10.875" xml:space="preserve">키스토어에 저장된 키로 </tspan><tspan x="0" y="25.275" xml:space="preserve">월렛 데이터 암호화</tspan></text></g><g><path d="M 223.5625,79.33614295347269 L 207.87363610883386,79.54772574364351" stroke="rgb(0,0,0)" stroke-opacity="1" stroke-width="1" stroke-dasharray="0.01,2" stroke-dashoffset="0" stroke-linecap="round" stroke-linejoin="miter" stroke-miterlimit="10" fill="none"/></g></g></g><g transform="translate(189.375 125)"><text font-family="Arial" font-size="12px" font-style="normal" font-weight="normal" text-decoration="none" text-anchor="middle" fill="rgb(255,255,255)" fill-opacity="1" dy="0.90625em" xml:space="preserve" transform="translate(3.5 0.2890625)">5</text></g><g><g><g transform="translate(220.9375 111.875)"><g transform="translate(0 0)"><rect x="0" y="0" width="153" height="38" rx="0" ry="0" stroke="rgb(255,255,255)" stroke-opacity="0" stroke-width="1" stroke-linecap="butt" stroke-linejoin="miter" stroke-miterlimit="10" fill="rgb(224,224,224)" fill-opacity="1"/><path d="M 15.3,0 L 0,0 L 0,38 L 15.3,38" stroke="rgb(0,0,0)" stroke-opacity="1" stroke-width="1" stroke-linecap="butt" stroke-linejoin="miter" stroke-miterlimit="10" fill="rgb(255,255,255)" fill-opacity="0" transform="translate(0 0)"/></g></g><g transform="translate(225.9375 116.875)"><text font-family="Arial" font-size="12px" font-style="normal" font-weight="normal" text-decoration="none" text-anchor="middle" fill="rgb(0,0,0)" fill-opacity="1" transform="translate(71.5 0.08906250000000071)"><tspan x="0" y="10.875" xml:space="preserve">(최초에만) 키스토어에 서명용 </tspan><tspan x="0" y="25.275" xml:space="preserve">Secp256R1키 생성 요청</tspan></text></g><g><path d="M 220.9375,131.6980723251644 L 207.87413188614275,131.83862260971276" stroke="rgb(0,0,0)" stroke-opacity="1" stroke-width="1" stroke-dasharray="0.01,2" stroke-dashoffset="0" stroke-linecap="round" stroke-linejoin="miter" stroke-miterlimit="10" fill="none"/></g></g></g><g transform="translate(189.375 181)"><text font-family="Arial" font-size="12px" font-style="normal" font-weight="normal" text-decoration="none" text-anchor="middle" fill="rgb(255,255,255)" fill-opacity="1" dy="0.90625em" xml:space="preserve" transform="translate(3.5 0.2890625)">6</text></g><g><g><g transform="translate(221.4375 174.625)"><g transform="translate(0 0)"><rect x="0" y="0" width="99" height="24" rx="0" ry="0" stroke="rgb(255,255,255)" stroke-opacity="0" stroke-width="1" stroke-linecap="butt" stroke-linejoin="miter" stroke-miterlimit="10" fill="rgb(224,224,224)" fill-opacity="1"/><path d="M 9.9,0 L 0,0 L 0,24 L 9.9,24" stroke="rgb(0,0,0)" stroke-opacity="1" stroke-width="1" stroke-linecap="butt" stroke-linejoin="miter" stroke-miterlimit="10" fill="rgb(255,255,255)" fill-opacity="0" transform="translate(0 0)"/></g></g><g transform="translate(226.4375 179.625)"><text font-family="Arial" font-size="12px" font-style="normal" font-weight="normal" text-decoration="none" text-anchor="middle" fill="rgb(0,0,0)" fill-opacity="1" dy="0.90625em" xml:space="preserve" transform="translate(44.5 0.2890625)">ECDSA 서명 요청</text></g><g><path d="M 221.4375,187.4968975180144 L 207.87267361973113,187.7358296079791" stroke="rgb(0,0,0)" stroke-opacity="1" stroke-width="1" stroke-dasharray="0.01,2" stroke-dashoffset="0" stroke-linecap="round" stroke-linejoin="miter" stroke-miterlimit="10" fill="none"/></g></g></g><g transform="translate(189.375 237)"><text font-family="Arial" font-size="12px" font-style="normal" font-weight="normal" text-decoration="none" text-anchor="middle" fill="rgb(255,255,255)" fill-opacity="1" dy="0.90625em" xml:space="preserve" transform="translate(3.5 0.2890625)">7</text></g><g><g><g transform="translate(222.6875 231.5)"><g transform="translate(0 0)"><rect x="0" y="0" width="135" height="24" rx="0" ry="0" stroke="rgb(255,255,255)" stroke-opacity="0" stroke-width="1" stroke-linecap="butt" stroke-linejoin="miter" stroke-miterlimit="10" fill="rgb(224,224,224)" fill-opacity="1"/><path d="M 13.5,0 L 0,0 L 0,24 L 13.5,24" stroke="rgb(0,0,0)" stroke-opacity="1" stroke-width="1" stroke-linecap="butt" stroke-linejoin="miter" stroke-miterlimit="10" fill="rgb(255,255,255)" fill-opacity="0" transform="translate(0 0)"/></g></g><g transform="translate(227.6875 236.5)"><text font-family="Arial" font-size="12px" font-style="normal" font-weight="normal" text-decoration="none" text-anchor="middle" fill="rgb(0,0,0)" fill-opacity="1" dy="0.90625em" xml:space="preserve" transform="translate(62.5 0.2890625)">월렛 서명값을 월렛에 추가</text></g><g><path d="M 222.6875,243.84682080924856 L 207.87480200445737,243.922929726374" stroke="rgb(0,0,0)" stroke-opacity="1" stroke-width="1" stroke-dasharray="0.01,2" stroke-dashoffset="0" stroke-linecap="round" stroke-linejoin="miter" stroke-miterlimit="10" fill="none"/></g></g></g><g transform="translate(189.375 293)"><text font-family="Arial" font-size="12px" font-style="normal" font-weight="normal" text-decoration="none" text-anchor="middle" fill="rgb(255,255,255)" fill-opacity="1" dy="0.90625em" xml:space="preserve" transform="translate(3.5 0.2890625)">8</text></g><g><g><g transform="translate(148.1875 321.5)"><g transform="translate(0 0)"><rect x="0" y="0" width="90" height="38" rx="0" ry="0" stroke="rgb(255,255,255)" stroke-opacity="0" stroke-width="1" stroke-linecap="butt" stroke-linejoin="miter" stroke-miterlimit="10" fill="rgb(224,224,224)" fill-opacity="1"/><path d="M 9,0 L 0,0 L 0,38 L 9,38" stroke="rgb(0,0,0)" stroke-opacity="1" stroke-width="1" stroke-linecap="butt" stroke-linejoin="miter" stroke-miterlimit="10" fill="rgb(255,255,255)" fill-opacity="0" transform="translate(0 0)"/></g></g><g transform="translate(153.1875 326.5)"><text font-family="Arial" font-size="12px" font-style="normal" font-weight="normal" text-decoration="none" text-anchor="middle" fill="rgb(0,0,0)" fill-opacity="1" transform="translate(40 0.08906250000000071)"><tspan x="0" y="10.875" xml:space="preserve">월렛 파일을</tspan><tspan x="0" y="25.275" xml:space="preserve">저장 영역에 쓰기</tspan></text></g><g><path d="M 193.0408950617284,321.5 L 192.99073729544216,314.9995534893024" stroke="rgb(0,0,0)" stroke-opacity="1" stroke-width="1" stroke-dasharray="0.01,2" stroke-dashoffset="0" stroke-linecap="round" stroke-linejoin="miter" stroke-miterlimit="10" fill="none"/></g></g></g><g transform="translate(189.375 12.625)"><text font-family="Arial" font-size="12px" font-style="normal" font-weight="normal" text-decoration="none" text-anchor="middle" fill="rgb(255,255,255)" fill-opacity="1" dy="0.90625em" xml:space="preserve" transform="translate(3.5 0.2890625)">3</text></g><g><g><g transform="translate(221.3125 -0.625)"><g transform="translate(0 0)"><rect x="0" y="0" width="115" height="38" rx="0" ry="0" stroke="rgb(255,255,255)" stroke-opacity="0" stroke-width="1" stroke-linecap="butt" stroke-linejoin="miter" stroke-miterlimit="10" fill="rgb(224,224,224)" fill-opacity="1"/><path d="M 11.5,0 L 0,0 L 0,38 L 11.5,38" stroke="rgb(0,0,0)" stroke-opacity="1" stroke-width="1" stroke-linecap="butt" stroke-linejoin="miter" stroke-miterlimit="10" fill="rgb(255,255,255)" fill-opacity="0" transform="translate(0 0)"/></g></g><g transform="translate(226.3125 4.375)"><text font-family="Arial" font-size="12px" font-style="normal" font-weight="normal" text-decoration="none" text-anchor="middle" fill="rgb(0,0,0)" fill-opacity="1" transform="translate(52.5 0.08906250000000071)"><tspan x="0" y="10.875" xml:space="preserve">(최초에만) 키스토어에</tspan><tspan x="0" y="25.275" xml:space="preserve">암호화용 키 생성 요청</tspan></text></g><g><path d="M 221.3125,19.21136363636364 L 207.8734134748822,19.40684125854717" stroke="rgb(0,0,0)" stroke-opacity="1" stroke-width="1" stroke-dasharray="0.01,2" stroke-dashoffset="0" stroke-linecap="round" stroke-linejoin="miter" stroke-miterlimit="10" fill="none"/></g></g></g><g transform="translate(36.625 -47.5)"><text font-family="Arial" font-size="12px" font-style="normal" font-weight="normal" text-decoration="none" text-anchor="middle" fill="rgb(255,255,255)" fill-opacity="1" dy="0.90625em" xml:space="preserve" transform="translate(3.5 0.2890625)">1</text></g><g><g><g transform="translate(-18.375 -16.625)"><g transform="translate(0 0)"><rect x="0" y="0" width="114" height="38" rx="0" ry="0" stroke="rgb(255,255,255)" stroke-opacity="0" stroke-width="1" stroke-linecap="butt" stroke-linejoin="miter" stroke-miterlimit="10" fill="rgb(224,224,224)" fill-opacity="1"/><path d="M 102.60000000000001,0 L 114,0 L 114,38 L 102.60000000000001,38" stroke="rgb(0,0,0)" stroke-opacity="1" stroke-width="1" stroke-linecap="butt" stroke-linejoin="miter" stroke-miterlimit="10" fill="rgb(255,255,255)" fill-opacity="0" transform="translate(0 0)"/></g></g><g transform="translate(-13.375 -11.625)"><text font-family="Arial" font-size="12px" font-style="normal" font-weight="normal" text-decoration="none" text-anchor="middle" fill="rgb(0,0,0)" fill-opacity="1" transform="translate(52 0.08906250000000071)"><tspan x="0" y="10.875" xml:space="preserve">생체인증 제어가 있는 </tspan><tspan x="0" y="25.275" xml:space="preserve">키 생성 요청</tspan></text></g><g><path d="M 39.289723032069965,-16.625 L 39.600539525253296,-25.509171430156755" stroke="rgb(0,0,0)" stroke-opacity="1" stroke-width="1" stroke-dasharray="0.01,2" stroke-dashoffset="0" stroke-linecap="round" stroke-linejoin="miter" stroke-miterlimit="10" fill="none"/></g></g></g><g transform="translate(296 -164.5)"><text font-family="Arial" font-size="12px" font-style="normal" font-weight="normal" text-decoration="none" text-anchor="middle" fill="rgb(0,0,0)" fill-opacity="1" xml:space="preserve" transform="translate(34 0.43359375)"><tspan class="yfiles-label-h2" dy="16.3125px" x="0" style="font-size: 1.5em; font-weight: bold;">Storage</tspan></text></g><g transform="translate(326.5 293)"><text font-family="Arial" font-size="12px" font-style="normal" font-weight="normal" text-decoration="none" text-anchor="middle" fill="rgb(255,255,255)" fill-opacity="1" dy="0.90625em" xml:space="preserve" transform="translate(3.5 0.2890625)">9</text></g><g><g><g transform="translate(302.6875 324.75)"><g transform="translate(0 0)"><rect x="0" y="0" width="55" height="24" rx="0" ry="0" stroke="rgb(255,255,255)" stroke-opacity="0" stroke-width="1" stroke-linecap="butt" stroke-linejoin="miter" stroke-miterlimit="10" fill="rgb(224,224,224)" fill-opacity="1"/><path d="M 5.5,0 L 0,0 L 0,24 L 5.5,24" stroke="rgb(0,0,0)" stroke-opacity="1" stroke-width="1" stroke-linecap="butt" stroke-linejoin="miter" stroke-miterlimit="10" fill="rgb(255,255,255)" fill-opacity="0" transform="translate(0 0)"/></g></g><g transform="translate(307.6875 329.75)"><text font-family="Arial" font-size="12px" font-style="normal" font-weight="normal" text-decoration="none" text-anchor="middle" fill="rgb(0,0,0)" fill-opacity="1" dy="0.90625em" xml:space="preserve" transform="translate(22.5 0.2890625)">파일 저장</text></g><g><path d="M 330.1262755102041,324.75 L 330.07652961618703,314.99980477265774" stroke="rgb(0,0,0)" stroke-opacity="1" stroke-width="1" stroke-dasharray="0.01,2" stroke-dashoffset="0" stroke-linecap="round" stroke-linejoin="miter" stroke-miterlimit="10" fill="none"/></g></g></g></g></g></svg>