<svg xmlns="http://www.w3.org/2000/svg" width="513px" height="617px" viewBox="0 0 513 617" xmlns:xlink="http://www.w3.org/1999/xlink" style="display: block; width: 513px; height: 617px; overflow: auto;"><rect width="513px" height="617px" fill="white"/><defs><path fill="rgb(0,0,0)" stroke="rgb(0,0,0)" d="M 8,-3 L 0,0 L 8,3 Z" fill-opacity="1" stroke-opacity="1" stroke-width="1" stroke-linecap="butt" stroke-linejoin="miter" stroke-miterlimit="10" id="ygc737_0"/><path fill="rgb(0,0,0)" stroke="rgb(0,0,0)" d="M 8,-3 L 0,0 L 8,3 Z" fill-opacity="1" stroke-opacity="1" stroke-width="1" stroke-linecap="butt" stroke-linejoin="miter" stroke-miterlimit="10" id="ygc737_1"/><path fill="rgb(0,0,0)" stroke="rgb(0,0,0)" d="M 8,-3 L 0,0 L 8,3 Z" fill-opacity="1" stroke-opacity="1" stroke-width="1" stroke-linecap="butt" stroke-linejoin="miter" stroke-miterlimit="10" id="ygc737_2"/><path fill="rgb(0,0,0)" stroke="rgb(0,0,0)" d="M 8,-3 L 0,0 L 8,3 Z" fill-opacity="1" stroke-opacity="1" stroke-width="1" stroke-linecap="butt" stroke-linejoin="miter" stroke-miterlimit="10" id="ygc737_3"/><path fill="rgb(0,0,0)" stroke="rgb(0,0,0)" d="M 8,-3 L 0,0 L 8,3 Z" fill-opacity="1" stroke-opacity="1" stroke-width="1" stroke-linecap="butt" stroke-linejoin="miter" stroke-miterlimit="10" id="ygc737_4"/><path fill="rgb(0,0,0)" stroke="rgb(0,0,0)" d="M 8,-3 L 0,0 L 8,3 Z" fill-opacity="1" stroke-opacity="1" stroke-width="1" stroke-linecap="butt" stroke-linejoin="miter" stroke-miterlimit="10" id="ygc737_5"/><path fill="rgb(0,0,0)" stroke="rgb(0,0,0)" d="M 8,-3 L 0,0 L 8,3 Z" fill-opacity="1" stroke-opacity="1" stroke-width="1" stroke-linecap="butt" stroke-linejoin="miter" stroke-miterlimit="10" id="ygc737_6"/></defs><g transform="translate(38.625 189.75)" image-rendering="auto" shape-rendering="auto" style="pointer-events: visiblepainted;"><g style="box-sizing: initial;"><g transform="translate(-8.625 -159.75)" class="y-group-node yfiles-expanded"><path d="M 147.6875 0H 291.375A 4 4 0 0 1 295.375 4V 552.75A 4 4 0 0 1 291.375 556.75H 4A 4 4 0 0 1 0 552.75V 4A 4 4 0 0 1 4 0z" fill="#FFF" transform="translate(0 0)" class="yfiles-group-node-tab-background"/><path d="M 147.6875 3H 290.375A 2 2 0 0 1 292.375 5V 551.75A 2 2 0 0 1 290.375 553.75H 5A 2 2 0 0 1 3 551.75V 5A 2 2 0 0 1 5 3z" fill="#FFF" transform="translate(0 0)" class="yfiles-content-transparent yfiles-group-node-content"/><path d="M 147.6875 0H 291.375A 4 4 0 0 1 295.375 4V 552.75A 4 4 0 0 1 291.375 556.75H 4A 4 4 0 0 1 0 552.75V 4A 4 4 0 0 1 4 0z" fill="none" stroke="#ABABAB" stroke-width="2" stroke-dasharray="2,4" stroke-dashoffset="1" stroke-linecap="square" stroke-linejoin="miter" stroke-miterlimit="10" transform="translate(0 0)" class="yfiles-group-node-stroke"/></g><g transform="translate(121 -152.75)" class="y-group-node yfiles-expanded"><path d="M 79.375 0H 154.75A 4 4 0 0 1 158.75 4V 538.75A 4 4 0 0 1 154.75 542.75H 4A 4 4 0 0 1 0 538.75V 4A 4 4 0 0 1 4 0z" fill="#FFF" transform="translate(0 0)" class="yfiles-group-node-tab-background"/><path d="M 79.375 3H 153.75A 2 2 0 0 1 155.75 5V 537.75A 2 2 0 0 1 153.75 539.75H 5A 2 2 0 0 1 3 537.75V 5A 2 2 0 0 1 5 3z" fill="#FFF" transform="translate(0 0)" class="yfiles-content-transparent yfiles-group-node-content"/><path d="M 79.375 0H 154.75A 4 4 0 0 1 158.75 4V 538.75A 4 4 0 0 1 154.75 542.75H 4A 4 4 0 0 1 0 538.75V 4A 4 4 0 0 1 4 0z" fill="none" stroke="#ABABAB" stroke-width="2" stroke-dasharray="2,4" stroke-dashoffset="1" stroke-linecap="square" stroke-linejoin="miter" stroke-miterlimit="10" transform="translate(0 0)" class="yfiles-group-node-stroke"/></g><g><path fill="none" stroke="rgb(0,0,0)" d="M 198.375,116.75 L 198.375,128.5759993757804" stroke-opacity="1" stroke-width="3" stroke-linecap="butt" stroke-linejoin="miter" stroke-miterlimit="10"/><use transform="matrix(0 -1 1 0 198.375 136.5759993757804)" xlink:href="#ygc737_0"/></g><g><path fill="none" stroke="rgb(0,0,0)" d="M 198.375,169 L 198.375,184.5759993757804" stroke-opacity="1" stroke-width="3" stroke-linecap="butt" stroke-linejoin="miter" stroke-miterlimit="10"/><use transform="matrix(0 -1 1 0 198.375 192.5759993757804)" xlink:href="#ygc737_1"/></g><g><path fill="none" stroke="rgb(0,0,0)" d="M 198.375,225 L 198.375,240.5759993757804" stroke-opacity="1" stroke-width="3" stroke-linecap="butt" stroke-linejoin="miter" stroke-miterlimit="10"/><use transform="matrix(0 -1 1 0 198.375 248.5759993757804)" xlink:href="#ygc737_2"/></g><g><path fill="none" stroke="rgb(0,0,0)" d="M 198.375,281 L 198.375,296.5759993757804" stroke-opacity="1" stroke-width="3" stroke-linecap="butt" stroke-linejoin="miter" stroke-miterlimit="10"/><use transform="matrix(0 -1 1 0 198.375 304.5759993757804)" xlink:href="#ygc737_3"/></g><g><path fill="none" stroke="rgb(0,0,0)" d="M 198.375,56.625 L 198.375,76.32599937578041" stroke-opacity="1" stroke-width="3" stroke-linecap="butt" stroke-linejoin="miter" stroke-miterlimit="10"/><use transform="matrix(0 -1 1 0 198.375 84.32599937578041)" xlink:href="#ygc737_4"/></g><g><path fill="none" stroke="rgb(0,0,0)" d="M 198.375,-3.5 L 198.375,16.200999375780412" stroke-opacity="1" stroke-width="3" stroke-linecap="butt" stroke-linejoin="miter" stroke-miterlimit="10"/><use transform="matrix(0 -1 1 0 198.375 24.200999375780412)" xlink:href="#ygc737_5"/></g><image xlink:href="data:image/svg+xml;charset=utf-8,%3Csvg%20xmlns%3D%22http%3A%2F%2Fwww.w3.org%2F2000%2Fsvg%22%20viewBox%3D%220%200%20512%20512%22%20width%3D%22512%22%20height%3D%22512%22%20fill%3D%22rgb(0%2C0%2C0)%22%20fill-opacity%3D%221%22%3E%3Cpath%20d%3D%22M320%20336c0%208.84-7.16%2016-16%2016h-96c-8.84%200-16-7.16-16-16v-48H0v144c0%2025.6%2022.4%2048%2048%2048h416c25.6%200%2048-22.4%2048-48V288H320v48zm144-208h-80V80c0-25.6-22.4-48-48-48H176c-25.6%200-48%2022.4-48%2048v48H48c-25.6%200-48%2022.4-48%2048v80h512v-80c0-25.6-22.4-48-48-48zm-144%200H192V96h128v32z%22%2F%3E%3C%2Fsvg%3E" width="60" height="60" transform="translate(168.375 -120)"/><ellipse cx="198.375" cy="-18.5" rx="15" ry="15" fill="rgb(0,0,0)" fill-opacity="1" stroke="rgb(0,0,0)" stroke-opacity="1" stroke-width="1" stroke-linecap="butt" stroke-linejoin="miter" stroke-miterlimit="10"/><ellipse cx="198.375" cy="101.75" rx="15" ry="15" fill="rgb(0,0,0)" fill-opacity="1" stroke="rgb(0,0,0)" stroke-opacity="1" stroke-width="1" stroke-linecap="butt" stroke-linejoin="miter" stroke-miterlimit="10"/><ellipse cx="198.375" cy="154" rx="15" ry="15" fill="rgb(0,0,0)" fill-opacity="1" stroke="rgb(0,0,0)" stroke-opacity="1" stroke-width="1" stroke-linecap="butt" stroke-linejoin="miter" stroke-miterlimit="10"/><ellipse cx="198.375" cy="210" rx="15" ry="15" fill="rgb(0,0,0)" fill-opacity="1" stroke="rgb(0,0,0)" stroke-opacity="1" stroke-width="1" stroke-linecap="butt" stroke-linejoin="miter" stroke-miterlimit="10"/><ellipse cx="198.375" cy="266" rx="15" ry="15" fill="rgb(0,0,0)" fill-opacity="1" stroke="rgb(0,0,0)" stroke-opacity="1" stroke-width="1" stroke-linecap="butt" stroke-linejoin="miter" stroke-miterlimit="10"/><ellipse cx="198.375" cy="322" rx="15" ry="15" fill="rgb(0,0,0)" fill-opacity="1" stroke="rgb(0,0,0)" stroke-opacity="1" stroke-width="1" stroke-linecap="butt" stroke-linejoin="miter" stroke-miterlimit="10"/><ellipse cx="198.375" cy="41.625" rx="15" ry="15" fill="rgb(0,0,0)" fill-opacity="1" stroke="rgb(0,0,0)" stroke-opacity="1" stroke-width="1" stroke-linecap="butt" stroke-linejoin="miter" stroke-miterlimit="10"/><image xlink:href="data:image/svg+xml;charset=utf-8,%3Csvg%20xmlns%3D%22http%3A%2F%2Fwww.w3.org%2F2000%2Fsvg%22%20viewBox%3D%220%200%20320%20512%22%20width%3D%22320%22%20height%3D%22512%22%20fill%3D%22rgb(0%2C0%2C0)%22%20fill-opacity%3D%221%22%3E%3Cpath%20d%3D%22M272%200H48C21.5%200%200%2021.5%200%2048v416c0%2026.5%2021.5%2048%2048%2048h224c26.5%200%2048-21.5%2048-48V48c0-26.5-21.5-48-48-48zM160%20480c-17.7%200-32-14.3-32-32s14.3-32%2032-32%2032%2014.3%2032%2032-14.3%2032-32%2032zm112-108c0%206.6-5.4%2012-12%2012H60c-6.6%200-12-5.4-12-12V60c0-6.6%205.4-12%2012-12h200c6.6%200%2012%205.4%2012%2012v312z%22%2F%3E%3C%2Fsvg%3E" width="60" height="60" transform="translate(30 -120)"/><ellipse cx="60" cy="-18.5" rx="15" ry="15" fill="rgb(0,0,0)" fill-opacity="1" stroke="rgb(0,0,0)" stroke-opacity="1" stroke-width="1" stroke-linecap="butt" stroke-linejoin="miter" stroke-miterlimit="10"/><g><path fill="none" stroke="rgb(0,0,0)" d="M 75,-18.5 L 172.9509993757804,-18.5" stroke-opacity="1" stroke-width="3" stroke-linecap="butt" stroke-linejoin="miter" stroke-miterlimit="10"/><use transform="matrix(-1 0 0 -1 180.9509993757804 -18.5)" xlink:href="#ygc737_6"/></g><g transform="translate(293.63 -159.75)" class="y-group-node yfiles-expanded"><path d="M 75 0H 146A 4 4 0 0 1 150 4V 552.75A 4 4 0 0 1 146 556.75H 4A 4 4 0 0 1 0 552.75V 4A 4 4 0 0 1 4 0z" fill="#FFF" transform="translate(0 0)" class="yfiles-group-node-tab-background"/><path d="M 75 3H 145A 2 2 0 0 1 147 5V 551.75A 2 2 0 0 1 145 553.75H 5A 2 2 0 0 1 3 551.75V 5A 2 2 0 0 1 5 3z" fill="#FFF" transform="translate(0 0)" class="yfiles-content-transparent yfiles-group-node-content"/><path d="M 75 0H 146A 4 4 0 0 1 150 4V 552.75A 4 4 0 0 1 146 556.75H 4A 4 4 0 0 1 0 552.75V 4A 4 4 0 0 1 4 0z" fill="none" stroke="#ABABAB" stroke-width="2" stroke-dasharray="2,4" stroke-dashoffset="1" stroke-linecap="square" stroke-linejoin="miter" stroke-miterlimit="10" transform="translate(0 0)" class="yfiles-group-node-stroke"/></g><image xlink:href="data:image/svg+xml;charset=utf-8,%3Csvg%20xmlns%3D%22http%3A%2F%2Fwww.w3.org%2F2000%2Fsvg%22%20viewBox%3D%220%200%20576%20512%22%20width%3D%22576%22%20height%3D%22512%22%20fill%3D%22rgb(0%2C0%2C0)%22%20fill-opacity%3D%221%22%3E%3Cpath%20d%3D%22M572.694%20292.093L500.27%20416.248A63.997%2063.997%200%200%201%20444.989%20448H45.025c-18.523%200-30.064-20.093-20.731-36.093l72.424-124.155A64%2064%200%200%201%20152%20256h399.964c18.523%200%2030.064%2020.093%2020.73%2036.093zM152%20224h328v-48c0-26.51-21.49-48-48-48H272l-64-64H48C21.49%2064%200%2085.49%200%20112v278.046l69.077-118.418C86.214%20242.25%20117.989%20224%20152%20224z%22%2F%3E%3C%2Fsvg%3E" width="60" height="60" transform="translate(339.81500000000005 -120)"/><ellipse cx="369.815" cy="322" rx="15" ry="15" fill="rgb(0,0,0)" fill-opacity="1" stroke="rgb(0,0,0)" stroke-opacity="1" stroke-width="1" stroke-linecap="butt" stroke-linejoin="miter" stroke-miterlimit="10"/><g><path fill="none" stroke="rgb(0,0,0)" d="M 213.375,322 L 344.39099937578044,322" stroke-opacity="1" stroke-width="3" stroke-linecap="butt" stroke-linejoin="miter" stroke-miterlimit="10"/><use transform="matrix(-1 0 0 -1 352.39099937578044 322)" xlink:href="#ygc737_0"/></g><g transform="translate(11 -146)"><text font-family="Arial" font-size="12px" font-style="normal" font-weight="normal" text-decoration="none" text-anchor="middle" fill="black" xml:space="preserve" transform="translate(49 0.43359375)"><tspan class="yfiles-label-h2" dy="16.3125px" x="0" style="font-size: 1.5em; font-weight: bold;">Application</tspan></text></g><g transform="translate(149.875 -146)"><text font-family="Arial" font-size="12px" font-style="normal" font-weight="normal" text-decoration="none" text-anchor="middle" fill="black" xml:space="preserve" transform="translate(48.5 0.43359375)"><tspan class="yfiles-label-h2" dy="16.3125px" x="0" style="font-size: 1.5em; font-weight: bold;"><tspan class="yfiles-label-strong" style="font-weight: bold;">Wallet </tspan>SDK</tspan></text></g><g transform="translate(194.875 -25.5)"><text font-family="Arial" font-size="12px" font-style="normal" font-weight="normal" text-decoration="none" text-anchor="middle" fill="rgb(255,255,255)" fill-opacity="1" dy="0.90625em" xml:space="preserve" transform="translate(3.5 0.2890625)">2</text></g><g><g><g transform="translate(236.625 -36.625)"><g transform="translate(0 0)"><rect x="0" y="0" width="104" height="38" rx="0" ry="0" stroke="rgb(255,255,255)" stroke-opacity="0" stroke-width="1" stroke-linecap="butt" stroke-linejoin="miter" stroke-miterlimit="10" fill="rgb(224,224,224)" fill-opacity="1"/><path d="M 10.4,0 L 0,0 L 0,38 L 10.4,38" stroke="rgb(0,0,0)" stroke-opacity="1" stroke-width="1" stroke-linecap="butt" stroke-linejoin="miter" stroke-miterlimit="10" fill="rgb(255,255,255)" fill-opacity="0" transform="translate(0 0)"/></g></g><g transform="translate(241.625 -31.625)"><text font-family="Arial" font-size="12px" font-style="normal" font-weight="normal" text-decoration="none" text-anchor="middle" fill="rgb(0,0,0)" fill-opacity="1" transform="translate(47 0.08906250000000071)"><tspan x="0" y="10.875" xml:space="preserve">시큐어 난수로</tspan><tspan x="0" y="25.275" xml:space="preserve">개인키, 공개키 생성</tspan></text></g><g><path d="M 236.625,-18.12915512465374 L 213.37429505971093,-18.354577471720255" stroke="rgb(0,0,0)" stroke-opacity="1" stroke-width="1" stroke-dasharray="0.01,2" stroke-dashoffset="0" stroke-linecap="round" stroke-linejoin="miter" stroke-miterlimit="10" fill="none"/></g></g></g><g transform="translate(194.875 94.75)"><text font-family="Arial" font-size="12px" font-style="normal" font-weight="normal" text-decoration="none" text-anchor="middle" fill="rgb(255,255,255)" fill-opacity="1" dy="0.90625em" xml:space="preserve" transform="translate(3.5 0.2890625)">4</text></g><g><g><g transform="translate(235.8125 83)"><g transform="translate(0 0)"><rect x="0" y="0" width="124" height="38" rx="0" ry="0" stroke="rgb(255,255,255)" stroke-opacity="0" stroke-width="1" stroke-linecap="butt" stroke-linejoin="miter" stroke-miterlimit="10" fill="rgb(224,224,224)" fill-opacity="1"/><path d="M 12.4,0 L 0,0 L 0,38 L 12.4,38" stroke="rgb(0,0,0)" stroke-opacity="1" stroke-width="1" stroke-linecap="butt" stroke-linejoin="miter" stroke-miterlimit="10" fill="rgb(255,255,255)" fill-opacity="0" transform="translate(0 0)"/></g></g><g transform="translate(240.8125 88)"><text font-family="Arial" font-size="12px" font-style="normal" font-weight="normal" text-decoration="none" text-anchor="middle" fill="rgb(0,0,0)" fill-opacity="1" transform="translate(57 0.08906250000000071)"><tspan x="0" y="10.875" xml:space="preserve">키스토어에 저장된 키로 </tspan><tspan x="0" y="25.275" xml:space="preserve">월렛 데이터 암호화</tspan></text></g><g><path d="M 235.8125,101.84412319296041 L 213.37495259339792,101.78771201154846" stroke="rgb(0,0,0)" stroke-opacity="1" stroke-width="1" stroke-dasharray="0.01,2" stroke-dashoffset="0" stroke-linecap="round" stroke-linejoin="miter" stroke-miterlimit="10" fill="none"/></g></g></g><g transform="translate(194.875 147)"><text font-family="Arial" font-size="12px" font-style="normal" font-weight="normal" text-decoration="none" text-anchor="middle" fill="rgb(255,255,255)" fill-opacity="1" dy="0.90625em" xml:space="preserve" transform="translate(3.5 0.2890625)">5</text></g><g><g><g transform="translate(236.5625 135.25)"><g transform="translate(0 0)"><rect x="0" y="0" width="153" height="38" rx="0" ry="0" stroke="rgb(255,255,255)" stroke-opacity="0" stroke-width="1" stroke-linecap="butt" stroke-linejoin="miter" stroke-miterlimit="10" fill="rgb(224,224,224)" fill-opacity="1"/><path d="M 15.3,0 L 0,0 L 0,38 L 15.3,38" stroke="rgb(0,0,0)" stroke-opacity="1" stroke-width="1" stroke-linecap="butt" stroke-linejoin="miter" stroke-miterlimit="10" fill="rgb(255,255,255)" fill-opacity="0" transform="translate(0 0)"/></g></g><g transform="translate(241.5625 140.25)"><text font-family="Arial" font-size="12px" font-style="normal" font-weight="normal" text-decoration="none" text-anchor="middle" fill="rgb(0,0,0)" fill-opacity="1" transform="translate(71.5 0.08906250000000071)"><tspan x="0" y="10.875" xml:space="preserve">(최초에만) 키스토어에 서명용 </tspan><tspan x="0" y="25.275" xml:space="preserve">Secp256R1키 생성 요청</tspan></text></g><g><path d="M 236.5625,154.08324250681198 L 213.37496436247287,154.03269746999993" stroke="rgb(0,0,0)" stroke-opacity="1" stroke-width="1" stroke-dasharray="0.01,2" stroke-dashoffset="0" stroke-linecap="round" stroke-linejoin="miter" stroke-miterlimit="10" fill="none"/></g></g></g><g transform="translate(194.875 203)"><text font-family="Arial" font-size="12px" font-style="normal" font-weight="normal" text-decoration="none" text-anchor="middle" fill="rgb(255,255,255)" fill-opacity="1" dy="0.90625em" xml:space="preserve" transform="translate(3.5 0.2890625)">6</text></g><g><g><g transform="translate(235.8125 196.625)"><g transform="translate(0 0)"><rect x="0" y="0" width="99" height="24" rx="0" ry="0" stroke="rgb(255,255,255)" stroke-opacity="0" stroke-width="1" stroke-linecap="butt" stroke-linejoin="miter" stroke-miterlimit="10" fill="rgb(224,224,224)" fill-opacity="1"/><path d="M 9.9,0 L 0,0 L 0,24 L 9.9,24" stroke="rgb(0,0,0)" stroke-opacity="1" stroke-width="1" stroke-linecap="butt" stroke-linejoin="miter" stroke-miterlimit="10" fill="rgb(255,255,255)" fill-opacity="0" transform="translate(0 0)"/></g></g><g transform="translate(240.8125 201.625)"><text font-family="Arial" font-size="12px" font-style="normal" font-weight="normal" text-decoration="none" text-anchor="middle" fill="rgb(0,0,0)" fill-opacity="1" dy="0.90625em" xml:space="preserve" transform="translate(44.5 0.2890625)">ECDSA 서명 요청</text></g><g><path d="M 235.8125,209.40789000718908 L 213.3731242675269,209.76279027039138" stroke="rgb(0,0,0)" stroke-opacity="1" stroke-width="1" stroke-dasharray="0.01,2" stroke-dashoffset="0" stroke-linecap="round" stroke-linejoin="miter" stroke-miterlimit="10" fill="none"/></g></g></g><g transform="translate(194.875 259)"><text font-family="Arial" font-size="12px" font-style="normal" font-weight="normal" text-decoration="none" text-anchor="middle" fill="rgb(255,255,255)" fill-opacity="1" dy="0.90625em" xml:space="preserve" transform="translate(3.5 0.2890625)">7</text></g><g><g><g transform="translate(234.1875 252.75)"><g transform="translate(0 0)"><rect x="0" y="0" width="135" height="24" rx="0" ry="0" stroke="rgb(255,255,255)" stroke-opacity="0" stroke-width="1" stroke-linecap="butt" stroke-linejoin="miter" stroke-miterlimit="10" fill="rgb(224,224,224)" fill-opacity="1"/><path d="M 13.5,0 L 0,0 L 0,24 L 13.5,24" stroke="rgb(0,0,0)" stroke-opacity="1" stroke-width="1" stroke-linecap="butt" stroke-linejoin="miter" stroke-miterlimit="10" fill="rgb(255,255,255)" fill-opacity="0" transform="translate(0 0)"/></g></g><g transform="translate(239.1875 257.75)"><text font-family="Arial" font-size="12px" font-style="normal" font-weight="normal" text-decoration="none" text-anchor="middle" fill="rgb(0,0,0)" fill-opacity="1" dy="0.90625em" xml:space="preserve" transform="translate(62.5 0.2890625)">월렛 서명값을 월렛에 추가</text></g><g><path d="M 234.1875,265.5666969147005 L 213.37390218826667,265.8185250793918" stroke="rgb(0,0,0)" stroke-opacity="1" stroke-width="1" stroke-dasharray="0.01,2" stroke-dashoffset="0" stroke-linecap="round" stroke-linejoin="miter" stroke-miterlimit="10" fill="none"/></g></g></g><g transform="translate(194.875 315)"><text font-family="Arial" font-size="12px" font-style="normal" font-weight="normal" text-decoration="none" text-anchor="middle" fill="rgb(255,255,255)" fill-opacity="1" dy="0.90625em" xml:space="preserve" transform="translate(3.5 0.2890625)">8</text></g><g><g><g transform="translate(153.5625 349.625)"><g transform="translate(0 0)"><rect x="0" y="0" width="90" height="38" rx="0" ry="0" stroke="rgb(255,255,255)" stroke-opacity="0" stroke-width="1" stroke-linecap="butt" stroke-linejoin="miter" stroke-miterlimit="10" fill="rgb(224,224,224)" fill-opacity="1"/><path d="M 9,0 L 0,0 L 0,38 L 9,38" stroke="rgb(0,0,0)" stroke-opacity="1" stroke-width="1" stroke-linecap="butt" stroke-linejoin="miter" stroke-miterlimit="10" fill="rgb(255,255,255)" fill-opacity="0" transform="translate(0 0)"/></g></g><g transform="translate(158.5625 354.625)"><text font-family="Arial" font-size="12px" font-style="normal" font-weight="normal" text-decoration="none" text-anchor="middle" fill="rgb(0,0,0)" fill-opacity="1" transform="translate(40 0.08906250000000071)"><tspan x="0" y="10.875" xml:space="preserve">월렛 파일을</tspan><tspan x="0" y="25.275" xml:space="preserve">저장 영역에 쓰기</tspan></text></g><g><path d="M 198.48609249329758,349.625 L 198.43532122806096,336.9998787111578" stroke="rgb(0,0,0)" stroke-opacity="1" stroke-width="1" stroke-dasharray="0.01,2" stroke-dashoffset="0" stroke-linecap="round" stroke-linejoin="miter" stroke-miterlimit="10" fill="none"/></g></g></g><g transform="translate(194.875 34.625)"><text font-family="Arial" font-size="12px" font-style="normal" font-weight="normal" text-decoration="none" text-anchor="middle" fill="rgb(255,255,255)" fill-opacity="1" dy="0.90625em" xml:space="preserve" transform="translate(3.5 0.2890625)">3</text></g><g><g><g transform="translate(235.8125 22.875)"><g transform="translate(0 0)"><rect x="0" y="0" width="115" height="38" rx="0" ry="0" stroke="rgb(255,255,255)" stroke-opacity="0" stroke-width="1" stroke-linecap="butt" stroke-linejoin="miter" stroke-miterlimit="10" fill="rgb(224,224,224)" fill-opacity="1"/><path d="M 11.5,0 L 0,0 L 0,38 L 11.5,38" stroke="rgb(0,0,0)" stroke-opacity="1" stroke-width="1" stroke-linecap="butt" stroke-linejoin="miter" stroke-miterlimit="10" fill="rgb(255,255,255)" fill-opacity="0" transform="translate(0 0)"/></g></g><g transform="translate(240.8125 27.875)"><text font-family="Arial" font-size="12px" font-style="normal" font-weight="normal" text-decoration="none" text-anchor="middle" fill="rgb(0,0,0)" fill-opacity="1" transform="translate(52.5 0.08906250000000071)"><tspan x="0" y="10.875" xml:space="preserve">(최초에만) 키스토어에</tspan><tspan x="0" y="25.275" xml:space="preserve">암호화용 키 생성 요청</tspan></text></g><g><path d="M 235.8125,41.72358459512837 L 213.37494799280392,41.664499533884936" stroke="rgb(0,0,0)" stroke-opacity="1" stroke-width="1" stroke-dasharray="0.01,2" stroke-dashoffset="0" stroke-linecap="round" stroke-linejoin="miter" stroke-miterlimit="10" fill="none"/></g></g></g><g transform="translate(56.5 -25.5)"><text font-family="Arial" font-size="12px" font-style="normal" font-weight="normal" text-decoration="none" text-anchor="middle" fill="rgb(255,255,255)" fill-opacity="1" dy="0.90625em" xml:space="preserve" transform="translate(3.5 0.2890625)">1</text></g><g><g><g transform="translate(12.5 12.75)"><g transform="translate(0 0)"><rect x="0" y="0" width="93" height="38" rx="0" ry="0" stroke="rgb(255,255,255)" stroke-opacity="0" stroke-width="1" stroke-linecap="butt" stroke-linejoin="miter" stroke-miterlimit="10" fill="rgb(224,224,224)" fill-opacity="1"/><path d="M 83.7,0 L 93,0 L 93,38 L 83.7,38" stroke="rgb(0,0,0)" stroke-opacity="1" stroke-width="1" stroke-linecap="butt" stroke-linejoin="miter" stroke-miterlimit="10" fill="rgb(255,255,255)" fill-opacity="0" transform="translate(0 0)"/></g></g><g transform="translate(17.5 17.75)"><text font-family="Arial" font-size="12px" font-style="normal" font-weight="normal" text-decoration="none" text-anchor="middle" fill="rgb(0,0,0)" fill-opacity="1" transform="translate(41.5 0.08906250000000071)"><tspan x="0" y="10.875" xml:space="preserve">접근 제어가 없는 </tspan><tspan x="0" y="25.275" xml:space="preserve">일반 키 생성 요청</tspan></text></g><g><path d="M 59.37810945273632,12.75 L 59.70155162868811,-3.5029693415776055" stroke="rgb(0,0,0)" stroke-opacity="1" stroke-width="1" stroke-dasharray="0.01,2" stroke-dashoffset="0" stroke-linecap="round" stroke-linejoin="miter" stroke-miterlimit="10" fill="none"/></g></g></g><g transform="translate(335.81500000000005 -146)"><text font-family="Arial" font-size="12px" font-style="normal" font-weight="normal" text-decoration="none" text-anchor="middle" fill="rgb(0,0,0)" fill-opacity="1" xml:space="preserve" transform="translate(34 0.43359375)"><tspan class="yfiles-label-h2" dy="16.3125px" x="0" style="font-size: 1.5em; font-weight: bold;">Storage</tspan></text></g><g transform="translate(366.31500000000005 315)"><text font-family="Arial" font-size="12px" font-style="normal" font-weight="normal" text-decoration="none" text-anchor="middle" fill="rgb(255,255,255)" fill-opacity="1" dy="0.90625em" xml:space="preserve" transform="translate(3.5 0.2890625)">9</text></g><g><g><g transform="translate(342.37750000000005 358)"><g transform="translate(0 0)"><rect x="0" y="0" width="55" height="24" rx="0" ry="0" stroke="rgb(255,255,255)" stroke-opacity="0" stroke-width="1" stroke-linecap="butt" stroke-linejoin="miter" stroke-miterlimit="10" fill="rgb(224,224,224)" fill-opacity="1"/><path d="M 5.5,0 L 0,0 L 0,24 L 5.5,24" stroke="rgb(0,0,0)" stroke-opacity="1" stroke-width="1" stroke-linecap="butt" stroke-linejoin="miter" stroke-miterlimit="10" fill="rgb(255,255,255)" fill-opacity="0" transform="translate(0 0)"/></g></g><g transform="translate(347.37750000000005 363)"><text font-family="Arial" font-size="12px" font-style="normal" font-weight="normal" text-decoration="none" text-anchor="middle" fill="rgb(0,0,0)" fill-opacity="1" dy="0.90625em" xml:space="preserve" transform="translate(22.5 0.2890625)">파일 저장</text></g><g><path d="M 369.86187500000005,358 L 369.8345312334432,336.9999872843586" stroke="rgb(0,0,0)" stroke-opacity="1" stroke-width="1" stroke-dasharray="0.01,2" stroke-dashoffset="0" stroke-linecap="round" stroke-linejoin="miter" stroke-miterlimit="10" fill="none"/></g></g></g></g></g></svg>