<?xml version="1.0" encoding="us-ascii" standalone="no"?><svg xmlns="http://www.w3.org/2000/svg" xmlns:xlink="http://www.w3.org/1999/xlink" contentStyleType="text/css" height="1854px" preserveAspectRatio="none" style="width:1620px;height:1854px;background:#FFFFFF;" version="1.1" viewBox="0 0 1620 1854" width="1620px" zoomAndPan="magnify"><defs/><g><text fill="#000000" font-family="sans-serif" font-size="25" font-weight="bold" lengthAdjust="spacing" textLength="338" x="637" y="39.1699">ZKP Proof &#51228;&#52636; - Direct &#47784;&#46300;</text><rect fill="#FDF5E6" height="1792.2988" style="stroke:#181818;stroke-width:0.5;" width="492.5" x="282" y="56.4434"/><text fill="#000000" font-family="sans-serif" font-size="13" font-weight="bold" lengthAdjust="spacing" textLength="33" x="509.75" y="69.0117">&#47784;&#48148;&#51068;</text><rect fill="#FFFFFF" height="1618.3223" style="stroke:#181818;stroke-width:1.0;" width="10" x="309" y="141.9316"/><rect fill="#FFFFFF" height="186.8633" style="stroke:#181818;stroke-width:1.0;" width="10" x="731" y="565.9004"/><rect fill="#FFFFFF" height="321.0371" style="stroke:#181818;stroke-width:1.0;" width="10" x="731" y="1061.8691"/><rect fill="#FFFFFF" height="202.1738" style="stroke:#181818;stroke-width:1.0;" width="10" x="1131" y="270.4844"/><rect fill="#FFFFFF" height="323.7266" style="stroke:#181818;stroke-width:1.0;" width="10" x="1131" y="1427.5273"/><line style="stroke:#181818;stroke-width:0.5;stroke-dasharray:5.0,5.0;" x1="26" x2="26" y1="131.9316" y2="1769.2539"/><line style="stroke:#181818;stroke-width:0.5;stroke-dasharray:5.0,5.0;" x1="314" x2="314" y1="131.9316" y2="1769.2539"/><line style="stroke:#181818;stroke-width:0.5;stroke-dasharray:5.0,5.0;" x1="735.5" x2="735.5" y1="131.9316" y2="1769.2539"/><line style="stroke:#181818;stroke-width:0.5;stroke-dasharray:5.0,5.0;" x1="1135.5" x2="1135.5" y1="131.9316" y2="1769.2539"/><text fill="#000000" font-family="sans-serif" font-size="14" font-weight="bold" lengthAdjust="spacing" textLength="36" x="5" y="128.9785">&#49324;&#50857;&#51088;</text><ellipse cx="26" cy="63.9434" fill="#E2E2F0" rx="8" ry="8" style="stroke:#181818;stroke-width:0.5;"/><path d="M26,71.9434 L26,98.9434 M13,79.9434 L39,79.9434 M26,98.9434 L13,113.9434 M26,98.9434 L39,113.9434 " fill="none" style="stroke:#181818;stroke-width:0.5;"/><text fill="#000000" font-family="sans-serif" font-size="14" font-weight="bold" lengthAdjust="spacing" textLength="36" x="5" y="1781.7891">&#49324;&#50857;&#51088;</text><ellipse cx="26" cy="1793.2422" fill="#E2E2F0" rx="8" ry="8" style="stroke:#181818;stroke-width:0.5;"/><path d="M26,1801.2422 L26,1828.2422 M13,1809.2422 L39,1809.2422 M26,1828.2422 L13,1843.2422 M26,1828.2422 L39,1843.2422 " fill="none" style="stroke:#181818;stroke-width:0.5;"/><rect fill="#E2E2F0" height="46.9766" rx="2.5" ry="2.5" style="stroke:#181818;stroke-width:0.5;" width="56" x="286" y="83.9551"/><text fill="#000000" font-family="sans-serif" font-size="14" font-style="italic" lengthAdjust="spacing" textLength="42" x="293" y="104.4902">&#171;App&#187;</text><text fill="#000000" font-family="sans-serif" font-size="14" font-weight="bold" lengthAdjust="spacing" textLength="36" x="296" y="120.9785">&#51064;&#44032;&#50545;</text><rect fill="#E2E2F0" height="46.9766" rx="2.5" ry="2.5" style="stroke:#181818;stroke-width:0.5;" width="56" x="286" y="1768.2539"/><text fill="#000000" font-family="sans-serif" font-size="14" font-style="italic" lengthAdjust="spacing" textLength="42" x="293" y="1788.7891">&#171;App&#187;</text><text fill="#000000" font-family="sans-serif" font-size="14" font-weight="bold" lengthAdjust="spacing" textLength="36" x="296" y="1805.2773">&#51064;&#44032;&#50545;</text><rect fill="#E2E2F0" height="46.9766" rx="2.5" ry="2.5" style="stroke:#181818;stroke-width:0.5;" width="69" x="701.5" y="83.9551"/><text fill="#000000" font-family="sans-serif" font-size="14" font-style="italic" lengthAdjust="spacing" textLength="55" x="708.5" y="104.4902">&#171;Wallet&#187;</text><text fill="#000000" font-family="sans-serif" font-size="14" font-weight="bold" lengthAdjust="spacing" textLength="24" x="724" y="120.9785">&#50900;&#47131;</text><rect fill="#E2E2F0" height="46.9766" rx="2.5" ry="2.5" style="stroke:#181818;stroke-width:0.5;" width="69" x="701.5" y="1768.2539"/><text fill="#000000" font-family="sans-serif" font-size="14" font-style="italic" lengthAdjust="spacing" textLength="55" x="708.5" y="1788.7891">&#171;Wallet&#187;</text><text fill="#000000" font-family="sans-serif" font-size="14" font-weight="bold" lengthAdjust="spacing" textLength="24" x="724" y="1805.2773">&#50900;&#47131;</text><rect fill="#E2E2F0" height="46.9766" rx="2.5" ry="2.5" style="stroke:#181818;stroke-width:0.5;" width="79" x="1096.5" y="83.9551"/><text fill="#000000" font-family="sans-serif" font-size="14" font-style="italic" lengthAdjust="spacing" textLength="57" x="1107.5" y="104.4902">&#171;Server&#187;</text><text fill="#000000" font-family="sans-serif" font-size="14" font-weight="bold" lengthAdjust="spacing" textLength="65" x="1103.5" y="120.9785">&#44160;&#51613; &#49324;&#50629;&#51088;</text><rect fill="#E2E2F0" height="46.9766" rx="2.5" ry="2.5" style="stroke:#181818;stroke-width:0.5;" width="79" x="1096.5" y="1768.2539"/><text fill="#000000" font-family="sans-serif" font-size="14" font-style="italic" lengthAdjust="spacing" textLength="57" x="1107.5" y="1788.7891">&#171;Server&#187;</text><text fill="#000000" font-family="sans-serif" font-size="14" font-weight="bold" lengthAdjust="spacing" textLength="65" x="1103.5" y="1805.2773">&#44160;&#51613; &#49324;&#50629;&#51088;</text><rect fill="#FFFFFF" height="1618.3223" style="stroke:#181818;stroke-width:1.0;" width="10" x="309" y="141.9316"/><rect fill="#FFFFFF" height="186.8633" style="stroke:#181818;stroke-width:1.0;" width="10" x="731" y="565.9004"/><rect fill="#FFFFFF" height="321.0371" style="stroke:#181818;stroke-width:1.0;" width="10" x="731" y="1061.8691"/><rect fill="#FFFFFF" height="202.1738" style="stroke:#181818;stroke-width:1.0;" width="10" x="1131" y="270.4844"/><rect fill="#FFFFFF" height="323.7266" style="stroke:#181818;stroke-width:1.0;" width="10" x="1131" y="1427.5273"/><polygon fill="#32CD32" points="292,146.9316,1156,146.9316,1166,165.9316,1156,184.9316,292,184.9316,282,165.9316,292,146.9316" style="stroke:#181818;stroke-width:0.5;"/><text fill="#000000" font-family="sans-serif" font-size="13" lengthAdjust="spacing" textLength="184" x="553.75" y="163.5">Offer &#45800;&#44228; &#49688;&#54665;&#51004;&#47196; &#50500;&#47000; &#51221;&#48372; &#54925;&#46301;</text><ellipse cx="559.25" cy="174.0527" fill="#000000" rx="2.5" ry="2.5" style="stroke:#000000;stroke-width:0.0;"/><text fill="#000000" font-family="sans-serif" font-size="13" lengthAdjust="spacing" textLength="329" x="565.75" y="178.8105">device, service, (optional)offerId, (optional)passcode</text><rect fill="#EEEEEE" height="3" style="stroke:#EEEEEE;stroke-width:1.0;" width="1613" x="0" y="211.208"/><line style="stroke:#000000;stroke-width:1.0;" x1="0" x2="1613" y1="211.208" y2="211.208"/><line style="stroke:#000000;stroke-width:1.0;" x1="0" x2="1613" y1="214.208" y2="214.208"/><rect fill="#EEEEEE" height="23.3105" style="stroke:#000000;stroke-width:2.0;" width="234" x="689.5" y="200.5527"/><text fill="#000000" font-family="sans-serif" font-size="13" font-weight="bold" lengthAdjust="spacing" textLength="216" x="695.5" y="217.1211">1. Request Proof Request Profile</text><polygon fill="#181818" points="1119,266.4844,1129,270.4844,1119,274.4844,1123,270.4844" style="stroke:#181818;stroke-width:1.0;"/><line style="stroke:#181818;stroke-width:1.0;" x1="319" x2="1125" y1="270.4844" y2="270.4844"/><text fill="#000000" font-family="sans-serif" font-size="13" font-weight="bold" lengthAdjust="spacing" textLength="19" x="326" y="258.0869">(1)</text><text fill="#000000" font-family="sans-serif" font-size="13" lengthAdjust="spacing" textLength="185" x="349" y="250.4316">Request Proof Request Profile</text><text fill="#000000" font-family="sans-serif" font-size="13" lengthAdjust="spacing" textLength="50" x="349" y="265.7422">{offerId}</text><line style="stroke:#181818;stroke-width:1.0;" x1="1141" x2="1183" y1="299.7949" y2="299.7949"/><line style="stroke:#181818;stroke-width:1.0;" x1="1183" x2="1183" y1="299.7949" y2="312.7949"/><line style="stroke:#181818;stroke-width:1.0;" x1="1142" x2="1183" y1="312.7949" y2="312.7949"/><polygon fill="#181818" points="1152,308.7949,1142,312.7949,1152,316.7949,1148,312.7949" style="stroke:#181818;stroke-width:1.0;"/><text fill="#000000" font-family="sans-serif" font-size="13" font-weight="bold" lengthAdjust="spacing" textLength="19" x="1148" y="295.0527">(2)</text><text fill="#000000" font-family="sans-serif" font-size="13" lengthAdjust="spacing" textLength="105" x="1171" y="295.0527">offerId &#50976;&#54952;&#49457; &#54869;&#51064;</text><line style="stroke:#181818;stroke-width:1.0;" x1="1141" x2="1183" y1="388.0371" y2="388.0371"/><line style="stroke:#181818;stroke-width:1.0;" x1="1183" x2="1183" y1="388.0371" y2="401.0371"/><line style="stroke:#181818;stroke-width:1.0;" x1="1142" x2="1183" y1="401.0371" y2="401.0371"/><polygon fill="#181818" points="1152,397.0371,1142,401.0371,1152,405.0371,1148,401.0371" style="stroke:#181818;stroke-width:1.0;"/><text fill="#000000" font-family="sans-serif" font-size="13" font-weight="bold" lengthAdjust="spacing" textLength="19" x="1148" y="360.3291">(3)</text><text fill="#000000" font-family="sans-serif" font-size="13" lengthAdjust="spacing" textLength="220" x="1171" y="337.3633">Proof Request Profile &#44288;&#47144; &#45936;&#51060;&#53552; &#51456;&#48708;</text><ellipse cx="1176.5" cy="347.916" fill="#000000" rx="2.5" ry="2.5" style="stroke:#000000;stroke-width:0.0;"/><text fill="#000000" font-family="sans-serif" font-size="13" lengthAdjust="spacing" textLength="239" x="1183" y="352.6738">proofRequest = ZKP proofRequest &#49373;&#49457;</text><ellipse cx="1176.5" cy="363.2266" fill="#000000" rx="2.5" ry="2.5" style="stroke:#000000;stroke-width:0.0;"/><text fill="#000000" font-family="sans-serif" font-size="13" lengthAdjust="spacing" textLength="156" x="1183" y="367.9844">reqE2e = E2E &#50836;&#52397;&#51221;&#48372; &#49373;&#49457;</text><ellipse cx="1176.5" cy="378.5371" fill="#000000" rx="2.5" ry="2.5" style="stroke:#000000;stroke-width:0.0;"/><text fill="#000000" font-family="sans-serif" font-size="13" lengthAdjust="spacing" textLength="96" x="1183" y="383.2949">&#44592;&#53440; &#45936;&#51060;&#53552;&#45716; &#49373;&#47029;</text><line style="stroke:#181818;stroke-width:1.0;" x1="1141" x2="1183" y1="430.3477" y2="430.3477"/><line style="stroke:#181818;stroke-width:1.0;" x1="1183" x2="1183" y1="430.3477" y2="443.3477"/><line style="stroke:#181818;stroke-width:1.0;" x1="1142" x2="1183" y1="443.3477" y2="443.3477"/><polygon fill="#181818" points="1152,439.3477,1142,443.3477,1152,447.3477,1148,443.3477" style="stroke:#181818;stroke-width:1.0;"/><text fill="#000000" font-family="sans-serif" font-size="13" font-weight="bold" lengthAdjust="spacing" textLength="19" x="1148" y="425.6055">(4)</text><text fill="#000000" font-family="sans-serif" font-size="13" lengthAdjust="spacing" textLength="430" x="1171" y="425.6055">(ProofRequestProfile)proofRequestProfile = Proof Request Profile &#49373;&#49457;</text><polygon fill="#181818" points="330,468.6582,320,472.6582,330,476.6582,326,472.6582" style="stroke:#181818;stroke-width:1.0;"/><line style="stroke:#181818;stroke-width:1.0;stroke-dasharray:2.0,2.0;" x1="324" x2="1135" y1="472.6582" y2="472.6582"/><text fill="#000000" font-family="sans-serif" font-size="13" font-weight="bold" lengthAdjust="spacing" textLength="19" x="336" y="467.916">(5)</text><text fill="#000000" font-family="sans-serif" font-size="13" lengthAdjust="spacing" textLength="132" x="359" y="467.916">{proofRequestProfile}</text><polygon fill="#32CD32" points="295,485.6582,754,485.6582,764,504.6582,754,523.6582,295,523.6582,285,504.6582,295,485.6582" style="stroke:#181818;stroke-width:0.5;"/><text fill="#000000" font-family="sans-serif" font-size="13" lengthAdjust="spacing" textLength="223" x="413.25" y="502.2266">&#50900;&#47131;&#53664;&#53360; &#49373;&#49457; {purpose = "PresentVp"}</text><ellipse cx="418.75" cy="512.7793" fill="#000000" rx="2.5" ry="2.5" style="stroke:#000000;stroke-width:0.0;"/><text fill="#000000" font-family="sans-serif" font-size="13" lengthAdjust="spacing" textLength="138" x="425.25" y="517.5371">walletToken = &#50900;&#47131;&#53664;&#53360;</text><polygon fill="#181818" points="719,561.9004,729,565.9004,719,569.9004,723,565.9004" style="stroke:#181818;stroke-width:1.0;"/><line style="stroke:#181818;stroke-width:1.0;" x1="319" x2="725" y1="565.9004" y2="565.9004"/><text fill="#000000" font-family="sans-serif" font-size="13" font-weight="bold" lengthAdjust="spacing" textLength="19" x="326" y="553.5029">(6)</text><text fill="#000000" font-family="sans-serif" font-size="13" lengthAdjust="spacing" textLength="136" x="349" y="545.8477">&#51228;&#52636;&#44032;&#45733; credential &#51312;&#54924;</text><text fill="#000000" font-family="sans-serif" font-size="13" lengthAdjust="spacing" textLength="216" x="349" y="561.1582">{walletToken, proofRequestProfile}</text><line style="stroke:#181818;stroke-width:1.0;" x1="741" x2="783" y1="595.2109" y2="595.2109"/><line style="stroke:#181818;stroke-width:1.0;" x1="783" x2="783" y1="595.2109" y2="608.2109"/><line style="stroke:#181818;stroke-width:1.0;" x1="742" x2="783" y1="608.2109" y2="608.2109"/><polygon fill="#181818" points="752,604.2109,742,608.2109,752,612.2109,748,608.2109" style="stroke:#181818;stroke-width:1.0;"/><text fill="#000000" font-family="sans-serif" font-size="13" font-weight="bold" lengthAdjust="spacing" textLength="19" x="748" y="590.4688">(7)</text><text fill="#000000" font-family="sans-serif" font-size="13" lengthAdjust="spacing" textLength="139" x="771" y="590.4688">walletToken &#50976;&#54952;&#49457; &#54869;&#51064;</text><line style="stroke:#181818;stroke-width:1.0;" x1="741" x2="783" y1="637.5215" y2="637.5215"/><line style="stroke:#181818;stroke-width:1.0;" x1="783" x2="783" y1="637.5215" y2="650.5215"/><line style="stroke:#181818;stroke-width:1.0;" x1="742" x2="783" y1="650.5215" y2="650.5215"/><polygon fill="#181818" points="752,646.5215,742,650.5215,752,654.5215,748,650.5215" style="stroke:#181818;stroke-width:1.0;"/><text fill="#000000" font-family="sans-serif" font-size="13" font-weight="bold" lengthAdjust="spacing" textLength="19" x="748" y="632.7793">(8)</text><text fill="#000000" font-family="sans-serif" font-size="13" lengthAdjust="spacing" textLength="188" x="771" y="632.7793">proofRequestProfile.proof &#44160;&#51613;</text><line style="stroke:#181818;stroke-width:1.0;" x1="741" x2="783" y1="710.4531" y2="710.4531"/><line style="stroke:#181818;stroke-width:1.0;" x1="783" x2="783" y1="710.4531" y2="723.4531"/><line style="stroke:#181818;stroke-width:1.0;" x1="742" x2="783" y1="723.4531" y2="723.4531"/><polygon fill="#181818" points="752,719.4531,742,723.4531,752,727.4531,748,723.4531" style="stroke:#181818;stroke-width:1.0;"/><text fill="#000000" font-family="sans-serif" font-size="13" font-weight="bold" lengthAdjust="spacing" textLength="19" x="748" y="690.4004">(9)</text><text fill="#000000" font-family="sans-serif" font-size="13" lengthAdjust="spacing" textLength="88" x="771" y="675.0898">credential &#44160;&#49353;</text><ellipse cx="776.5" cy="685.6426" fill="#000000" rx="2.5" ry="2.5" style="stroke:#000000;stroke-width:0.0;"/><text fill="#000000" font-family="sans-serif" font-size="13" lengthAdjust="spacing" textLength="84" x="783" y="690.4004">attribute, &#49373;&#49457;</text><ellipse cx="776.5" cy="700.9531" fill="#000000" rx="2.5" ry="2.5" style="stroke:#000000;stroke-width:0.0;"/><text fill="#000000" font-family="sans-serif" font-size="13" lengthAdjust="spacing" textLength="134" x="783" y="705.7109">&#51060;&#50857;&#44032;&#45733;&#54620; referent &#49373;&#49457;</text><polygon fill="#181818" points="330,748.7637,320,752.7637,330,756.7637,326,752.7637" style="stroke:#181818;stroke-width:1.0;"/><line style="stroke:#181818;stroke-width:1.0;stroke-dasharray:2.0,2.0;" x1="324" x2="735" y1="752.7637" y2="752.7637"/><text fill="#000000" font-family="sans-serif" font-size="13" font-weight="bold" lengthAdjust="spacing" textLength="28" x="336" y="748.0215">(10)</text><text fill="#000000" font-family="sans-serif" font-size="13" lengthAdjust="spacing" textLength="57" x="368" y="748.0215">{referent}</text><line style="stroke:#181818;stroke-width:1.0;" x1="319" x2="361" y1="782.0742" y2="782.0742"/><line style="stroke:#181818;stroke-width:1.0;" x1="361" x2="361" y1="782.0742" y2="795.0742"/><line style="stroke:#181818;stroke-width:1.0;" x1="320" x2="361" y1="795.0742" y2="795.0742"/><polygon fill="#181818" points="330,791.0742,320,795.0742,330,799.0742,326,795.0742" style="stroke:#181818;stroke-width:1.0;"/><text fill="#000000" font-family="sans-serif" font-size="13" font-weight="bold" lengthAdjust="spacing" textLength="28" x="326" y="777.332">(11)</text><text fill="#000000" font-family="sans-serif" font-size="13" lengthAdjust="spacing" textLength="162" x="358" y="777.332">&#51228;&#52636;&#44032;&#45733; credential &#47785;&#47197; &#52636;&#47141;</text><polygon fill="#0000FF" points="297,820.3848,307,824.3848,297,824.3848" style="stroke:#0000FF;stroke-width:1.0;"/><line style="stroke:#0000FF;stroke-width:1.0;" x1="26" x2="308" y1="824.3848" y2="824.3848"/><text fill="#000000" font-family="sans-serif" font-size="13" font-weight="bold" lengthAdjust="spacing" textLength="28" x="33" y="819.6426">(12)</text><text fill="#000000" font-family="sans-serif" font-size="13" lengthAdjust="spacing" textLength="88" x="65" y="819.6426">credential &#49440;&#53469;</text><line style="stroke:#181818;stroke-width:1.0;" x1="319" x2="361" y1="853.6953" y2="853.6953"/><line style="stroke:#181818;stroke-width:1.0;" x1="361" x2="361" y1="853.6953" y2="866.6953"/><line style="stroke:#181818;stroke-width:1.0;" x1="320" x2="361" y1="866.6953" y2="866.6953"/><polygon fill="#181818" points="330,862.6953,320,866.6953,330,870.6953,326,866.6953" style="stroke:#181818;stroke-width:1.0;"/><text fill="#000000" font-family="sans-serif" font-size="13" font-weight="bold" lengthAdjust="spacing" textLength="28" x="326" y="848.9531">(13)</text><text fill="#000000" font-family="sans-serif" font-size="13" lengthAdjust="spacing" textLength="209" x="358" y="848.9531">credentialId = &#49440;&#53469;&#46108; credential ID</text><polygon fill="#0000FF" points="297,892.0059,307,896.0059,297,896.0059" style="stroke:#0000FF;stroke-width:1.0;"/><line style="stroke:#0000FF;stroke-width:1.0;" x1="26" x2="308" y1="896.0059" y2="896.0059"/><text fill="#000000" font-family="sans-serif" font-size="13" font-weight="bold" lengthAdjust="spacing" textLength="28" x="33" y="891.2637">(14)</text><text fill="#000000" font-family="sans-serif" font-size="13" lengthAdjust="spacing" textLength="227" x="65" y="891.2637">&#51228;&#52636; &#53364;&#47112;&#51076;(attributes, predicates) &#49440;&#53469;</text><rect fill="#FEFFDD" height="38" style="stroke:#181818;stroke-width:0.5;" width="157" x="235" y="909.0059"/><text fill="#000000" font-family="sans-serif" font-size="13" lengthAdjust="spacing" textLength="149" x="239" y="925.5742">credSchema &#48660;&#47197;&#52404;&#51064; &#51312;&#54924;</text><text fill="#000000" font-family="sans-serif" font-size="13" lengthAdjust="spacing" textLength="123" x="239" y="940.8848">credDef &#48660;&#47197;&#52404;&#51064; &#51312;&#54924;</text><polygon fill="#0000FF" points="297,969.9375,307,973.9375,297,973.9375" style="stroke:#0000FF;stroke-width:1.0;"/><line style="stroke:#0000FF;stroke-width:1.0;" x1="26" x2="308" y1="973.9375" y2="973.9375"/><text fill="#000000" font-family="sans-serif" font-size="13" font-weight="bold" lengthAdjust="spacing" textLength="28" x="33" y="969.1953">(15)</text><text fill="#000000" font-family="sans-serif" font-size="13" lengthAdjust="spacing" textLength="48" x="65" y="969.1953">&#51228;&#52636; &#46041;&#51032;</text><rect fill="#EEEEEE" height="3" style="stroke:#EEEEEE;stroke-width:1.0;" width="1613" x="0" y="1002.5928"/><line style="stroke:#000000;stroke-width:1.0;" x1="0" x2="1613" y1="1002.5928" y2="1002.5928"/><line style="stroke:#000000;stroke-width:1.0;" x1="0" x2="1613" y1="1005.5928" y2="1005.5928"/><rect fill="#EEEEEE" height="23.3105" style="stroke:#000000;stroke-width:2.0;" width="172" x="720.5" y="991.9375"/><text fill="#000000" font-family="sans-serif" font-size="13" font-weight="bold" lengthAdjust="spacing" textLength="154" x="726.5" y="1008.5059">2. Request Verify Proof</text><polygon fill="#181818" points="719,1057.8691,729,1061.8691,719,1065.8691,723,1061.8691" style="stroke:#181818;stroke-width:1.0;"/><line style="stroke:#181818;stroke-width:1.0;" x1="319" x2="725" y1="1061.8691" y2="1061.8691"/><text fill="#000000" font-family="sans-serif" font-size="13" font-weight="bold" lengthAdjust="spacing" textLength="28" x="326" y="1049.4717">(16)</text><text fill="#000000" font-family="sans-serif" font-size="13" lengthAdjust="spacing" textLength="85" x="358" y="1041.8164">Proof &#51228;&#52636; &#50836;&#52397;</text><text fill="#000000" font-family="sans-serif" font-size="13" lengthAdjust="spacing" textLength="361" x="358" y="1057.127">{walletToken, proofRequest, proofParams, selfAttributes }</text><line style="stroke:#181818;stroke-width:1.0;" x1="741" x2="783" y1="1091.1797" y2="1091.1797"/><line style="stroke:#181818;stroke-width:1.0;" x1="783" x2="783" y1="1091.1797" y2="1104.1797"/><line style="stroke:#181818;stroke-width:1.0;" x1="742" x2="783" y1="1104.1797" y2="1104.1797"/><polygon fill="#181818" points="752,1100.1797,742,1104.1797,752,1108.1797,748,1104.1797" style="stroke:#181818;stroke-width:1.0;"/><text fill="#000000" font-family="sans-serif" font-size="13" font-weight="bold" lengthAdjust="spacing" textLength="28" x="748" y="1086.4375">(17)</text><text fill="#000000" font-family="sans-serif" font-size="13" lengthAdjust="spacing" textLength="139" x="780" y="1086.4375">walletToken &#50976;&#54952;&#49457; &#54869;&#51064;</text><line style="stroke:#181818;stroke-width:1.0;" x1="741" x2="783" y1="1225.3535" y2="1225.3535"/><line style="stroke:#181818;stroke-width:1.0;" x1="783" x2="783" y1="1225.3535" y2="1238.3535"/><line style="stroke:#181818;stroke-width:1.0;" x1="742" x2="783" y1="1238.3535" y2="1238.3535"/><polygon fill="#181818" points="752,1234.3535,742,1238.3535,752,1242.3535,748,1238.3535" style="stroke:#181818;stroke-width:1.0;"/><text fill="#000000" font-family="sans-serif" font-size="13" font-weight="bold" lengthAdjust="spacing" textLength="28" x="748" y="1174.6797">(18)</text><text fill="#000000" font-family="sans-serif" font-size="13" lengthAdjust="spacing" textLength="99" x="780" y="1128.748">E2E&#50857; ECDH &#49688;&#54665;</text><ellipse cx="785.5" cy="1139.3008" fill="#000000" rx="2.5" ry="2.5" style="stroke:#000000;stroke-width:0.0;"/><text fill="#000000" font-family="sans-serif" font-size="13" lengthAdjust="spacing" textLength="178" x="792" y="1144.0586">_, pubKeyE2E = ECC &#53412;&#49933; &#49373;&#49457;</text><ellipse cx="785.5" cy="1154.6113" fill="#000000" rx="2.5" ry="2.5" style="stroke:#000000;stroke-width:0.0;"/><text fill="#000000" font-family="sans-serif" font-size="13" lengthAdjust="spacing" textLength="192" x="792" y="1159.3691">e2eKey = profile &#45236; E2E &#45936;&#51060;&#53552;&#47196;</text><text fill="#000000" font-family="sans-serif" font-size="13" lengthAdjust="spacing" textLength="70" x="788" y="1174.6797">&#50516;&#54840;&#54868;&#53412; &#49373;&#49457;</text><ellipse cx="785.5" cy="1185.2324" fill="#000000" rx="2.5" ry="2.5" style="stroke:#000000;stroke-width:0.0;"/><text fill="#000000" font-family="sans-serif" font-size="13" lengthAdjust="spacing" textLength="67" x="792" y="1189.9902">iv = IV &#49373;&#49457;</text><ellipse cx="785.5" cy="1200.543" fill="#000000" rx="2.5" ry="2.5" style="stroke:#000000;stroke-width:0.0;"/><text fill="#000000" font-family="sans-serif" font-size="13" lengthAdjust="spacing" textLength="209" x="792" y="1205.3008">(AccE2e)accE2e = {pubKeyE2E, iv}</text><ellipse cx="785.5" cy="1215.8535" fill="#000000" rx="2.5" ry="2.5" style="stroke:#000000;stroke-width:0.0;"/><text fill="#000000" font-family="sans-serif" font-size="13" lengthAdjust="spacing" textLength="136" x="792" y="1220.6113">signKeyAgree(accE2e)</text><line style="stroke:#181818;stroke-width:1.0;" x1="741" x2="783" y1="1282.9746" y2="1282.9746"/><line style="stroke:#181818;stroke-width:1.0;" x1="783" x2="783" y1="1282.9746" y2="1295.9746"/><line style="stroke:#181818;stroke-width:1.0;" x1="742" x2="783" y1="1295.9746" y2="1295.9746"/><polygon fill="#181818" points="752,1291.9746,742,1295.9746,752,1299.9746,748,1295.9746" style="stroke:#181818;stroke-width:1.0;"/><text fill="#000000" font-family="sans-serif" font-size="13" font-weight="bold" lengthAdjust="spacing" textLength="28" x="748" y="1270.5771">(19)</text><text fill="#000000" font-family="sans-serif" font-size="13" lengthAdjust="spacing" textLength="60" x="780" y="1262.9219">proof &#49373;&#49457;</text><ellipse cx="785.5" cy="1273.4746" fill="#000000" rx="2.5" ry="2.5" style="stroke:#000000;stroke-width:0.0;"/><text fill="#000000" font-family="sans-serif" font-size="13" lengthAdjust="spacing" textLength="332" x="792" y="1278.2324">proof = CreateProof(proofReq, proofParam, selfAttrs)</text><line style="stroke:#181818;stroke-width:1.0;" x1="741" x2="783" y1="1340.5957" y2="1340.5957"/><line style="stroke:#181818;stroke-width:1.0;" x1="783" x2="783" y1="1340.5957" y2="1353.5957"/><line style="stroke:#181818;stroke-width:1.0;" x1="742" x2="783" y1="1353.5957" y2="1353.5957"/><polygon fill="#181818" points="752,1349.5957,742,1353.5957,752,1357.5957,748,1353.5957" style="stroke:#181818;stroke-width:1.0;"/><text fill="#000000" font-family="sans-serif" font-size="13" font-weight="bold" lengthAdjust="spacing" textLength="28" x="748" y="1328.1982">(20)</text><text fill="#000000" font-family="sans-serif" font-size="13" lengthAdjust="spacing" textLength="33" x="780" y="1320.543">&#50516;&#54840;&#54868;</text><ellipse cx="785.5" cy="1331.0957" fill="#000000" rx="2.5" ry="2.5" style="stroke:#000000;stroke-width:0.0;"/><text fill="#000000" font-family="sans-serif" font-size="13" lengthAdjust="spacing" textLength="208" x="792" y="1335.8535">encProof = enc(proof, e2eKey, iv)</text><polygon fill="#181818" points="330,1378.9063,320,1382.9063,330,1386.9063,326,1382.9063" style="stroke:#181818;stroke-width:1.0;"/><line style="stroke:#181818;stroke-width:1.0;stroke-dasharray:2.0,2.0;" x1="324" x2="735" y1="1382.9063" y2="1382.9063"/><text fill="#000000" font-family="sans-serif" font-size="13" font-weight="bold" lengthAdjust="spacing" textLength="28" x="336" y="1378.1641">(21)</text><text fill="#000000" font-family="sans-serif" font-size="13" lengthAdjust="spacing" textLength="114" x="368" y="1378.1641">{accE2e, encProof}</text><polygon fill="#181818" points="1119,1423.5273,1129,1427.5273,1119,1431.5273,1123,1427.5273" style="stroke:#181818;stroke-width:1.0;"/><line style="stroke:#181818;stroke-width:1.0;" x1="319" x2="1125" y1="1427.5273" y2="1427.5273"/><text fill="#000000" font-family="sans-serif" font-size="13" font-weight="bold" lengthAdjust="spacing" textLength="28" x="326" y="1415.1299">(22)</text><text fill="#000000" font-family="sans-serif" font-size="13" lengthAdjust="spacing" textLength="127" x="358" y="1407.4746">Request Verify Proof</text><text fill="#000000" font-family="sans-serif" font-size="13" lengthAdjust="spacing" textLength="114" x="358" y="1422.7852">{accE2e, encProof}</text><line style="stroke:#181818;stroke-width:1.0;" x1="1141" x2="1183" y1="1502.7695" y2="1502.7695"/><line style="stroke:#181818;stroke-width:1.0;" x1="1183" x2="1183" y1="1502.7695" y2="1515.7695"/><line style="stroke:#181818;stroke-width:1.0;" x1="1142" x2="1183" y1="1515.7695" y2="1515.7695"/><polygon fill="#181818" points="1152,1511.7695,1142,1515.7695,1152,1519.7695,1148,1515.7695" style="stroke:#181818;stroke-width:1.0;"/><text fill="#000000" font-family="sans-serif" font-size="13" font-weight="bold" lengthAdjust="spacing" textLength="28" x="1148" y="1475.0615">(23)</text><text fill="#000000" font-family="sans-serif" font-size="13" lengthAdjust="spacing" textLength="88" x="1180" y="1452.0957">E2E ECDH &#49688;&#54665;</text><ellipse cx="1185.5" cy="1462.6484" fill="#000000" rx="2.5" ry="2.5" style="stroke:#000000;stroke-width:0.0;"/><text fill="#000000" font-family="sans-serif" font-size="13" lengthAdjust="spacing" textLength="144" x="1192" y="1467.4063">accE2e.proof &#51080;&#51004;&#47732; &#44160;&#51613;</text><ellipse cx="1185.5" cy="1477.959" fill="#000000" rx="2.5" ry="2.5" style="stroke:#000000;stroke-width:0.0;"/><text fill="#000000" font-family="sans-serif" font-size="13" lengthAdjust="spacing" textLength="132" x="1192" y="1482.7168">e2eKey = &#50516;&#54840;&#54868;&#53412; &#49373;&#49457;</text><ellipse cx="1185.5" cy="1493.2695" fill="#000000" rx="2.5" ry="2.5" style="stroke:#000000;stroke-width:0.0;"/><text fill="#000000" font-family="sans-serif" font-size="13" lengthAdjust="spacing" textLength="87" x="1192" y="1498.0273">iv = accE2e.iv</text><line style="stroke:#181818;stroke-width:1.0;" x1="1141" x2="1183" y1="1560.3906" y2="1560.3906"/><line style="stroke:#181818;stroke-width:1.0;" x1="1183" x2="1183" y1="1560.3906" y2="1573.3906"/><line style="stroke:#181818;stroke-width:1.0;" x1="1142" x2="1183" y1="1573.3906" y2="1573.3906"/><polygon fill="#181818" points="1152,1569.3906,1142,1573.3906,1152,1577.3906,1148,1573.3906" style="stroke:#181818;stroke-width:1.0;"/><text fill="#000000" font-family="sans-serif" font-size="13" font-weight="bold" lengthAdjust="spacing" textLength="28" x="1148" y="1547.9932">(24)</text><text fill="#000000" font-family="sans-serif" font-size="13" lengthAdjust="spacing" textLength="92" x="1180" y="1540.3379">encProof &#48373;&#54840;&#54868;</text><ellipse cx="1185.5" cy="1550.8906" fill="#000000" rx="2.5" ry="2.5" style="stroke:#000000;stroke-width:0.0;"/><text fill="#000000" font-family="sans-serif" font-size="13" lengthAdjust="spacing" textLength="260" x="1192" y="1555.6484">proof = dec(debase(encProof), e2eKey, iv)</text><line style="stroke:#181818;stroke-width:1.0;" x1="1141" x2="1183" y1="1602.7012" y2="1602.7012"/><line style="stroke:#181818;stroke-width:1.0;" x1="1183" x2="1183" y1="1602.7012" y2="1615.7012"/><line style="stroke:#181818;stroke-width:1.0;" x1="1142" x2="1183" y1="1615.7012" y2="1615.7012"/><polygon fill="#181818" points="1152,1611.7012,1142,1615.7012,1152,1619.7012,1148,1615.7012" style="stroke:#181818;stroke-width:1.0;"/><text fill="#000000" font-family="sans-serif" font-size="13" font-weight="bold" lengthAdjust="spacing" textLength="28" x="1148" y="1597.959">(25)</text><text fill="#000000" font-family="sans-serif" font-size="13" lengthAdjust="spacing" textLength="59" x="1180" y="1597.959">Proof &#44160;&#51613;</text><rect fill="#FEFFDD" height="53" style="stroke:#181818;stroke-width:0.5;" width="379" x="946" y="1628.7012"/><text fill="#000000" font-family="sans-serif" font-size="13" lengthAdjust="spacing" textLength="149" x="950" y="1645.2695">credSchema &#48660;&#47197;&#52404;&#51064; &#51312;&#54924;</text><text fill="#000000" font-family="sans-serif" font-size="13" lengthAdjust="spacing" textLength="123" x="950" y="1660.5801">credDef &#48660;&#47197;&#52404;&#51064; &#51312;&#54924;</text><ellipse cx="955.5" cy="1671.1328" fill="#000000" rx="2.5" ry="2.5" style="stroke:#000000;stroke-width:0.0;"/><text fill="#000000" font-family="sans-serif" font-size="13" lengthAdjust="spacing" textLength="359" x="962" y="1675.8906">Proof &#45236; proofs, aggregatedProof, requestedProof &#44592;&#48152; &#44160;&#51613;</text><line style="stroke:#181818;stroke-width:1.0;" x1="1141" x2="1183" y1="1708.9434" y2="1708.9434"/><line style="stroke:#181818;stroke-width:1.0;" x1="1183" x2="1183" y1="1708.9434" y2="1721.9434"/><line style="stroke:#181818;stroke-width:1.0;" x1="1142" x2="1183" y1="1721.9434" y2="1721.9434"/><polygon fill="#181818" points="1152,1717.9434,1142,1721.9434,1152,1725.9434,1148,1721.9434" style="stroke:#181818;stroke-width:1.0;"/><text fill="#000000" font-family="sans-serif" font-size="13" font-weight="bold" lengthAdjust="spacing" textLength="28" x="1148" y="1704.2012">(26)</text><text fill="#000000" font-family="sans-serif" font-size="13" lengthAdjust="spacing" textLength="137" x="1180" y="1704.2012">Proof &#51200;&#51109; &#48143; &#49436;&#48708;&#49828; &#51228;&#44277;</text><polygon fill="#181818" points="330,1747.2539,320,1751.2539,330,1755.2539,326,1751.2539" style="stroke:#181818;stroke-width:1.0;"/><line style="stroke:#181818;stroke-width:1.0;stroke-dasharray:2.0,2.0;" x1="324" x2="1135" y1="1751.2539" y2="1751.2539"/><text fill="#000000" font-family="sans-serif" font-size="13" font-weight="bold" lengthAdjust="spacing" textLength="28" x="336" y="1746.5117">(27)</text><text fill="#000000" font-family="sans-serif" font-size="13" lengthAdjust="spacing" textLength="18" x="368" y="1746.5117">OK</text><!--SRC=[fLRVRzfM57wU_ugZv0KeQRL8Uua0AKkYBKgbe7NAf2tJPCmbjKPizzhGTH4IJTYKPerQgR0bAI0Y9LDIRH9DI9L9_Okur__3phMlmO397iOB-9xpdP_V_OoZEqMYV9AozP_9mlndcM_Nif2bfba0tcdo3qsOWsMT4iq1zkw2lMcc7WZFZ4ACF3WULb5BZccKjdE4mamgbudDnbCFSfaPD6YEYMU91D_zYvzSylRhH686L1jADg5Aplp9YzcjyzP7c5qlvX-g6b40FvPA7LtJBTLmF7Zhjj-jyiPx2TTKIAKMBIkJYVH-MsUTjzBrgLf4ts_KOf4u6RzgpAkCGVfNLVvd2qIPV_moBBDSGEmZGik48bPvR9WE0HEVi8AaiCu-rBV95vGGmojalL106_ljedzT0xv_vFx-WZS_ijCcy4QDjOzmf0rstGFtv92zQNcG1EH9MTT84d0a_e-OQJcwQQZ5k2dYhUR3HvPgsvgP9rudNa6Aaax3f_VXA_AaH6n7BY_qLD2B1D9fRnrwMSKMD5LHS8Pp6T73lNiBTsCtZHrPICKh6J4USW7aCV1cnpsvuBNtu1utS5bZRj4LzNjLrha0TjZbhPvRwm8_gx9_QX3wR1e9i0GumAP1q7FaYE-rHE8n52LFLkQnQrYPNm5-KkTNVylPH_ltRxlkNdLO33ke2q_MlXdh9POD9PUjnAt9CqmTtRQVNw74AL43TYAWbGcc2HAFKSqdkVjhnttU3NhQiKhKCcsHUoPBYKqCPyEQgKYUFVNkmDVcZyH0Xp0-p2MV5YAXu8Kl0NZtsC4vQ9JaCQIEDdxQTKzU8Z52GPCGsOj8BiBvKHT6oeZaJTWv8k9zxmpy6wjC84952fUz5-ERLXs7whcIWnSjcWf80DGglsUtqKGg8SanPB0vPR2xm589ngQfqqV6tbsoKvIO3qtMELSKeO0mzztivyKI-NxJGuRdM-kuUwrGrA4DhrjQsjdhPXYqkXmPLigu-xp7ElkyNOiD9c2BbP6yhg4csF4WAGrpJn7n7scFoROAxBQE7V2h7cvACi0pBvD2f4smYlgikgCkzkgOjuuy4PiVYjW6eNhXcRn2Ghj6UJdoWlAlzrrab4zPbQhRjb3QOc5nC0Judnn5XK6-mChIyfTIyySPzGFcB-NMo3CXHYX9IqlWxfxnbuTJ64Zc2JgZfoKrW-tsF24RoXE-KaP0A0YDkdjqwnxNCVIKk7ePOwvkJB765ZKDDJEkUb_ekJCeEedGohY_hMyPQ5xSGasA-Q1uz0MUaj2tfM694YIWjz9OiBNmneOBioSJ3DgU6AAXIVQ8dtxWf1ojw2S-kCP-xSa1eZBbvHZc9B9j4ZRwfX0BYo25fq4UL2ePR- -BFmcNFQbfaKouOxk3pSgeUdciaC4asFNDwAp2MyWJBPOdETKciG0G7vrNr4jTod0GCAGTvSBWz3yq9EmsJKi2duJCAsw4LpbUPtKBARY55Cfd_ILJVs7oMRpRMVTelDIXEaNrnJjLtZu7rds5ijZ4loNyu4peJV_w9k3D-jg_]--></g></svg>