<?xml version="1.0" encoding="us-ascii" standalone="no"?><svg xmlns="http://www.w3.org/2000/svg" xmlns:xlink="http://www.w3.org/1999/xlink" contentStyleType="text/css" height="1484px" preserveAspectRatio="none" style="width:940px;height:1484px;background:#FFFFFF;" version="1.1" viewBox="0 0 940 1484" width="940px" zoomAndPan="magnify"><defs/><g><text fill="#000000" font-family="sans-serif" font-size="25" font-weight="bold" lengthAdjust="spacing" textLength="244" x="344" y="39.1699">&#51060;&#49800;&#50612;&#50640; &#51032;&#54620; &#48156;&#44553; &#44060;&#49884;</text><rect fill="#FFFFFF" height="359.9922" style="stroke:#181818;stroke-width:1.0;" width="10" x="43" y="1063.2441"/><rect fill="#FFFFFF" height="44.3105" style="stroke:#181818;stroke-width:1.0;" width="10" x="331" y="1378.9258"/><rect fill="#FFFFFF" height="813.248" style="stroke:#181818;stroke-width:1.0;" width="10" x="416" y="113.4199"/><rect fill="#FFFFFF" height="58.6211" style="stroke:#181818;stroke-width:1.0;" width="10" x="705" y="667.873"/><rect fill="#FFFFFF" height="58.6211" style="stroke:#181818;stroke-width:1.0;" width="10" x="705" y="853.0469"/><rect fill="none" height="178.1738" style="stroke:#000000;stroke-width:1.5;" width="551.5" x="371.5" y="741.4941"/><rect fill="none" height="206.1289" style="stroke:#000000;stroke-width:1.5;" width="248" x="10" y="1024.623"/><line style="stroke:#181818;stroke-width:0.5;stroke-dasharray:5.0,5.0;" x1="48" x2="48" y1="103.4199" y2="951.668"/><line style="stroke:#A80036;stroke-width:1.0;stroke-dasharray:1.0,4.0;" x1="48" x2="48" y1="951.668" y2="992.623"/><line style="stroke:#181818;stroke-width:0.5;stroke-dasharray:5.0,5.0;" x1="48" x2="48" y1="992.623" y2="1432.2363"/><line style="stroke:#181818;stroke-width:0.5;stroke-dasharray:5.0,5.0;" x1="335.5" x2="335.5" y1="103.4199" y2="951.668"/><line style="stroke:#A80036;stroke-width:1.0;stroke-dasharray:1.0,4.0;" x1="335.5" x2="335.5" y1="951.668" y2="992.623"/><line style="stroke:#181818;stroke-width:0.5;stroke-dasharray:5.0,5.0;" x1="335.5" x2="335.5" y1="992.623" y2="1432.2363"/><line style="stroke:#181818;stroke-width:0.5;stroke-dasharray:5.0,5.0;" x1="420.5" x2="420.5" y1="103.4199" y2="951.668"/><line style="stroke:#A80036;stroke-width:1.0;stroke-dasharray:1.0,4.0;" x1="420.5" x2="420.5" y1="951.668" y2="992.623"/><line style="stroke:#181818;stroke-width:0.5;stroke-dasharray:5.0,5.0;" x1="420.5" x2="420.5" y1="992.623" y2="1432.2363"/><line style="stroke:#181818;stroke-width:0.5;stroke-dasharray:5.0,5.0;" x1="709.5" x2="709.5" y1="103.4199" y2="951.668"/><line style="stroke:#A80036;stroke-width:1.0;stroke-dasharray:1.0,4.0;" x1="709.5" x2="709.5" y1="951.668" y2="992.623"/><line style="stroke:#181818;stroke-width:0.5;stroke-dasharray:5.0,5.0;" x1="709.5" x2="709.5" y1="992.623" y2="1432.2363"/><rect fill="#E2E2F0" height="46.9766" rx="2.5" ry="2.5" style="stroke:#181818;stroke-width:0.5;" width="56" x="20" y="55.4434"/><text fill="#000000" font-family="sans-serif" font-size="14" font-style="italic" lengthAdjust="spacing" textLength="42" x="27" y="75.9785">&#171;App&#187;</text><text fill="#000000" font-family="sans-serif" font-size="14" font-weight="bold" lengthAdjust="spacing" textLength="36" x="30" y="92.4668">&#51064;&#44032;&#50545;</text><rect fill="#E2E2F0" height="46.9766" rx="2.5" ry="2.5" style="stroke:#181818;stroke-width:0.5;" width="56" x="20" y="1431.2363"/><text fill="#000000" font-family="sans-serif" font-size="14" font-style="italic" lengthAdjust="spacing" textLength="42" x="27" y="1451.7715">&#171;App&#187;</text><text fill="#000000" font-family="sans-serif" font-size="14" font-weight="bold" lengthAdjust="spacing" textLength="36" x="30" y="1468.2598">&#51064;&#44032;&#50545;</text><rect fill="#E2E2F0" height="46.9766" rx="2.5" ry="2.5" style="stroke:#181818;stroke-width:0.5;" width="71" x="300.5" y="55.4434"/><text fill="#000000" font-family="sans-serif" font-size="14" font-style="italic" lengthAdjust="spacing" textLength="57" x="307.5" y="75.9785">&#171;Server&#187;</text><text fill="#000000" font-family="sans-serif" font-size="14" font-weight="bold" lengthAdjust="spacing" textLength="28" x="322" y="92.4668">TAS</text><rect fill="#E2E2F0" height="46.9766" rx="2.5" ry="2.5" style="stroke:#181818;stroke-width:0.5;" width="71" x="300.5" y="1431.2363"/><text fill="#000000" font-family="sans-serif" font-size="14" font-style="italic" lengthAdjust="spacing" textLength="57" x="307.5" y="1451.7715">&#171;Server&#187;</text><text fill="#000000" font-family="sans-serif" font-size="14" font-weight="bold" lengthAdjust="spacing" textLength="28" x="322" y="1468.2598">TAS</text><rect fill="#E2E2F0" height="46.9766" rx="2.5" ry="2.5" style="stroke:#181818;stroke-width:0.5;" width="79" x="381.5" y="55.4434"/><text fill="#000000" font-family="sans-serif" font-size="14" font-style="italic" lengthAdjust="spacing" textLength="57" x="392.5" y="75.9785">&#171;Server&#187;</text><text fill="#000000" font-family="sans-serif" font-size="14" font-weight="bold" lengthAdjust="spacing" textLength="65" x="388.5" y="92.4668">&#48156;&#44553; &#49324;&#50629;&#51088;</text><rect fill="#E2E2F0" height="46.9766" rx="2.5" ry="2.5" style="stroke:#181818;stroke-width:0.5;" width="79" x="381.5" y="1431.2363"/><text fill="#000000" font-family="sans-serif" font-size="14" font-style="italic" lengthAdjust="spacing" textLength="57" x="392.5" y="1451.7715">&#171;Server&#187;</text><text fill="#000000" font-family="sans-serif" font-size="14" font-weight="bold" lengthAdjust="spacing" textLength="65" x="388.5" y="1468.2598">&#48156;&#44553; &#49324;&#50629;&#51088;</text><rect fill="#E2E2F0" height="46.9766" rx="2.5" ry="2.5" style="stroke:#181818;stroke-width:0.5;" width="79" x="670.5" y="55.4434"/><text fill="#000000" font-family="sans-serif" font-size="14" font-style="italic" lengthAdjust="spacing" textLength="57" x="681.5" y="75.9785">&#171;Server&#187;</text><text fill="#000000" font-family="sans-serif" font-size="14" font-weight="bold" lengthAdjust="spacing" textLength="65" x="677.5" y="92.4668">&#50508;&#47548; &#49324;&#50629;&#51088;</text><rect fill="#E2E2F0" height="46.9766" rx="2.5" ry="2.5" style="stroke:#181818;stroke-width:0.5;" width="79" x="670.5" y="1431.2363"/><text fill="#000000" font-family="sans-serif" font-size="14" font-style="italic" lengthAdjust="spacing" textLength="57" x="681.5" y="1451.7715">&#171;Server&#187;</text><text fill="#000000" font-family="sans-serif" font-size="14" font-weight="bold" lengthAdjust="spacing" textLength="65" x="677.5" y="1468.2598">&#50508;&#47548; &#49324;&#50629;&#51088;</text><rect fill="#FFFFFF" height="359.9922" style="stroke:#181818;stroke-width:1.0;" width="10" x="43" y="1063.2441"/><rect fill="#FFFFFF" height="44.3105" style="stroke:#181818;stroke-width:1.0;" width="10" x="331" y="1378.9258"/><rect fill="#FFFFFF" height="813.248" style="stroke:#181818;stroke-width:1.0;" width="10" x="416" y="113.4199"/><rect fill="#FFFFFF" height="58.6211" style="stroke:#181818;stroke-width:1.0;" width="10" x="705" y="667.873"/><rect fill="#FFFFFF" height="58.6211" style="stroke:#181818;stroke-width:1.0;" width="10" x="705" y="853.0469"/><rect fill="#FEFFDD" height="115" style="stroke:#181818;stroke-width:0.5;" width="199" x="321" y="118.4199"/><text fill="#000000" font-family="sans-serif" font-size="13" font-weight="bold" lengthAdjust="spacing" textLength="142" x="325" y="134.9883">[&#49324;&#51204; &#54869;&#48372; &#51221;&#48372; (&#49324;&#50857;&#51088;&#48324;)]</text><line style="stroke:#181818;stroke-width:1.0;" x1="321" x2="405.5" y1="145.3857" y2="145.3857"/><text fill="#000000" font-family="sans-serif" font-size="13" lengthAdjust="spacing" textLength="22" x="409.5" y="149.7988">&#54596;&#49688;</text><line style="stroke:#181818;stroke-width:1.0;" x1="435.5" x2="520" y1="145.3857" y2="145.3857"/><ellipse cx="330.5" cy="160.8516" fill="#000000" rx="2.5" ry="2.5" style="stroke:#000000;stroke-width:0.0;"/><text fill="#000000" font-family="sans-serif" font-size="13" lengthAdjust="spacing" textLength="164" x="337" y="165.6094">userId = &#51060;&#49800;&#50612;&#52769; &#49324;&#50857;&#51088; &#44228;&#51221;</text><ellipse cx="330.5" cy="176.1621" fill="#000000" rx="2.5" ry="2.5" style="stroke:#000000;stroke-width:0.0;"/><text fill="#000000" font-family="sans-serif" font-size="13" lengthAdjust="spacing" textLength="175" x="337" y="180.9199">userEmail = &#49324;&#50857;&#51088; &#51060;&#47700;&#51068; &#51452;&#49548;</text><line style="stroke:#181818;stroke-width:1.0;" x1="321" x2="405.5" y1="191.3174" y2="191.3174"/><text fill="#000000" font-family="sans-serif" font-size="13" lengthAdjust="spacing" textLength="22" x="409.5" y="195.7305">&#49440;&#53469;</text><line style="stroke:#181818;stroke-width:1.0;" x1="435.5" x2="520" y1="191.3174" y2="191.3174"/><ellipse cx="330.5" cy="206.7832" fill="#000000" rx="2.5" ry="2.5" style="stroke:#000000;stroke-width:0.0;"/><text fill="#000000" font-family="sans-serif" font-size="13" lengthAdjust="spacing" textLength="141" x="337" y="211.541">holderDid = &#49324;&#50857;&#51088; DID</text><ellipse cx="330.5" cy="222.0938" fill="#000000" rx="2.5" ry="2.5" style="stroke:#000000;stroke-width:0.0;"/><text fill="#000000" font-family="sans-serif" font-size="13" lengthAdjust="spacing" textLength="179" x="337" y="226.8516">userMobile = &#49324;&#50857;&#51088; &#55092;&#45824;&#54256;&#48264;&#54840;</text><rect fill="#EEEEEE" height="3" style="stroke:#EEEEEE;stroke-width:1.0;" width="933" x="0" y="259.249"/><line style="stroke:#000000;stroke-width:1.0;" x1="0" x2="933" y1="259.249" y2="259.249"/><line style="stroke:#000000;stroke-width:1.0;" x1="0" x2="933" y1="262.249" y2="262.249"/><rect fill="#EEEEEE" height="23.3105" style="stroke:#000000;stroke-width:2.0;" width="89" x="422" y="248.5938"/><text fill="#000000" font-family="sans-serif" font-size="13" font-weight="bold" lengthAdjust="spacing" textLength="71" x="428" y="265.1621">(C) &#44060;&#49884; &#45800;&#44228;</text><line style="stroke:#181818;stroke-width:1.0;" x1="426" x2="468" y1="364.457" y2="364.457"/><line style="stroke:#181818;stroke-width:1.0;" x1="468" x2="468" y1="364.457" y2="377.457"/><line style="stroke:#181818;stroke-width:1.0;" x1="427" x2="468" y1="377.457" y2="377.457"/><polygon fill="#181818" points="437,373.457,427,377.457,437,381.457,433,377.457" style="stroke:#181818;stroke-width:1.0;"/><text fill="#000000" font-family="sans-serif" font-size="13" font-weight="bold" lengthAdjust="spacing" textLength="19" x="433" y="329.0938">(1)</text><text fill="#000000" font-family="sans-serif" font-size="13" lengthAdjust="spacing" textLength="84" x="456" y="298.4727">&#48156;&#44553; Offer &#49373;&#49457;</text><ellipse cx="461.5" cy="309.0254" fill="#000000" rx="2.5" ry="2.5" style="stroke:#000000;stroke-width:0.0;"/><text fill="#000000" font-family="sans-serif" font-size="13" lengthAdjust="spacing" textLength="129" x="468" y="313.7832">offerId = Offer &#49885;&#48324;&#51088;</text><ellipse cx="461.5" cy="324.3359" fill="#000000" rx="2.5" ry="2.5" style="stroke:#000000;stroke-width:0.0;"/><text fill="#000000" font-family="sans-serif" font-size="13" lengthAdjust="spacing" textLength="133" x="468" y="329.0938">vcPlanId = VC Plan id</text><ellipse cx="461.5" cy="339.6465" fill="#000000" rx="2.5" ry="2.5" style="stroke:#000000;stroke-width:0.0;"/><text fill="#000000" font-family="sans-serif" font-size="13" lengthAdjust="spacing" textLength="143" x="468" y="344.4043">issuer = &#48156;&#44553; &#49324;&#50629;&#51088; DID</text><ellipse cx="461.5" cy="354.957" fill="#000000" rx="2.5" ry="2.5" style="stroke:#000000;stroke-width:0.0;"/><text fill="#000000" font-family="sans-serif" font-size="13" lengthAdjust="spacing" textLength="148" x="468" y="359.7148">validUntil = &#50976;&#54952;&#44592;&#54620; &#49444;&#51221;</text><path d="M628,321.0254 L628,346.0254 L913,346.0254 L913,331.0254 L903,321.0254 L628,321.0254 " fill="#FEFFDD" style="stroke:#181818;stroke-width:0.5;"/><path d="M903,321.0254 L903,331.0254 L913,331.0254 L903,321.0254 " fill="#FEFFDD" style="stroke:#181818;stroke-width:0.5;"/><text fill="#000000" font-family="sans-serif" font-size="13" lengthAdjust="spacing" textLength="264" x="634" y="338.5938">ZKP &#54252;&#54632; &#50668;&#48512;&#45716; type(OFFER_TYPE)&#51012; &#53685;&#54644; &#49885;&#48324;</text><line style="stroke:#181818;stroke-width:1.0;" x1="426" x2="468" y1="422.0781" y2="422.0781"/><line style="stroke:#181818;stroke-width:1.0;" x1="468" x2="468" y1="422.0781" y2="435.0781"/><line style="stroke:#181818;stroke-width:1.0;" x1="427" x2="468" y1="435.0781" y2="435.0781"/><polygon fill="#181818" points="437,431.0781,427,435.0781,437,439.0781,433,435.0781" style="stroke:#181818;stroke-width:1.0;"/><text fill="#000000" font-family="sans-serif" font-size="13" font-weight="bold" lengthAdjust="spacing" textLength="19" x="433" y="409.6807">(2)</text><text fill="#000000" font-family="sans-serif" font-size="13" lengthAdjust="spacing" textLength="113" x="456" y="402.0254">Offer vs &#49324;&#50857;&#51088; &#47588;&#54609;</text><ellipse cx="461.5" cy="412.5781" fill="#000000" rx="2.5" ry="2.5" style="stroke:#000000;stroke-width:0.0;"/><text fill="#000000" font-family="sans-serif" font-size="13" lengthAdjust="spacing" textLength="97" x="468" y="417.3359">offerId ~ userId</text><line style="stroke:#181818;stroke-width:1.0;" x1="426" x2="468" y1="495.0098" y2="495.0098"/><line style="stroke:#181818;stroke-width:1.0;" x1="468" x2="468" y1="495.0098" y2="508.0098"/><line style="stroke:#181818;stroke-width:1.0;" x1="427" x2="468" y1="508.0098" y2="508.0098"/><polygon fill="#181818" points="437,504.0098,427,508.0098,437,512.0098,433,508.0098" style="stroke:#181818;stroke-width:1.0;"/><text fill="#000000" font-family="sans-serif" font-size="13" font-weight="bold" lengthAdjust="spacing" textLength="19" x="433" y="474.957">(3)</text><text fill="#000000" font-family="sans-serif" font-size="13" lengthAdjust="spacing" textLength="110" x="456" y="459.6465">Offer Payload &#49373;&#49457;</text><ellipse cx="461.5" cy="470.1992" fill="#000000" rx="2.5" ry="2.5" style="stroke:#000000;stroke-width:0.0;"/><text fill="#000000" font-family="sans-serif" font-size="13" lengthAdjust="spacing" textLength="170" x="468" y="474.957">(IssueOfferPayload)payload</text><text fill="#000000" font-family="sans-serif" font-size="13" lengthAdjust="spacing" textLength="238" x="460" y="490.2676">= {offerId, vcPlanId, issuer, validUntil}</text><line style="stroke:#181818;stroke-width:1.0;" x1="426" x2="468" y1="552.6309" y2="552.6309"/><line style="stroke:#181818;stroke-width:1.0;" x1="468" x2="468" y1="552.6309" y2="565.6309"/><line style="stroke:#181818;stroke-width:1.0;" x1="427" x2="468" y1="565.6309" y2="565.6309"/><polygon fill="#181818" points="437,561.6309,427,565.6309,437,569.6309,433,565.6309" style="stroke:#181818;stroke-width:1.0;"/><text fill="#000000" font-family="sans-serif" font-size="13" font-weight="bold" lengthAdjust="spacing" textLength="19" x="433" y="540.2334">(4)</text><text fill="#000000" font-family="sans-serif" font-size="13" lengthAdjust="spacing" textLength="106" x="456" y="532.5781">Offer QR &#53076;&#46300; &#49373;&#49457;</text><ellipse cx="461.5" cy="543.1309" fill="#000000" rx="2.5" ry="2.5" style="stroke:#000000;stroke-width:0.0;"/><text fill="#000000" font-family="sans-serif" font-size="13" lengthAdjust="spacing" textLength="127" x="468" y="547.8887">qr = GenQr(payload)</text><path d="M607,532.165 L607,557.165 L792,557.165 L792,542.165 L782,532.165 L607,532.165 " fill="#FEFFDD" style="stroke:#181818;stroke-width:0.5;"/><path d="M782,532.165 L782,542.165 L792,542.165 L782,532.165 " fill="#FEFFDD" style="stroke:#181818;stroke-width:0.5;"/><text fill="#000000" font-family="sans-serif" font-size="13" lengthAdjust="spacing" textLength="164" x="613" y="549.7334">QR &#53076;&#46300; &#54805;&#49885;&#51008; out of scope</text><line style="stroke:#181818;stroke-width:1.0;" x1="426" x2="468" y1="610.252" y2="610.252"/><line style="stroke:#181818;stroke-width:1.0;" x1="468" x2="468" y1="610.252" y2="623.252"/><line style="stroke:#181818;stroke-width:1.0;" x1="427" x2="468" y1="623.252" y2="623.252"/><polygon fill="#181818" points="437,619.252,427,623.252,437,627.252,433,623.252" style="stroke:#181818;stroke-width:1.0;"/><text fill="#000000" font-family="sans-serif" font-size="13" font-weight="bold" lengthAdjust="spacing" textLength="19" x="433" y="597.8545">(5)</text><text fill="#000000" font-family="sans-serif" font-size="13" lengthAdjust="spacing" textLength="96" x="456" y="590.1992">&#51060;&#47700;&#51068; &#47700;&#49884;&#51648; &#49373;&#49457;</text><ellipse cx="461.5" cy="600.752" fill="#000000" rx="2.5" ry="2.5" style="stroke:#000000;stroke-width:0.0;"/><text fill="#000000" font-family="sans-serif" font-size="13" lengthAdjust="spacing" textLength="183" x="468" y="605.5098">emailMsg = GenEmailMsg(qr)</text><path d="M663,589.7861 L663,614.7861 L874,614.7861 L874,599.7861 L864,589.7861 L663,589.7861 " fill="#FEFFDD" style="stroke:#181818;stroke-width:0.5;"/><path d="M864,589.7861 L864,599.7861 L874,599.7861 L864,589.7861 " fill="#FEFFDD" style="stroke:#181818;stroke-width:0.5;"/><text fill="#000000" font-family="sans-serif" font-size="13" lengthAdjust="spacing" textLength="190" x="669" y="607.3545">&#51060;&#47700;&#51068; &#47700;&#49884;&#51648; &#54805;&#49885;&#51008; out of scope</text><polygon fill="#181818" points="693,663.873,703,667.873,693,671.873,697,667.873" style="stroke:#181818;stroke-width:1.0;"/><line style="stroke:#181818;stroke-width:1.0;" x1="426" x2="699" y1="667.873" y2="667.873"/><text fill="#000000" font-family="sans-serif" font-size="13" font-weight="bold" lengthAdjust="spacing" textLength="19" x="433" y="655.4756">(6)</text><text fill="#000000" font-family="sans-serif" font-size="13" lengthAdjust="spacing" textLength="85" x="456" y="647.8203">&#51060;&#47700;&#51068; &#48156;&#49569; &#50836;&#52397;</text><text fill="#000000" font-family="sans-serif" font-size="13" lengthAdjust="spacing" textLength="137" x="456" y="663.1309">{userEmail, emailMsg}</text><polygon fill="#0000FF" points="921,693.1836,931,697.1836,921,697.1836" style="stroke:#0000FF;stroke-width:1.0;"/><line style="stroke:#0000FF;stroke-width:1.0;stroke-dasharray:2.0,2.0;" x1="715" x2="932" y1="697.1836" y2="697.1836"/><text fill="#000000" font-family="sans-serif" font-size="13" font-weight="bold" lengthAdjust="spacing" textLength="19" x="722" y="692.4414">(7)</text><text fill="#000000" font-family="sans-serif" font-size="13" lengthAdjust="spacing" textLength="141" x="745" y="692.4414">&#51060;&#47700;&#51068; &#48156;&#49569; to userEmail</text><polygon fill="#181818" points="437,722.4941,427,726.4941,437,730.4941,433,726.4941" style="stroke:#181818;stroke-width:1.0;"/><line style="stroke:#181818;stroke-width:1.0;stroke-dasharray:2.0,2.0;" x1="431" x2="709" y1="726.4941" y2="726.4941"/><text fill="#000000" font-family="sans-serif" font-size="13" font-weight="bold" lengthAdjust="spacing" textLength="19" x="443" y="721.752">(8)</text><text fill="#000000" font-family="sans-serif" font-size="13" lengthAdjust="spacing" textLength="22" x="466" y="721.752">&#51025;&#45813;</text><path d="M371.5,741.4941 L438.5,741.4941 L438.5,748.8047 L428.5,758.8047 L371.5,758.8047 L371.5,741.4941 " fill="#EEEEEE" style="stroke:#000000;stroke-width:1.5;"/><rect fill="none" height="178.1738" style="stroke:#000000;stroke-width:1.5;" width="551.5" x="371.5" y="741.4941"/><text fill="#000000" font-family="sans-serif" font-size="13" font-weight="bold" lengthAdjust="spacing" textLength="22" x="386.5" y="755.0625">opt</text><text fill="#000000" font-family="sans-serif" font-size="11" font-weight="bold" lengthAdjust="spacing" textLength="102" x="453.5" y="754.1289">[holderDid &#54869;&#48372; &#49884;]</text><line style="stroke:#181818;stroke-width:1.0;" x1="426" x2="468" y1="795.4258" y2="795.4258"/><line style="stroke:#181818;stroke-width:1.0;" x1="468" x2="468" y1="795.4258" y2="808.4258"/><line style="stroke:#181818;stroke-width:1.0;" x1="427" x2="468" y1="808.4258" y2="808.4258"/><polygon fill="#181818" points="437,804.4258,427,808.4258,437,812.4258,433,808.4258" style="stroke:#181818;stroke-width:1.0;"/><text fill="#000000" font-family="sans-serif" font-size="13" font-weight="bold" lengthAdjust="spacing" textLength="19" x="433" y="783.0283">(9)</text><text fill="#000000" font-family="sans-serif" font-size="13" lengthAdjust="spacing" textLength="96" x="456" y="775.373">PUSH &#47700;&#49884;&#51648; &#49373;&#49457;</text><ellipse cx="461.5" cy="785.9258" fill="#000000" rx="2.5" ry="2.5" style="stroke:#000000;stroke-width:0.0;"/><text fill="#000000" font-family="sans-serif" font-size="13" lengthAdjust="spacing" textLength="212" x="468" y="790.6836">pushMsg = GenPushMsg(payload)</text><path d="M692,774.96 L692,799.96 L903,799.96 L903,784.96 L893,774.96 L692,774.96 " fill="#FEFFDD" style="stroke:#181818;stroke-width:0.5;"/><path d="M893,774.96 L893,784.96 L903,784.96 L893,774.96 " fill="#FEFFDD" style="stroke:#181818;stroke-width:0.5;"/><text fill="#000000" font-family="sans-serif" font-size="13" lengthAdjust="spacing" textLength="190" x="698" y="792.5283">PUSH &#47700;&#49884;&#51648; &#54805;&#49885;&#51008; out of scope</text><polygon fill="#181818" points="693,849.0469,703,853.0469,693,857.0469,697,853.0469" style="stroke:#181818;stroke-width:1.0;"/><line style="stroke:#181818;stroke-width:1.0;" x1="426" x2="699" y1="853.0469" y2="853.0469"/><text fill="#000000" font-family="sans-serif" font-size="13" font-weight="bold" lengthAdjust="spacing" textLength="28" x="433" y="840.6494">(10)</text><text fill="#000000" font-family="sans-serif" font-size="13" lengthAdjust="spacing" textLength="85" x="465" y="832.9941">PUSH &#48156;&#49569; &#50836;&#52397;</text><text fill="#000000" font-family="sans-serif" font-size="13" lengthAdjust="spacing" textLength="135" x="465" y="848.3047">{holderDid, pushMsg}</text><polygon fill="#0000FF" points="921,878.3574,931,882.3574,921,882.3574" style="stroke:#0000FF;stroke-width:1.0;"/><line style="stroke:#0000FF;stroke-width:1.0;stroke-dasharray:2.0,2.0;" x1="715" x2="932" y1="882.3574" y2="882.3574"/><text fill="#000000" font-family="sans-serif" font-size="13" font-weight="bold" lengthAdjust="spacing" textLength="28" x="722" y="877.6152">(11)</text><text fill="#000000" font-family="sans-serif" font-size="13" lengthAdjust="spacing" textLength="142" x="754" y="877.6152">PUSH &#48156;&#49569; to holderDid</text><polygon fill="#181818" points="437,907.668,427,911.668,437,915.668,433,911.668" style="stroke:#181818;stroke-width:1.0;"/><line style="stroke:#181818;stroke-width:1.0;stroke-dasharray:2.0,2.0;" x1="431" x2="709" y1="911.668" y2="911.668"/><text fill="#000000" font-family="sans-serif" font-size="13" font-weight="bold" lengthAdjust="spacing" textLength="28" x="443" y="906.9258">(12)</text><text fill="#000000" font-family="sans-serif" font-size="13" lengthAdjust="spacing" textLength="4" x="475" y="906.9258">&#160;</text><text fill="#000000" font-family="sans-serif" font-size="11" lengthAdjust="spacing" textLength="107" x="325.5" y="976.3027">a few moments later</text><path d="M10,1024.623 L72,1024.623 L72,1031.9336 L62,1041.9336 L10,1041.9336 L10,1024.623 " fill="#EEEEEE" style="stroke:#000000;stroke-width:1.5;"/><rect fill="none" height="206.1289" style="stroke:#000000;stroke-width:1.5;" width="248" x="10" y="1024.623"/><text fill="#000000" font-family="sans-serif" font-size="13" font-weight="bold" lengthAdjust="spacing" textLength="17" x="25" y="1038.1914">alt</text><text fill="#000000" font-family="sans-serif" font-size="11" font-weight="bold" lengthAdjust="spacing" textLength="76" x="87" y="1037.2578">[&#51060;&#47700;&#51068; &#49688;&#49888; &#49884;]</text><polygon fill="#0000FF" points="64,1064.2441,54,1064.2441,64,1068.2441" style="stroke:#0000FF;stroke-width:1.0;"/><line style="stroke:#0000FF;stroke-width:1.0;stroke-dasharray:2.0,2.0;" x1="53" x2="178" y1="1063.2441" y2="1063.2441"/><text fill="#000000" font-family="sans-serif" font-size="13" font-weight="bold" lengthAdjust="spacing" textLength="28" x="70" y="1058.502">(13)</text><text fill="#000000" font-family="sans-serif" font-size="13" lengthAdjust="spacing" textLength="70" x="102" y="1058.502">QR &#53076;&#46300; &#49828;&#52884;</text><line style="stroke:#181818;stroke-width:1.0;" x1="53" x2="95" y1="1107.8652" y2="1107.8652"/><line style="stroke:#181818;stroke-width:1.0;" x1="95" x2="95" y1="1107.8652" y2="1120.8652"/><line style="stroke:#181818;stroke-width:1.0;" x1="54" x2="95" y1="1120.8652" y2="1120.8652"/><polygon fill="#181818" points="64,1116.8652,54,1120.8652,64,1124.8652,60,1120.8652" style="stroke:#181818;stroke-width:1.0;"/><text fill="#000000" font-family="sans-serif" font-size="13" font-weight="bold" lengthAdjust="spacing" textLength="28" x="60" y="1095.4678">(14)</text><text fill="#000000" font-family="sans-serif" font-size="13" lengthAdjust="spacing" textLength="81" x="92" y="1087.8125">QR &#47700;&#49884;&#51648; &#54028;&#49905;</text><ellipse cx="97.5" cy="1098.3652" fill="#000000" rx="2.5" ry="2.5" style="stroke:#000000;stroke-width:0.0;"/><text fill="#000000" font-family="sans-serif" font-size="13" lengthAdjust="spacing" textLength="142" x="104" y="1103.123">payload = payload &#51069;&#44592;</text><line style="stroke:#000000;stroke-width:1.0;stroke-dasharray:2.0,2.0;" x1="10" x2="258" y1="1129.8652" y2="1129.8652"/><text fill="#000000" font-family="sans-serif" font-size="11" font-weight="bold" lengthAdjust="spacing" textLength="76" x="15" y="1140.5">[PUSH &#49688;&#49888; &#49884;]</text><polygon fill="#0000FF" points="64,1166.1309,54,1166.1309,64,1170.1309" style="stroke:#0000FF;stroke-width:1.0;"/><line style="stroke:#0000FF;stroke-width:1.0;stroke-dasharray:2.0,2.0;" x1="53" x2="204" y1="1165.1309" y2="1165.1309"/><text fill="#000000" font-family="sans-serif" font-size="13" font-weight="bold" lengthAdjust="spacing" textLength="28" x="70" y="1160.3887">(15)</text><text fill="#000000" font-family="sans-serif" font-size="13" lengthAdjust="spacing" textLength="96" x="102" y="1160.3887">PUSH &#47700;&#49884;&#51648; &#49688;&#49888;</text><line style="stroke:#181818;stroke-width:1.0;" x1="53" x2="95" y1="1209.752" y2="1209.752"/><line style="stroke:#181818;stroke-width:1.0;" x1="95" x2="95" y1="1209.752" y2="1222.752"/><line style="stroke:#181818;stroke-width:1.0;" x1="54" x2="95" y1="1222.752" y2="1222.752"/><polygon fill="#181818" points="64,1218.752,54,1222.752,64,1226.752,60,1222.752" style="stroke:#181818;stroke-width:1.0;"/><text fill="#000000" font-family="sans-serif" font-size="13" font-weight="bold" lengthAdjust="spacing" textLength="28" x="60" y="1197.3545">(16)</text><text fill="#000000" font-family="sans-serif" font-size="13" lengthAdjust="spacing" textLength="96" x="92" y="1189.6992">PUSH &#47700;&#49884;&#51648; &#54028;&#49905;</text><ellipse cx="97.5" cy="1200.252" fill="#000000" rx="2.5" ry="2.5" style="stroke:#000000;stroke-width:0.0;"/><text fill="#000000" font-family="sans-serif" font-size="13" lengthAdjust="spacing" textLength="142" x="104" y="1205.0098">payload = payload &#51069;&#44592;</text><rect fill="#EEEEEE" height="3" style="stroke:#EEEEEE;stroke-width:1.0;" width="933" x="0" y="1258.4072"/><line style="stroke:#000000;stroke-width:1.0;" x1="0" x2="933" y1="1258.4072" y2="1258.4072"/><line style="stroke:#000000;stroke-width:1.0;" x1="0" x2="933" y1="1261.4072" y2="1261.4072"/><rect fill="#EEEEEE" height="23.3105" style="stroke:#000000;stroke-width:2.0;" width="90" x="421.5" y="1247.752"/><text fill="#000000" font-family="sans-serif" font-size="13" font-weight="bold" lengthAdjust="spacing" textLength="72" x="427.5" y="1264.3203">(D) &#48156;&#44553; &#45800;&#44228;</text><polygon fill="#181818" points="319,1374.9258,329,1378.9258,319,1382.9258,323,1378.9258" style="stroke:#181818;stroke-width:1.0;"/><line style="stroke:#181818;stroke-width:1.0;" x1="53" x2="325" y1="1378.9258" y2="1378.9258"/><text fill="#000000" font-family="sans-serif" font-size="13" font-weight="bold" lengthAdjust="spacing" textLength="28" x="60" y="1335.9072">(17)</text><text fill="#000000" font-family="sans-serif" font-size="13" lengthAdjust="spacing" textLength="100" x="92" y="1297.6309">D1. &#48156;&#44553; &#49884;&#51089; &#50836;&#52397;</text><text fill="#000000" font-family="sans-serif" font-size="13" lengthAdjust="spacing" textLength="4" x="92" y="1312.9414">{</text><text fill="#000000" font-family="sans-serif" font-size="13" lengthAdjust="spacing" textLength="179" x="108" y="1328.252">vcPlanId = payload.vcPlanId,</text><text fill="#000000" font-family="sans-serif" font-size="13" lengthAdjust="spacing" textLength="151" x="108" y="1343.5625">issuer = payload.issuer,</text><text fill="#000000" font-family="sans-serif" font-size="13" lengthAdjust="spacing" textLength="16" x="92" y="1358.873">&#160;&#160;&#160;&#160;</text><text fill="#000000" font-family="sans-serif" font-size="13" font-weight="bold" lengthAdjust="spacing" textLength="45" x="108" y="1358.873">offerId</text><text fill="#000000" font-family="sans-serif" font-size="13" lengthAdjust="spacing" textLength="109" x="157" y="1358.873">= payload.offerId</text><text fill="#000000" font-family="sans-serif" font-size="13" lengthAdjust="spacing" textLength="4" x="92" y="1374.1836">}</text><path d="M18,1391.9258 L18,1416.9258 L364,1416.9258 L364,1401.9258 L354,1391.9258 L18,1391.9258 " fill="#FEFFDD" style="stroke:#181818;stroke-width:0.5;"/><path d="M354,1391.9258 L354,1401.9258 L364,1401.9258 L354,1391.9258 " fill="#FEFFDD" style="stroke:#181818;stroke-width:0.5;"/><text fill="#000000" font-family="sans-serif" font-size="13" lengthAdjust="spacing" textLength="48" x="162.75" y="1409.4941">&#51060;&#54616; &#49373;&#47029;</text><!--SRC=[ZPNlQzj66CTVx_wA8tqnMxLTDjYRO7jqTRg5KkesxM1hob3iIoDG95SwUtH9XbczaCM6DinQl205ZuKrXGoSnXbcjF-GTVeVTdSwdUGV3JCOI_Bt-VMvvtc4DQmZy57Urdv0Yvz-LYJUaEplaT-6vF0L95ulS5pe3zpnw1Su7hYaxUPlC6aH8ACACJS6QXsRHdrp3Lbm8RzMJ5rBvs-i5HS0-5YjO9C-L1JoqnavUaEENodA0bHjMBUH1MggXRMALbCDp3NUQ3ne4kTSQ2egpETlrch5uhJouSqLeS7qcy-l8Ak1h5cTI9m5F_mv3jvOlyA6E1t_htSpDeQ9jQGLiEWJ14rwH_q1I3-AyfXPzLim-DtnBuQGzFbFIXRlNxJIJnI5gxDP63WjijUZLw4vXx9SXGKO7yBe3oYjuVYYHLqcn4kRggOplPHGI_zDbtYqW3_VaTrE58gq-i4BBmwrOUfLP9MqweHrQRcKy7xNNDDqD248tA7VQGOl1_xRlQ0tuat0GG1GAC3KhRHe4kYtJscsi52WtL71MaEbh2WcIZvRf1UBKK_TMr-d0CaBZxJEeVYi6WeqsNFEGYZQ7eN7KaY86fMohXfSzVKjoAuXBIWXq6oxJeqBSBeHMAKJdbHTgpuoS4ZJxGT7f-FHWFK-QPqmvlomBUtf1bw4tzufm-3bMU2SGd9uvl_JzFUx43-leTIzsxUN7dpty9loKffuj0rsBmDdA79Fr1wMrB0JOFtN9u5pC8_0Zw8jPkpBwdFTLAjpuAMMMTrS9KJfcX1B5QrpIuJ8I90PGIoJ0B8p4_Z-0qZUT_rVtJcXdp7QNoBZlfKI8TCJx6BReETGCCHhGhEEQRNGhfWrsaTnjBYNsK_R9Q-RSo8YDWDtxQTXt2LnbtfcJGQUv-pg5FZ4Nxy-OKgRUvTEv56NlFrxrTYICvYHQUpm0UAssSVNlj3hw4bs5SvnWiruX865SDqogEZ0Rry2ODPmOaAZRT9skUyOKFdHobSVP1FngTNj3Ocd7Dx4PoEIbPYcN7w8K9o7f1HQJW6IHMIYF48-ynabNL0yqfYRX8ZOnW5LbDmfO7jx6-HoEHMke-_Xfhc936n3dVvhqQVyNw3gEBaQztgatPT0wNjcLURnEIycqUBx9-JVRgIZ1LTK_dU2KQT3skSSjHYoWhmYtdkwHm3IRHHMTtNesIFbygdeqsVqF-9JQ7n1bzBHAamiwD0pUvEoqakVvEIwf06E3yHfnZsrbTWYh0_YBIp2vk9zCg6KwpZIHTjcGgKeOYyfIa8QhKCftG7n2xYYPbZ-VCe2fyScmJ- -_0y0]--></g></svg>