<svg xmlns="http://www.w3.org/2000/svg" width="587px" height="492px" viewBox="0 0 587 492" xmlns:xlink="http://www.w3.org/1999/xlink" style="display: block; width: 587px; height: 492px; overflow: auto;"><rect width="587px" height="492px" fill="white"/><defs><path fill="rgb(0,0,0)" stroke="rgb(0,0,0)" d="M 8,-3 L 0,0 L 8,3 Z" fill-opacity="1" stroke-opacity="1" stroke-width="1" stroke-linecap="butt" stroke-linejoin="miter" stroke-miterlimit="10" id="ygc803_0"/><path fill="rgb(0,0,0)" stroke="rgb(0,0,0)" d="M 8,-3 L 0,0 L 8,3 Z" fill-opacity="1" stroke-opacity="1" stroke-width="1" stroke-linecap="butt" stroke-linejoin="miter" stroke-miterlimit="10" id="ygc803_1"/><path fill="rgb(0,0,0)" stroke="rgb(0,0,0)" d="M 8,-3 L 0,0 L 8,3 Z" fill-opacity="1" stroke-opacity="1" stroke-width="1" stroke-linecap="butt" stroke-linejoin="miter" stroke-miterlimit="10" id="ygc803_2"/><path fill="rgb(0,0,0)" stroke="rgb(0,0,0)" d="M 8,-3 L 0,0 L 8,3 Z" fill-opacity="1" stroke-opacity="1" stroke-width="1" stroke-linecap="butt" stroke-linejoin="miter" stroke-miterlimit="10" id="ygc803_3"/></defs><g transform="translate(67.75 189.75)" image-rendering="auto" shape-rendering="auto" style="pointer-events: visiblepainted;"><g style="box-sizing: initial;"><g transform="translate(-37.75 -159.75)" class="y-group-node yfiles-expanded"><path d="M 182.25 0H 360.5A 4 4 0 0 1 364.5 4V 428A 4 4 0 0 1 360.5 432H 4A 4 4 0 0 1 0 428V 4A 4 4 0 0 1 4 0z" fill="#FFF" transform="translate(0 0)" class="yfiles-group-node-tab-background"/><path d="M 182.25 3H 359.5A 2 2 0 0 1 361.5 5V 427A 2 2 0 0 1 359.5 429H 5A 2 2 0 0 1 3 427V 5A 2 2 0 0 1 5 3z" fill="#FFF" transform="translate(0 0)" class="yfiles-content-transparent yfiles-group-node-content"/><path d="M 182.25 0H 360.5A 4 4 0 0 1 364.5 4V 428A 4 4 0 0 1 360.5 432H 4A 4 4 0 0 1 0 428V 4A 4 4 0 0 1 4 0z" fill="none" stroke="#ABABAB" stroke-width="2" stroke-dasharray="2,4" stroke-dashoffset="1" stroke-linecap="square" stroke-linejoin="miter" stroke-miterlimit="10" transform="translate(0 0)" class="yfiles-group-node-stroke"/></g><g transform="translate(120 -152.75)" class="y-group-node yfiles-expanded"><path d="M 99.875 0H 195.75A 4 4 0 0 1 199.75 4V 414A 4 4 0 0 1 195.75 418H 4A 4 4 0 0 1 0 414V 4A 4 4 0 0 1 4 0z" fill="#FFF" transform="translate(0 0)" class="yfiles-group-node-tab-background"/><path d="M 99.875 3H 194.75A 2 2 0 0 1 196.75 5V 413A 2 2 0 0 1 194.75 415H 5A 2 2 0 0 1 3 413V 5A 2 2 0 0 1 5 3z" fill="#FFF" transform="translate(0 0)" class="yfiles-content-transparent yfiles-group-node-content"/><path d="M 99.875 0H 195.75A 4 4 0 0 1 199.75 4V 414A 4 4 0 0 1 195.75 418H 4A 4 4 0 0 1 0 414V 4A 4 4 0 0 1 4 0z" fill="none" stroke="#ABABAB" stroke-width="2" stroke-dasharray="2,4" stroke-dashoffset="1" stroke-linecap="square" stroke-linejoin="miter" stroke-miterlimit="10" transform="translate(0 0)" class="yfiles-group-node-stroke"/></g><g><path fill="none" stroke="rgb(0,0,0)" d="M 210,72.875 L 210,95.20099937578041" stroke-opacity="1" stroke-width="3" stroke-linecap="butt" stroke-linejoin="miter" stroke-miterlimit="10"/><use transform="matrix(0 -1 1 0 210 103.20099937578041)" xlink:href="#ygc803_0"/></g><g><path fill="none" stroke="rgb(0,0,0)" d="M 210,135.625 L 210,151.2009993757804" stroke-opacity="1" stroke-width="3" stroke-linecap="butt" stroke-linejoin="miter" stroke-miterlimit="10"/><use transform="matrix(0 -1 1 0 210 159.2009993757804)" xlink:href="#ygc803_1"/></g><g><path fill="none" stroke="rgb(0,0,0)" d="M 210,191.625 L 210,214.5759993757804" stroke-opacity="1" stroke-width="3" stroke-linecap="butt" stroke-linejoin="miter" stroke-miterlimit="10"/><use transform="matrix(0 -1 1 0 210 222.5759993757804)" xlink:href="#ygc803_2"/></g><image xlink:href="data:image/svg+xml;charset=utf-8,%3Csvg%20xmlns%3D%22http%3A%2F%2Fwww.w3.org%2F2000%2Fsvg%22%20viewBox%3D%220%200%20512%20512%22%20width%3D%22512%22%20height%3D%22512%22%20fill%3D%22rgb(0%2C0%2C0)%22%20fill-opacity%3D%221%22%3E%3Cpath%20d%3D%22M320%20336c0%208.84-7.16%2016-16%2016h-96c-8.84%200-16-7.16-16-16v-48H0v144c0%2025.6%2022.4%2048%2048%2048h416c25.6%200%2048-22.4%2048-48V288H320v48zm144-208h-80V80c0-25.6-22.4-48-48-48H176c-25.6%200-48%2022.4-48%2048v48H48c-25.6%200-48%2022.4-48%2048v80h512v-80c0-25.6-22.4-48-48-48zm-144%200H192V96h128v32z%22%2F%3E%3C%2Fsvg%3E" width="60" height="60" transform="translate(180 -120)"/><ellipse cx="210" cy="1.5" rx="15" ry="15" fill="rgb(0,0,0)" fill-opacity="1" stroke="rgb(0,0,0)" stroke-opacity="1" stroke-width="1" stroke-linecap="butt" stroke-linejoin="miter" stroke-miterlimit="10"/><ellipse cx="210" cy="57.875" rx="15" ry="15" fill="rgb(0,0,0)" fill-opacity="1" stroke="rgb(0,0,0)" stroke-opacity="1" stroke-width="1" stroke-linecap="butt" stroke-linejoin="miter" stroke-miterlimit="10"/><ellipse cx="210" cy="120.625" rx="15" ry="15" fill="rgb(0,0,0)" fill-opacity="1" stroke="rgb(0,0,0)" stroke-opacity="1" stroke-width="1" stroke-linecap="butt" stroke-linejoin="miter" stroke-miterlimit="10"/><ellipse cx="210" cy="176.625" rx="15" ry="15" fill="rgb(0,0,0)" fill-opacity="1" stroke="rgb(0,0,0)" stroke-opacity="1" stroke-width="1" stroke-linecap="butt" stroke-linejoin="miter" stroke-miterlimit="10"/><ellipse cx="210" cy="240" rx="15" ry="15" fill="rgb(0,0,0)" fill-opacity="1" stroke="rgb(0,0,0)" stroke-opacity="1" stroke-width="1" stroke-linecap="butt" stroke-linejoin="miter" stroke-miterlimit="10"/><image xlink:href="data:image/svg+xml;charset=utf-8,%3Csvg%20xmlns%3D%22http%3A%2F%2Fwww.w3.org%2F2000%2Fsvg%22%20viewBox%3D%220%200%20320%20512%22%20width%3D%22320%22%20height%3D%22512%22%20fill%3D%22rgb(0%2C0%2C0)%22%20fill-opacity%3D%221%22%3E%3Cpath%20d%3D%22M272%200H48C21.5%200%200%2021.5%200%2048v416c0%2026.5%2021.5%2048%2048%2048h224c26.5%200%2048-21.5%2048-48V48c0-26.5-21.5-48-48-48zM160%20480c-17.7%200-32-14.3-32-32s14.3-32%2032-32%2032%2014.3%2032%2032-14.3%2032-32%2032zm112-108c0%206.6-5.4%2012-12%2012H60c-6.6%200-12-5.4-12-12V60c0-6.6%205.4-12%2012-12h200c6.6%200%2012%205.4%2012%2012v312z%22%2F%3E%3C%2Fsvg%3E" width="60" height="60" transform="translate(15 -120)"/><ellipse cx="45" cy="0" rx="15" ry="15" fill="rgb(0,0,0)" fill-opacity="1" stroke="rgb(0,0,0)" stroke-opacity="1" stroke-width="1" stroke-linecap="butt" stroke-linejoin="miter" stroke-miterlimit="10"/><ellipse cx="45" cy="240" rx="15" ry="15" fill="rgb(0,0,0)" fill-opacity="1" stroke="rgb(0,0,0)" stroke-opacity="1" stroke-width="1" stroke-linecap="butt" stroke-linejoin="miter" stroke-miterlimit="10"/><g><path fill="none" stroke="rgb(0,0,0)" d="M 59.99938020370612,0.1363580018518738 L 184.57704988920457,1.2688822717200416" stroke-opacity="1" stroke-width="3" stroke-linecap="butt" stroke-linejoin="miter" stroke-miterlimit="10"/><use transform="matrix(-0.9999586802470746 -0.009090533456791589 0.009090533456791589 -0.9999586802470746 192.57671933118115 1.3416065393743744)" xlink:href="#ygc803_3"/></g><g><path fill="none" stroke="rgb(0,0,0)" d="M 195,240 L 70.42400062421959,240" stroke-opacity="1" stroke-width="3" stroke-linecap="butt" stroke-linejoin="miter" stroke-miterlimit="10"/><use transform="translate(62.42400062421959 240)" xlink:href="#ygc803_2"/></g><g transform="translate(333.13 -159.75)" class="y-group-node yfiles-expanded"><path d="M 75 0H 146A 4 4 0 0 1 150 4V 428A 4 4 0 0 1 146 432H 4A 4 4 0 0 1 0 428V 4A 4 4 0 0 1 4 0z" fill="#FFF" transform="translate(0 0)" class="yfiles-group-node-tab-background"/><path d="M 75 3H 145A 2 2 0 0 1 147 5V 427A 2 2 0 0 1 145 429H 5A 2 2 0 0 1 3 427V 5A 2 2 0 0 1 5 3z" fill="#FFF" transform="translate(0 0)" class="yfiles-content-transparent yfiles-group-node-content"/><path d="M 75 0H 146A 4 4 0 0 1 150 4V 428A 4 4 0 0 1 146 432H 4A 4 4 0 0 1 0 428V 4A 4 4 0 0 1 4 0z" fill="none" stroke="#ABABAB" stroke-width="2" stroke-dasharray="2,4" stroke-dashoffset="1" stroke-linecap="square" stroke-linejoin="miter" stroke-miterlimit="10" transform="translate(0 0)" class="yfiles-group-node-stroke"/></g><image xlink:href="data:image/svg+xml;charset=utf-8,%3Csvg%20xmlns%3D%22http%3A%2F%2Fwww.w3.org%2F2000%2Fsvg%22%20viewBox%3D%220%200%20576%20512%22%20width%3D%22576%22%20height%3D%22512%22%20fill%3D%22rgb(0%2C0%2C0)%22%20fill-opacity%3D%221%22%3E%3Cpath%20d%3D%22M572.694%20292.093L500.27%20416.248A63.997%2063.997%200%200%201%20444.989%20448H45.025c-18.523%200-30.064-20.093-20.731-36.093l72.424-124.155A64%2064%200%200%201%20152%20256h399.964c18.523%200%2030.064%2020.093%2020.73%2036.093zM152%20224h328v-48c0-26.51-21.49-48-48-48H272l-64-64H48C21.49%2064%200%2085.49%200%20112v278.046l69.077-118.418C86.214%20242.25%20117.989%20224%20152%20224z%22%2F%3E%3C%2Fsvg%3E" width="60" height="60" transform="translate(374.125 -103.25)"/><ellipse cx="404.13" cy="1.5" rx="15" ry="15" fill="rgb(0,0,0)" fill-opacity="1" stroke="rgb(0,0,0)" stroke-opacity="1" stroke-width="1" stroke-linecap="butt" stroke-linejoin="miter" stroke-miterlimit="10"/><g><path fill="none" stroke="rgb(0,0,0)" d="M 225,1.5 L 378.7059993757804,1.5" stroke-opacity="1" stroke-width="3" stroke-linecap="butt" stroke-linejoin="miter" stroke-miterlimit="10"/><use transform="matrix(-1 0 0 -1 386.7059993757804 1.5)" xlink:href="#ygc803_2"/></g><g><path fill="none" stroke="rgb(0,0,0)" d="M 389.7250982446678,5.68315735052209 L 234.4153487479592,50.784826993941174" stroke-opacity="1" stroke-width="3" stroke-linecap="butt" stroke-linejoin="miter" stroke-miterlimit="10"/><use transform="matrix(0.9603267836888141 -0.27887715670147273 0.27887715670147273 0.9603267836888141 226.7327344784487 53.015844247552955)" xlink:href="#ygc803_2"/></g><g transform="translate(-4 -146)"><text font-family="Arial" font-size="12px" font-style="normal" font-weight="normal" text-decoration="none" text-anchor="middle" fill="black" xml:space="preserve" transform="translate(49 0.43359375)"><tspan class="yfiles-label-h2" dy="16.3125px" x="0" style="font-size: 1.5em; font-weight: bold;">Application</tspan></text></g><g transform="translate(161.5 -146)"><text font-family="Arial" font-size="12px" font-style="normal" font-weight="normal" text-decoration="none" text-anchor="middle" fill="black" xml:space="preserve" transform="translate(48.5 0.43359375)"><tspan class="yfiles-label-h2" dy="16.3125px" x="0" style="font-size: 1.5em; font-weight: bold;"><tspan class="yfiles-label-strong" style="font-weight: bold;">Wallet </tspan>SDK</tspan></text></g><g transform="translate(206.5 -5.5)"><text font-family="Arial" font-size="12px" font-style="normal" font-weight="normal" text-decoration="none" text-anchor="middle" fill="rgb(255,255,255)" fill-opacity="1" dy="0.90625em" xml:space="preserve" transform="translate(3.5 0.2890625)">2</text></g><g><g><g transform="translate(172 -60.875)"><g transform="translate(0 0)"><rect x="0" y="0" width="125" height="38" rx="0" ry="0" stroke="rgb(255,255,255)" stroke-opacity="0" stroke-width="1" stroke-linecap="butt" stroke-linejoin="miter" stroke-miterlimit="10" fill="rgb(224,224,224)" fill-opacity="1"/><path d="M 12.5,0 L 0,0 L 0,38 L 12.5,38" stroke="rgb(0,0,0)" stroke-opacity="1" stroke-width="1" stroke-linecap="butt" stroke-linejoin="miter" stroke-miterlimit="10" fill="rgb(255,255,255)" fill-opacity="0" transform="translate(0 0)"/></g></g><g transform="translate(177 -55.875)"><text font-family="Arial" font-size="12px" font-style="normal" font-weight="normal" text-decoration="none" text-anchor="middle" fill="rgb(0,0,0)" fill-opacity="1" transform="translate(57.5 0.08906250000000071)"><tspan x="0" y="10.875" xml:space="preserve">Read the wallet file </tspan><tspan x="0" y="25.275" xml:space="preserve">from the storage area</tspan></text></g><g><path d="M 223.76801152737752,-22.875 L 217.37713784321213,-11.560545059156137" stroke="rgb(0,0,0)" stroke-opacity="1" stroke-width="1" stroke-dasharray="0.01,2" stroke-dashoffset="0" stroke-linecap="round" stroke-linejoin="miter" stroke-miterlimit="10" fill="none"/></g></g></g><g transform="translate(206.5 50.875)"><text font-family="Arial" font-size="12px" font-style="normal" font-weight="normal" text-decoration="none" text-anchor="middle" fill="rgb(255,255,255)" fill-opacity="1" dy="0.90625em" xml:space="preserve" transform="translate(3.5 0.2890625)">4</text></g><g><g><g transform="translate(244.9375 43.875)"><g transform="translate(0 0)"><rect x="0" y="0" width="207" height="38" rx="0" ry="0" stroke="rgb(255,255,255)" stroke-opacity="0" stroke-width="1" stroke-linecap="butt" stroke-linejoin="miter" stroke-miterlimit="10" fill="rgb(224,224,224)" fill-opacity="1"/><path d="M 20.700000000000003,0 L 0,0 L 0,38 L 20.700000000000003,38" stroke="rgb(0,0,0)" stroke-opacity="1" stroke-width="1" stroke-linecap="butt" stroke-linejoin="miter" stroke-miterlimit="10" fill="rgb(255,255,255)" fill-opacity="0" transform="translate(0 0)"/></g></g><g transform="translate(249.9375 48.875)"><text font-family="Arial" font-size="12px" font-style="normal" font-weight="normal" text-decoration="none" text-anchor="middle" fill="rgb(0,0,0)" fill-opacity="1" transform="translate(98.5 0.08906250000000071)"><tspan x="0" y="10.875" xml:space="preserve">Retrieve the public key of the wallet </tspan><tspan x="0" y="25.275" xml:space="preserve">signing key stored in Secure Enclave</tspan></text></g><g><path d="M 244.9375,59.136851015801355 L 224.9902260719307,58.4164077136589" stroke="rgb(0,0,0)" stroke-opacity="1" stroke-width="1" stroke-dasharray="0.01,2" stroke-dashoffset="0" stroke-linecap="round" stroke-linejoin="miter" stroke-miterlimit="10" fill="none"/></g></g></g><g transform="translate(206.5 113.625)"><text font-family="Arial" font-size="12px" font-style="normal" font-weight="normal" text-decoration="none" text-anchor="middle" fill="rgb(255,255,255)" fill-opacity="1" dy="0.90625em" xml:space="preserve" transform="translate(3.5 0.2890625)">5</text></g><g><g><g transform="translate(243.8125 100.875)"><g transform="translate(0 0)"><rect x="0" y="0" width="199" height="38" rx="0" ry="0" stroke="rgb(255,255,255)" stroke-opacity="0" stroke-width="1" stroke-linecap="butt" stroke-linejoin="miter" stroke-miterlimit="10" fill="rgb(224,224,224)" fill-opacity="1"/><path d="M 19.900000000000002,0 L 0,0 L 0,38 L 19.900000000000002,38" stroke="rgb(0,0,0)" stroke-opacity="1" stroke-width="1" stroke-linecap="butt" stroke-linejoin="miter" stroke-miterlimit="10" fill="rgb(255,255,255)" fill-opacity="0" transform="translate(0 0)"/></g></g><g transform="translate(248.8125 105.875)"><text font-family="Arial" font-size="12px" font-style="normal" font-weight="normal" text-decoration="none" text-anchor="middle" fill="rgb(0,0,0)" fill-opacity="1" transform="translate(94.5 0.08906250000000071)"><tspan x="0" y="10.875" xml:space="preserve">Verify the signature of the wallet file</tspan><tspan x="0" y="25.275" xml:space="preserve"> to check for tampering</tspan></text></g><g><path d="M 243.8125,120.43477496483825 L 224.9997626267721,120.54061314977906" stroke="rgb(0,0,0)" stroke-opacity="1" stroke-width="1" stroke-dasharray="0.01,2" stroke-dashoffset="0" stroke-linecap="round" stroke-linejoin="miter" stroke-miterlimit="10" fill="none"/></g></g></g><g transform="translate(206.5 169.625)"><text font-family="Arial" font-size="12px" font-style="normal" font-weight="normal" text-decoration="none" text-anchor="middle" fill="rgb(255,255,255)" fill-opacity="1" dy="0.90625em" xml:space="preserve" transform="translate(3.5 0.2890625)">6</text></g><g><g><g transform="translate(242.9375 155.625)"><g transform="translate(0 0)"><rect x="0" y="0" width="218" height="38" rx="0" ry="0" stroke="rgb(255,255,255)" stroke-opacity="0" stroke-width="1" stroke-linecap="butt" stroke-linejoin="miter" stroke-miterlimit="10" fill="rgb(224,224,224)" fill-opacity="1"/><path d="M 21.8,0 L 0,0 L 0,38 L 21.8,38" stroke="rgb(0,0,0)" stroke-opacity="1" stroke-width="1" stroke-linecap="butt" stroke-linejoin="miter" stroke-miterlimit="10" fill="rgb(255,255,255)" fill-opacity="0" transform="translate(0 0)"/></g></g><g transform="translate(247.9375 160.625)"><text font-family="Arial" font-size="12px" font-style="normal" font-weight="normal" text-decoration="none" text-anchor="middle" fill="rgb(0,0,0)" fill-opacity="1" transform="translate(104 0.08906250000000071)"><tspan x="0" y="10.875" xml:space="preserve">Decrypt the encrypted wallet data </tspan><tspan x="0" y="25.275" xml:space="preserve">using the key stored in Secure Enclave</tspan></text></g><g><path d="M 242.9375,176.1608872743285 L 224.99851111112037,176.41366034541795" stroke="rgb(0,0,0)" stroke-opacity="1" stroke-width="1" stroke-dasharray="0.01,2" stroke-dashoffset="0" stroke-linecap="round" stroke-linejoin="miter" stroke-miterlimit="10" fill="none"/></g></g></g><g transform="translate(206.5 233)"><text font-family="Arial" font-size="12px" font-style="normal" font-weight="normal" text-decoration="none" text-anchor="middle" fill="rgb(255,255,255)" fill-opacity="1" dy="0.90625em" xml:space="preserve" transform="translate(3.5 0.2890625)">7</text></g><g><g><g transform="translate(240.4375 207.625)"><g transform="translate(0 0)"><rect x="0" y="0" width="248" height="53" rx="0" ry="0" stroke="rgb(255,255,255)" stroke-opacity="0" stroke-width="1" stroke-linecap="butt" stroke-linejoin="miter" stroke-miterlimit="10" fill="rgb(224,224,224)" fill-opacity="1"/><path d="M 24.8,0 L 0,0 L 0,53 L 24.8,53" stroke="rgb(0,0,0)" stroke-opacity="1" stroke-width="1" stroke-linecap="butt" stroke-linejoin="miter" stroke-miterlimit="10" fill="rgb(255,255,255)" fill-opacity="0" transform="translate(0 0)"/></g></g><g transform="translate(245.4375 212.625)"><text font-family="Arial" font-size="12px" font-style="normal" font-weight="normal" text-decoration="none" text-anchor="middle" fill="rgb(0,0,0)" fill-opacity="1" transform="translate(119 0.3890625000000014)"><tspan x="0" y="10.875" xml:space="preserve">Request signature using the Secp256R1 key</tspan><tspan x="0" y="25.275" xml:space="preserve"> with biometric authentication </tspan><tspan x="0" y="39.675" xml:space="preserve">stored in Secure Enclave</tspan></text></g><g><path d="M 240.4375,238.84211857547552 L 224.98915822403353,239.42979325250542" stroke="rgb(0,0,0)" stroke-opacity="1" stroke-width="1" stroke-dasharray="0.01,2" stroke-dashoffset="0" stroke-linecap="round" stroke-linejoin="miter" stroke-miterlimit="10" fill="none"/></g></g></g><g transform="translate(41.5 -7)"><text font-family="Arial" font-size="12px" font-style="normal" font-weight="normal" text-decoration="none" text-anchor="middle" fill="rgb(255,255,255)" fill-opacity="1" dy="0.90625em" xml:space="preserve" transform="translate(3.5 0.2890625)">1</text></g><g><g><g transform="translate(-10.75 -51.375)"><g transform="translate(0 0)"><rect x="0" y="0" width="105" height="24" rx="0" ry="0" stroke="rgb(255,255,255)" stroke-opacity="0" stroke-width="1" stroke-linecap="butt" stroke-linejoin="miter" stroke-miterlimit="10" fill="rgb(224,224,224)" fill-opacity="1"/><path d="M 94.5,0 L 105,0 L 105,24 L 94.5,24" stroke="rgb(0,0,0)" stroke-opacity="1" stroke-width="1" stroke-linecap="butt" stroke-linejoin="miter" stroke-miterlimit="10" fill="rgb(255,255,255)" fill-opacity="0" transform="translate(0 0)"/></g></g><g transform="translate(-5.75 -46.375)"><text font-family="Arial" font-size="12px" font-style="normal" font-weight="normal" text-decoration="none" text-anchor="middle" fill="rgb(0,0,0)" fill-opacity="1" dy="0.90625em" xml:space="preserve" transform="translate(47.5 0.2890625)">Signature request</text></g><g><path d="M 42.740476190476194,-27.375 L 43.76610078117807,-14.949163612650395" stroke="rgb(0,0,0)" stroke-opacity="1" stroke-width="1" stroke-dasharray="0.01,2" stroke-dashoffset="0" stroke-linecap="round" stroke-linejoin="miter" stroke-miterlimit="10" fill="none"/></g></g></g><g transform="translate(41.5 233)"><text font-family="Arial" font-size="12px" font-style="normal" font-weight="normal" text-decoration="none" text-anchor="middle" fill="rgb(255,255,255)" fill-opacity="1" dy="0.90625em" xml:space="preserve" transform="translate(3.5 0.2890625)">8</text></g><g><g><g transform="translate(-34.75 184.875)"><g transform="translate(0 0)"><rect x="0" y="0" width="151" height="24" rx="0" ry="0" stroke="rgb(255,255,255)" stroke-opacity="0" stroke-width="1" stroke-linecap="butt" stroke-linejoin="miter" stroke-miterlimit="10" fill="rgb(224,224,224)" fill-opacity="1"/><path d="M 135.9,0 L 151,0 L 151,24 L 135.9,24" stroke="rgb(0,0,0)" stroke-opacity="1" stroke-width="1" stroke-linecap="butt" stroke-linejoin="miter" stroke-miterlimit="10" fill="rgb(255,255,255)" fill-opacity="0" transform="translate(0 0)"/></g></g><g transform="translate(-29.75 189.875)"><text font-family="Arial" font-size="12px" font-style="normal" font-weight="normal" text-decoration="none" text-anchor="middle" fill="rgb(0,0,0)" fill-opacity="1" dy="0.90625em" xml:space="preserve" transform="translate(70.5 0.2890625)">Return the signature value</text></g><g><path d="M 41.93260869565218,208.875 L 43.52886587583378,225.07231550478394" stroke="rgb(0,0,0)" stroke-opacity="1" stroke-width="1" stroke-dasharray="0.01,2" stroke-dashoffset="0" stroke-linecap="round" stroke-linejoin="miter" stroke-miterlimit="10" fill="none"/></g></g></g><g transform="translate(370.125 -129.25)"><text font-family="Arial" font-size="12px" font-style="normal" font-weight="normal" text-decoration="none" text-anchor="middle" fill="rgb(0,0,0)" fill-opacity="1" xml:space="preserve" transform="translate(34 0.43359375)"><tspan class="yfiles-label-h2" dy="16.3125px" x="0" style="font-size: 1.5em; font-weight: bold;"><tspan class="yfiles-label-strong" style="font-weight: bold;">Storage</tspan></tspan></text></g><g transform="translate(400.63 -5.5)"><text font-family="Arial" font-size="12px" font-style="normal" font-weight="normal" text-decoration="none" text-anchor="middle" fill="rgb(255,255,255)" fill-opacity="1" dy="0.90625em" xml:space="preserve" transform="translate(3.5 0.2890625)">3</text></g><g><g><g transform="translate(376.9425 -49)"><g transform="translate(0 0)"><rect x="0" y="0" width="58" height="24" rx="0" ry="0" stroke="rgb(255,255,255)" stroke-opacity="0" stroke-width="1" stroke-linecap="butt" stroke-linejoin="miter" stroke-miterlimit="10" fill="rgb(224,224,224)" fill-opacity="1"/><path d="M 5.800000000000001,0 L 0,0 L 0,24 L 5.800000000000001,24" stroke="rgb(0,0,0)" stroke-opacity="1" stroke-width="1" stroke-linecap="butt" stroke-linejoin="miter" stroke-miterlimit="10" fill="rgb(255,255,255)" fill-opacity="0" transform="translate(0 0)"/></g></g><g transform="translate(381.9425 -44)"><text font-family="Arial" font-size="12px" font-style="normal" font-weight="normal" text-decoration="none" text-anchor="middle" fill="rgb(0,0,0)" fill-opacity="1" dy="0.90625em" xml:space="preserve" transform="translate(24 0.2890625)">Read file</text></g><g><path d="M 405.3775649350649,-25 L 404.83538757771964,-13.483405099148817" stroke="rgb(0,0,0)" stroke-opacity="1" stroke-width="1" stroke-dasharray="0.01,2" stroke-dashoffset="0" stroke-linecap="round" stroke-linejoin="miter" stroke-miterlimit="10" fill="none"/></g></g></g></g></g></svg>