<svg xmlns="http://www.w3.org/2000/svg" width="575px" height="601px" viewBox="0 0 575 601" xmlns:xlink="http://www.w3.org/1999/xlink" style="display: block; width: 575px; height: 601px; overflow: auto;"><rect width="575px" height="601px" fill="white"/><defs><path fill="rgb(0,0,0)" stroke="rgb(0,0,0)" d="M 8,-3 L 0,0 L 8,3 Z" fill-opacity="1" stroke-opacity="1" stroke-width="1" stroke-linecap="butt" stroke-linejoin="miter" stroke-miterlimit="10" id="ygc833_0"/><path fill="rgb(0,0,0)" stroke="rgb(0,0,0)" d="M 8,-3 L 0,0 L 8,3 Z" fill-opacity="1" stroke-opacity="1" stroke-width="1" stroke-linecap="butt" stroke-linejoin="miter" stroke-miterlimit="10" id="ygc833_1"/><path fill="rgb(0,0,0)" stroke="rgb(0,0,0)" d="M 8,-3 L 0,0 L 8,3 Z" fill-opacity="1" stroke-opacity="1" stroke-width="1" stroke-linecap="butt" stroke-linejoin="miter" stroke-miterlimit="10" id="ygc833_2"/><path fill="rgb(0,0,0)" stroke="rgb(0,0,0)" d="M 8,-3 L 0,0 L 8,3 Z" fill-opacity="1" stroke-opacity="1" stroke-width="1" stroke-linecap="butt" stroke-linejoin="miter" stroke-miterlimit="10" id="ygc833_3"/></defs><g transform="translate(44.75 189.75)" image-rendering="auto" shape-rendering="auto" style="pointer-events: visiblepainted;"><g style="box-sizing: initial;"><g transform="translate(-14.75 -159.75)" class="y-group-node yfiles-expanded"><path d="M 175.875 0H 347.75A 4 4 0 0 1 351.75 4V 536.125A 4 4 0 0 1 347.75 540.125H 4A 4 4 0 0 1 0 536.125V 4A 4 4 0 0 1 4 0z" fill="#FFF" transform="translate(0 0)" class="yfiles-group-node-tab-background"/><path d="M 175.875 3H 346.75A 2 2 0 0 1 348.75 5V 535.125A 2 2 0 0 1 346.75 537.125H 5A 2 2 0 0 1 3 535.125V 5A 2 2 0 0 1 5 3z" fill="#FFF" transform="translate(0 0)" class="yfiles-content-transparent yfiles-group-node-content"/><path d="M 175.875 0H 347.75A 4 4 0 0 1 351.75 4V 536.125A 4 4 0 0 1 347.75 540.125H 4A 4 4 0 0 1 0 536.125V 4A 4 4 0 0 1 4 0z" fill="none" stroke="#ABABAB" stroke-width="2" stroke-dasharray="2,4" stroke-dashoffset="1" stroke-linecap="square" stroke-linejoin="miter" stroke-miterlimit="10" transform="translate(0 0)" class="yfiles-group-node-stroke"/></g><g transform="translate(120 -152.75)" class="y-group-node yfiles-expanded"><path d="M 105 0H 206A 4 4 0 0 1 210 4V 522.125A 4 4 0 0 1 206 526.125H 4A 4 4 0 0 1 0 522.125V 4A 4 4 0 0 1 4 0z" fill="#FFF" transform="translate(0 0)" class="yfiles-group-node-tab-background"/><path d="M 105 3H 205A 2 2 0 0 1 207 5V 521.125A 2 2 0 0 1 205 523.125H 5A 2 2 0 0 1 3 521.125V 5A 2 2 0 0 1 5 3z" fill="#FFF" transform="translate(0 0)" class="yfiles-content-transparent yfiles-group-node-content"/><path d="M 105 0H 206A 4 4 0 0 1 210 4V 522.125A 4 4 0 0 1 206 526.125H 4A 4 4 0 0 1 0 522.125V 4A 4 4 0 0 1 4 0z" fill="none" stroke="#ABABAB" stroke-width="2" stroke-dasharray="2,4" stroke-dashoffset="1" stroke-linecap="square" stroke-linejoin="miter" stroke-miterlimit="10" transform="translate(0 0)" class="yfiles-group-node-stroke"/></g><g><path fill="none" stroke="rgb(0,0,0)" d="M 218,76.25 L 218,98.57599937578041" stroke-opacity="1" stroke-width="3" stroke-linecap="butt" stroke-linejoin="miter" stroke-miterlimit="10"/><use transform="matrix(0 -1 1 0 218 106.57599937578041)" xlink:href="#ygc833_0"/></g><g><path fill="none" stroke="rgb(0,0,0)" d="M 218,139 L 218,154.5759993757804" stroke-opacity="1" stroke-width="3" stroke-linecap="butt" stroke-linejoin="miter" stroke-miterlimit="10"/><use transform="matrix(0 -1 1 0 218 162.5759993757804)" xlink:href="#ygc833_1"/></g><g><path fill="none" stroke="rgb(0,0,0)" d="M 218,195 L 218,217.9509993757804" stroke-opacity="1" stroke-width="3" stroke-linecap="butt" stroke-linejoin="miter" stroke-miterlimit="10"/><use transform="matrix(0 -1 1 0 218 225.9509993757804)" xlink:href="#ygc833_2"/></g><g><path fill="none" stroke="rgb(0,0,0)" d="M 218,258.375 L 218,281.3259993757804" stroke-opacity="1" stroke-width="3" stroke-linecap="butt" stroke-linejoin="miter" stroke-miterlimit="10"/><use transform="matrix(0 -1 1 0 218 289.3259993757804)" xlink:href="#ygc833_2"/></g><image xlink:href="data:image/svg+xml;charset=utf-8,%3Csvg%20xmlns%3D%22http%3A%2F%2Fwww.w3.org%2F2000%2Fsvg%22%20viewBox%3D%220%200%20512%20512%22%20width%3D%22512%22%20height%3D%22512%22%20fill%3D%22rgb(0%2C0%2C0)%22%20fill-opacity%3D%221%22%3E%3Cpath%20d%3D%22M320%20336c0%208.84-7.16%2016-16%2016h-96c-8.84%200-16-7.16-16-16v-48H0v144c0%2025.6%2022.4%2048%2048%2048h416c25.6%200%2048-22.4%2048-48V288H320v48zm144-208h-80V80c0-25.6-22.4-48-48-48H176c-25.6%200-48%2022.4-48%2048v48H48c-25.6%200-48%2022.4-48%2048v80h512v-80c0-25.6-22.4-48-48-48zm-144%200H192V96h128v32z%22%2F%3E%3C%2Fsvg%3E" width="60" height="60" transform="translate(188 -120)"/><ellipse cx="218" cy="4.875" rx="15" ry="15" fill="rgb(0,0,0)" fill-opacity="1" stroke="rgb(0,0,0)" stroke-opacity="1" stroke-width="1" stroke-linecap="butt" stroke-linejoin="miter" stroke-miterlimit="10"/><ellipse cx="218" cy="61.25" rx="15" ry="15" fill="rgb(0,0,0)" fill-opacity="1" stroke="rgb(0,0,0)" stroke-opacity="1" stroke-width="1" stroke-linecap="butt" stroke-linejoin="miter" stroke-miterlimit="10"/><ellipse cx="218" cy="124" rx="15" ry="15" fill="rgb(0,0,0)" fill-opacity="1" stroke="rgb(0,0,0)" stroke-opacity="1" stroke-width="1" stroke-linecap="butt" stroke-linejoin="miter" stroke-miterlimit="10"/><ellipse cx="218" cy="180" rx="15" ry="15" fill="rgb(0,0,0)" fill-opacity="1" stroke="rgb(0,0,0)" stroke-opacity="1" stroke-width="1" stroke-linecap="butt" stroke-linejoin="miter" stroke-miterlimit="10"/><ellipse cx="218" cy="306.75" rx="15" ry="15" fill="rgb(0,0,0)" fill-opacity="1" stroke="rgb(0,0,0)" stroke-opacity="1" stroke-width="1" stroke-linecap="butt" stroke-linejoin="miter" stroke-miterlimit="10"/><ellipse cx="218" cy="243.375" rx="15" ry="15" fill="rgb(0,0,0)" fill-opacity="1" stroke="rgb(0,0,0)" stroke-opacity="1" stroke-width="1" stroke-linecap="butt" stroke-linejoin="miter" stroke-miterlimit="10"/><image xlink:href="data:image/svg+xml;charset=utf-8,%3Csvg%20xmlns%3D%22http%3A%2F%2Fwww.w3.org%2F2000%2Fsvg%22%20viewBox%3D%220%200%20320%20512%22%20width%3D%22320%22%20height%3D%22512%22%20fill%3D%22rgb(0%2C0%2C0)%22%20fill-opacity%3D%221%22%3E%3Cpath%20d%3D%22M272%200H48C21.5%200%200%2021.5%200%2048v416c0%2026.5%2021.5%2048%2048%2048h224c26.5%200%2048-21.5%2048-48V48c0-26.5-21.5-48-48-48zM160%20480c-17.7%200-32-14.3-32-32s14.3-32%2032-32%2032%2014.3%2032%2032-14.3%2032-32%2032zm112-108c0%206.6-5.4%2012-12%2012H60c-6.6%200-12-5.4-12-12V60c0-6.6%205.4-12%2012-12h200c6.6%200%2012%205.4%2012%2012v312z%22%2F%3E%3C%2Fsvg%3E" width="60" height="60" transform="translate(30 -120)"/><ellipse cx="60" cy="4.87" rx="15" ry="15" fill="rgb(0,0,0)" fill-opacity="1" stroke="rgb(0,0,0)" stroke-opacity="1" stroke-width="1" stroke-linecap="butt" stroke-linejoin="miter" stroke-miterlimit="10"/><ellipse cx="60" cy="306.75" rx="15" ry="15" fill="rgb(0,0,0)" fill-opacity="1" stroke="rgb(0,0,0)" stroke-opacity="1" stroke-width="1" stroke-linecap="butt" stroke-linejoin="miter" stroke-miterlimit="10"/><g><path fill="none" stroke="rgb(0,0,0)" d="M 74.99999999248918,4.8704746835440655 L 192.57599938851072,4.874195443018624" stroke-opacity="1" stroke-width="3" stroke-linecap="butt" stroke-linejoin="miter" stroke-miterlimit="10"/><use transform="matrix(-0.9999999994992789 -0.000031645569604413135 0.000031645569604413135 -0.9999999994992789 200.57599938450494 4.874448607575459)" xlink:href="#ygc833_3"/></g><g><path fill="none" stroke="rgb(0,0,0)" d="M 203,306.75 L 85.42400062421959,306.75" stroke-opacity="1" stroke-width="3" stroke-linecap="butt" stroke-linejoin="miter" stroke-miterlimit="10"/><use transform="translate(77.42400062421959 306.75)" xlink:href="#ygc833_2"/></g><g transform="translate(346.25 -159.75)" class="y-group-node yfiles-expanded"><path d="M 75 0H 146A 4 4 0 0 1 150 4V 536.13A 4 4 0 0 1 146 540.13H 4A 4 4 0 0 1 0 536.13V 4A 4 4 0 0 1 4 0z" fill="#FFF" transform="translate(0 0)" class="yfiles-group-node-tab-background"/><path d="M 75 3H 145A 2 2 0 0 1 147 5V 535.13A 2 2 0 0 1 145 537.13H 5A 2 2 0 0 1 3 535.13V 5A 2 2 0 0 1 5 3z" fill="#FFF" transform="translate(0 0)" class="yfiles-content-transparent yfiles-group-node-content"/><path d="M 75 0H 146A 4 4 0 0 1 150 4V 536.13A 4 4 0 0 1 146 540.13H 4A 4 4 0 0 1 0 536.13V 4A 4 4 0 0 1 4 0z" fill="none" stroke="#ABABAB" stroke-width="2" stroke-dasharray="2,4" stroke-dashoffset="1" stroke-linecap="square" stroke-linejoin="miter" stroke-miterlimit="10" transform="translate(0 0)" class="yfiles-group-node-stroke"/></g><image xlink:href="data:image/svg+xml;charset=utf-8,%3Csvg%20xmlns%3D%22http%3A%2F%2Fwww.w3.org%2F2000%2Fsvg%22%20viewBox%3D%220%200%20576%20512%22%20width%3D%22576%22%20height%3D%22512%22%20fill%3D%22rgb(0%2C0%2C0)%22%20fill-opacity%3D%221%22%3E%3Cpath%20d%3D%22M572.694%20292.093L500.27%20416.248A63.997%2063.997%200%200%201%20444.989%20448H45.025c-18.523%200-30.064-20.093-20.731-36.093l72.424-124.155A64%2064%200%200%201%20152%20256h399.964c18.523%200%2030.064%2020.093%2020.73%2036.093zM152%20224h328v-48c0-26.51-21.49-48-48-48H272l-64-64H48C21.49%2064%200%2085.49%200%20112v278.046l69.077-118.418C86.214%20242.25%20117.989%20224%20152%20224z%22%2F%3E%3C%2Fsvg%3E" width="60" height="60" transform="translate(390 -120)"/><ellipse cx="420" cy="4.87" rx="15" ry="15" fill="rgb(0,0,0)" fill-opacity="1" stroke="rgb(0,0,0)" stroke-opacity="1" stroke-width="1" stroke-linecap="butt" stroke-linejoin="miter" stroke-miterlimit="10"/><g><path fill="none" stroke="rgb(0,0,0)" d="M 232.99999999540486,4.8746287128714005 L 394.5759993835689,4.8706293069459505" stroke-opacity="1" stroke-width="3" stroke-linecap="butt" stroke-linejoin="miter" stroke-miterlimit="10"/><use transform="matrix(-0.9999999996936575 0.000024752475239944497 -0.000024752475239944497 -0.9999999996936575 402.57599938111815 4.87043128714403)" xlink:href="#ygc833_2"/></g><g><path fill="none" stroke="rgb(0,0,0)" d="M 405.48600132580424,8.657326561764103 L 241.29129522458814,51.5027880832524" stroke-opacity="1" stroke-width="3" stroke-linecap="butt" stroke-linejoin="miter" stroke-miterlimit="10"/><use transform="matrix(0.9675999116130501 -0.25248843745094024 0.25248843745094024 0.9675999116130501 233.55049593168374 53.52269558285992)" xlink:href="#ygc833_2"/></g><g transform="translate(11 -146)"><text font-family="Arial" font-size="12px" font-style="normal" font-weight="normal" text-decoration="none" text-anchor="middle" fill="black" xml:space="preserve" transform="translate(49 0.43359375)"><tspan class="yfiles-label-h2" dy="16.3125px" x="0" style="font-size: 1.5em; font-weight: bold;">Application</tspan></text></g><g transform="translate(169.5 -146)"><text font-family="Arial" font-size="12px" font-style="normal" font-weight="normal" text-decoration="none" text-anchor="middle" fill="black" xml:space="preserve" transform="translate(48.5 0.43359375)"><tspan class="yfiles-label-h2" dy="16.3125px" x="0" style="font-size: 1.5em; font-weight: bold;"><tspan class="yfiles-label-strong" style="font-weight: bold;">Wallet </tspan>SDK</tspan></text></g><g transform="translate(214.5 -2.125)"><text font-family="Arial" font-size="12px" font-style="normal" font-weight="normal" text-decoration="none" text-anchor="middle" fill="rgb(255,255,255)" fill-opacity="1" dy="0.90625em" xml:space="preserve" transform="translate(3.5 0.2890625)">2</text></g><g><g><g transform="translate(180 -57.5)"><g transform="translate(0 0)"><rect x="0" y="0" width="79" height="38" rx="0" ry="0" stroke="rgb(255,255,255)" stroke-opacity="0" stroke-width="1" stroke-linecap="butt" stroke-linejoin="miter" stroke-miterlimit="10" fill="rgb(224,224,224)" fill-opacity="1"/><path d="M 7.9,0 L 0,0 L 0,38 L 7.9,38" stroke="rgb(0,0,0)" stroke-opacity="1" stroke-width="1" stroke-linecap="butt" stroke-linejoin="miter" stroke-miterlimit="10" fill="rgb(255,255,255)" fill-opacity="0" transform="translate(0 0)"/></g></g><g transform="translate(185 -52.5)"><text font-family="Arial" font-size="12px" font-style="normal" font-weight="normal" text-decoration="none" text-anchor="middle" fill="rgb(0,0,0)" fill-opacity="1" transform="translate(34.5 0.08906250000000071)"><tspan x="0" y="10.875" xml:space="preserve">저장 영역에서</tspan><tspan x="0" y="25.275" xml:space="preserve">월렛 파일 읽기</tspan></text></g><g><path d="M 218.84293948126802,-19.5 L 218.51842208442173,-10.116038607861158" stroke="rgb(0,0,0)" stroke-opacity="1" stroke-width="1" stroke-dasharray="0.01,2" stroke-dashoffset="0" stroke-linecap="round" stroke-linejoin="miter" stroke-miterlimit="10" fill="none"/></g></g></g><g transform="translate(214.5 54.25)"><text font-family="Arial" font-size="12px" font-style="normal" font-weight="normal" text-decoration="none" text-anchor="middle" fill="rgb(255,255,255)" fill-opacity="1" dy="0.90625em" xml:space="preserve" transform="translate(3.5 0.2890625)">4</text></g><g><g><g transform="translate(243.1875 42.5)"><g transform="translate(0 0)"><rect x="0" y="0" width="173" height="38" rx="0" ry="0" stroke="rgb(255,255,255)" stroke-opacity="0" stroke-width="1" stroke-linecap="butt" stroke-linejoin="miter" stroke-miterlimit="10" fill="rgb(224,224,224)" fill-opacity="1"/><path d="M 17.3,0 L 0,0 L 0,38 L 17.3,38" stroke="rgb(0,0,0)" stroke-opacity="1" stroke-width="1" stroke-linecap="butt" stroke-linejoin="miter" stroke-miterlimit="10" fill="rgb(255,255,255)" fill-opacity="0" transform="translate(0 0)"/></g></g><g transform="translate(248.1875 47.5)"><text font-family="Arial" font-size="12px" font-style="normal" font-weight="normal" text-decoration="none" text-anchor="middle" fill="rgb(0,0,0)" fill-opacity="1" transform="translate(81.5 0.08906250000000071)"><tspan x="0" y="10.875" xml:space="preserve">키스토어에 저장된</tspan><tspan x="0" y="25.275" xml:space="preserve"> 월렛 서명용 키의 공개키 가져오기</tspan></text></g><g><path d="M 243.1875,61.306379406827084 L 232.99996242227283,61.28357574129216" stroke="rgb(0,0,0)" stroke-opacity="1" stroke-width="1" stroke-dasharray="0.01,2" stroke-dashoffset="0" stroke-linecap="round" stroke-linejoin="miter" stroke-miterlimit="10" fill="none"/></g></g></g><g transform="translate(214.5 117)"><text font-family="Arial" font-size="12px" font-style="normal" font-weight="normal" text-decoration="none" text-anchor="middle" fill="rgb(255,255,255)" fill-opacity="1" dy="0.90625em" xml:space="preserve" transform="translate(3.5 0.2890625)">5</text></g><g><g><g transform="translate(241.9375 104.25)"><g transform="translate(0 0)"><rect x="0" y="0" width="166" height="38" rx="0" ry="0" stroke="rgb(255,255,255)" stroke-opacity="0" stroke-width="1" stroke-linecap="butt" stroke-linejoin="miter" stroke-miterlimit="10" fill="rgb(224,224,224)" fill-opacity="1"/><path d="M 16.6,0 L 0,0 L 0,38 L 16.6,38" stroke="rgb(0,0,0)" stroke-opacity="1" stroke-width="1" stroke-linecap="butt" stroke-linejoin="miter" stroke-miterlimit="10" fill="rgb(255,255,255)" fill-opacity="0" transform="translate(0 0)"/></g></g><g transform="translate(246.9375 109.25)"><text font-family="Arial" font-size="12px" font-style="normal" font-weight="normal" text-decoration="none" text-anchor="middle" fill="rgb(0,0,0)" fill-opacity="1" transform="translate(78 0.08906250000000071)"><tspan x="0" y="10.875" xml:space="preserve">월렛 파일의 서명을 검증함으로써</tspan><tspan x="0" y="25.275" xml:space="preserve"> 변조여부 확인</tspan></text></g><g><path d="M 241.9375,123.83211572180011 L 232.99963110079858,123.8948009507834" stroke="rgb(0,0,0)" stroke-opacity="1" stroke-width="1" stroke-dasharray="0.01,2" stroke-dashoffset="0" stroke-linecap="round" stroke-linejoin="miter" stroke-miterlimit="10" fill="none"/></g></g></g><g transform="translate(214.5 173)"><text font-family="Arial" font-size="12px" font-style="normal" font-weight="normal" text-decoration="none" text-anchor="middle" fill="rgb(255,255,255)" fill-opacity="1" dy="0.90625em" xml:space="preserve" transform="translate(3.5 0.2890625)">6</text></g><g><g><g transform="translate(241.5625 158.125)"><g transform="translate(0 0)"><rect x="0" y="0" width="145" height="38" rx="0" ry="0" stroke="rgb(255,255,255)" stroke-opacity="0" stroke-width="1" stroke-linecap="butt" stroke-linejoin="miter" stroke-miterlimit="10" fill="rgb(224,224,224)" fill-opacity="1"/><path d="M 14.5,0 L 0,0 L 0,38 L 14.5,38" stroke="rgb(0,0,0)" stroke-opacity="1" stroke-width="1" stroke-linecap="butt" stroke-linejoin="miter" stroke-miterlimit="10" fill="rgb(255,255,255)" fill-opacity="0" transform="translate(0 0)"/></g></g><g transform="translate(246.5625 163.125)"><text font-family="Arial" font-size="12px" font-style="normal" font-weight="normal" text-decoration="none" text-anchor="middle" fill="rgb(0,0,0)" fill-opacity="1" transform="translate(67.5 0.08906250000000071)"><tspan x="0" y="10.875" xml:space="preserve">키스토어에 저장된 키로 </tspan><tspan x="0" y="25.275" xml:space="preserve">암호화된 월렛 데이터 복호화</tspan></text></g><g><path d="M 241.5625,179.29481132075472 L 232.99328667674234,179.55127443908253" stroke="rgb(0,0,0)" stroke-opacity="1" stroke-width="1" stroke-dasharray="0.01,2" stroke-dashoffset="0" stroke-linecap="round" stroke-linejoin="miter" stroke-miterlimit="10" fill="none"/></g></g></g><g transform="translate(214.5 299.75)"><text font-family="Arial" font-size="12px" font-style="normal" font-weight="normal" text-decoration="none" text-anchor="middle" fill="rgb(255,255,255)" fill-opacity="1" dy="0.90625em" xml:space="preserve" transform="translate(3.5 0.2890625)">8</text></g><g><g><g transform="translate(239.9375 291.875)"><g transform="translate(0 0)"><rect x="0" y="0" width="145" height="24" rx="0" ry="0" stroke="rgb(255,255,255)" stroke-opacity="0" stroke-width="1" stroke-linecap="butt" stroke-linejoin="miter" stroke-miterlimit="10" fill="rgb(224,224,224)" fill-opacity="1"/><path d="M 14.5,0 L 0,0 L 0,24 L 14.5,24" stroke="rgb(0,0,0)" stroke-opacity="1" stroke-width="1" stroke-linecap="butt" stroke-linejoin="miter" stroke-miterlimit="10" fill="rgb(255,255,255)" fill-opacity="0" transform="translate(0 0)"/></g></g><g transform="translate(244.9375 296.875)"><text font-family="Arial" font-size="12px" font-style="normal" font-weight="normal" text-decoration="none" text-anchor="middle" fill="rgb(0,0,0)" fill-opacity="1" dy="0.90625em" xml:space="preserve" transform="translate(67.5 0.2890625)">개인키로 해시된 값 서명하기</text></g><g><path d="M 239.9375,306.08214758438123 L 232.99305381657044,306.2935602411898" stroke="rgb(0,0,0)" stroke-opacity="1" stroke-width="1" stroke-dasharray="0.01,2" stroke-dashoffset="0" stroke-linecap="round" stroke-linejoin="miter" stroke-miterlimit="10" fill="none"/></g></g></g><g transform="translate(214.5 236.375)"><text font-family="Arial" font-size="12px" font-style="normal" font-weight="normal" text-decoration="none" text-anchor="middle" fill="rgb(255,255,255)" fill-opacity="1" dy="0.90625em" xml:space="preserve" transform="translate(3.5 0.2890625)">7</text></g><g><g><g transform="translate(240.0625 222.875)"><g transform="translate(0 0)"><rect x="0" y="0" width="260" height="38" rx="0" ry="0" stroke="rgb(255,255,255)" stroke-opacity="0" stroke-width="1" stroke-linecap="butt" stroke-linejoin="miter" stroke-miterlimit="10" fill="rgb(224,224,224)" fill-opacity="1"/><path d="M 26,0 L 0,0 L 0,38 L 26,38" stroke="rgb(0,0,0)" stroke-opacity="1" stroke-width="1" stroke-linecap="butt" stroke-linejoin="miter" stroke-miterlimit="10" fill="rgb(255,255,255)" fill-opacity="0" transform="translate(0 0)"/></g></g><g transform="translate(245.0625 227.875)"><text font-family="Arial" font-size="12px" font-style="normal" font-weight="normal" text-decoration="none" text-anchor="middle" fill="rgb(0,0,0)" fill-opacity="1" transform="translate(125 0.08906250000000071)"><tspan x="0" y="10.875" xml:space="preserve">salt와 password를 PBKDF2 수행</tspan><tspan x="0" y="25.275" xml:space="preserve">생성된 key, iv로 암호화된 개인키를 AES256 복호화</tspan></text></g><g><path d="M 240.0625,243.15736744759556 L 232.99927026053177,243.2270417236939" stroke="rgb(0,0,0)" stroke-opacity="1" stroke-width="1" stroke-dasharray="0.01,2" stroke-dashoffset="0" stroke-linecap="round" stroke-linejoin="miter" stroke-miterlimit="10" fill="none"/></g></g></g><g transform="translate(56.5 -2.130000000000001)"><text font-family="Arial" font-size="12px" font-style="normal" font-weight="normal" text-decoration="none" text-anchor="middle" fill="rgb(255,255,255)" fill-opacity="1" dy="0.90625em" xml:space="preserve" transform="translate(3.5 0.2890625)">1</text></g><g><g><g transform="translate(31.75 -51.505)"><g transform="translate(0 0)"><rect x="0" y="0" width="55" height="24" rx="0" ry="0" stroke="rgb(255,255,255)" stroke-opacity="0" stroke-width="1" stroke-linecap="butt" stroke-linejoin="miter" stroke-miterlimit="10" fill="rgb(224,224,224)" fill-opacity="1"/><path d="M 49.5,0 L 55,0 L 55,24 L 49.5,24" stroke="rgb(0,0,0)" stroke-opacity="1" stroke-width="1" stroke-linecap="butt" stroke-linejoin="miter" stroke-miterlimit="10" fill="rgb(255,255,255)" fill-opacity="0" transform="translate(0 0)"/></g></g><g transform="translate(36.75 -46.505)"><text font-family="Arial" font-size="12px" font-style="normal" font-weight="normal" text-decoration="none" text-anchor="middle" fill="rgb(0,0,0)" fill-opacity="1" dy="0.90625em" xml:space="preserve" transform="translate(22.5 0.2890625)">서명 요청</text></g><g><path d="M 59.452816901408454,-27.505000000000003 L 59.74651507560279,-10.127858026835144" stroke="rgb(0,0,0)" stroke-opacity="1" stroke-width="1" stroke-dasharray="0.01,2" stroke-dashoffset="0" stroke-linecap="round" stroke-linejoin="miter" stroke-miterlimit="10" fill="none"/></g></g></g><g transform="translate(56.5 299.75)"><text font-family="Arial" font-size="12px" font-style="normal" font-weight="normal" text-decoration="none" text-anchor="middle" fill="rgb(255,255,255)" fill-opacity="1" dy="0.90625em" xml:space="preserve" transform="translate(3.5 0.2890625)">9</text></g><g><g><g transform="translate(26.125 253.875)"><g transform="translate(0 0)"><rect x="0" y="0" width="66" height="24" rx="0" ry="0" stroke="rgb(255,255,255)" stroke-opacity="0" stroke-width="1" stroke-linecap="butt" stroke-linejoin="miter" stroke-miterlimit="10" fill="rgb(224,224,224)" fill-opacity="1"/><path d="M 59.4,0 L 66,0 L 66,24 L 59.4,24" stroke="rgb(0,0,0)" stroke-opacity="1" stroke-width="1" stroke-linecap="butt" stroke-linejoin="miter" stroke-miterlimit="10" fill="rgb(255,255,255)" fill-opacity="0" transform="translate(0 0)"/></g></g><g transform="translate(31.125 258.875)"><text font-family="Arial" font-size="12px" font-style="normal" font-weight="normal" text-decoration="none" text-anchor="middle" fill="rgb(0,0,0)" fill-opacity="1" dy="0.90625em" xml:space="preserve" transform="translate(28 0.2890625)">서명값 반환</text></g><g><path d="M 59.38188073394495,277.875 L 59.67897262921883,291.7534356792228" stroke="rgb(0,0,0)" stroke-opacity="1" stroke-width="1" stroke-dasharray="0.01,2" stroke-dashoffset="0" stroke-linecap="round" stroke-linejoin="miter" stroke-miterlimit="10" fill="none"/></g></g></g><g transform="translate(386 -146)"><text font-family="Arial" font-size="12px" font-style="normal" font-weight="normal" text-decoration="none" text-anchor="middle" fill="rgb(0,0,0)" fill-opacity="1" xml:space="preserve" transform="translate(34 0.43359375)"><tspan class="yfiles-label-h2" dy="16.3125px" x="0" style="font-size: 1.5em; font-weight: bold;"><tspan class="yfiles-label-strong" style="font-weight: bold;">Storage</tspan></tspan></text></g><g transform="translate(416.5 -2.130000000000001)"><text font-family="Arial" font-size="12px" font-style="normal" font-weight="normal" text-decoration="none" text-anchor="middle" fill="rgb(255,255,255)" fill-opacity="1" dy="0.90625em" xml:space="preserve" transform="translate(3.5 0.2890625)">3</text></g><g><g><g transform="translate(393.3125 -46.755)"><g transform="translate(0 0)"><rect x="0" y="0" width="55" height="24" rx="0" ry="0" stroke="rgb(255,255,255)" stroke-opacity="0" stroke-width="1" stroke-linecap="butt" stroke-linejoin="miter" stroke-miterlimit="10" fill="rgb(224,224,224)" fill-opacity="1"/><path d="M 5.5,0 L 0,0 L 0,24 L 5.5,24" stroke="rgb(0,0,0)" stroke-opacity="1" stroke-width="1" stroke-linecap="butt" stroke-linejoin="miter" stroke-miterlimit="10" fill="rgb(255,255,255)" fill-opacity="0" transform="translate(0 0)"/></g></g><g transform="translate(398.3125 -41.755)"><text font-family="Arial" font-size="12px" font-style="normal" font-weight="normal" text-decoration="none" text-anchor="middle" fill="rgb(0,0,0)" fill-opacity="1" dy="0.90625em" xml:space="preserve" transform="translate(22.5 0.2890625)">파일 읽기</text></g><g><path d="M 420.5664432176656,-22.755000000000003 L 420.30750634010917,-10.126847663785638" stroke="rgb(0,0,0)" stroke-opacity="1" stroke-width="1" stroke-dasharray="0.01,2" stroke-dashoffset="0" stroke-linecap="round" stroke-linejoin="miter" stroke-miterlimit="10" fill="none"/></g></g></g></g></g></svg>