<svg xmlns="http://www.w3.org/2000/svg" width="510px" height="558px" viewBox="0 0 510 558" xmlns:xlink="http://www.w3.org/1999/xlink" style="display: block; width: 510px; height: 558px; overflow: auto;"><rect width="510px" height="558px" fill="white"/><defs><path fill="rgb(0,0,0)" stroke="rgb(0,0,0)" d="M 8,-3 L 0,0 L 8,3 Z" fill-opacity="1" stroke-opacity="1" stroke-width="1" stroke-linecap="butt" stroke-linejoin="miter" stroke-miterlimit="10" id="ygc785_0"/><path fill="rgb(0,0,0)" stroke="rgb(0,0,0)" d="M 8,-3 L 0,0 L 8,3 Z" fill-opacity="1" stroke-opacity="1" stroke-width="1" stroke-linecap="butt" stroke-linejoin="miter" stroke-miterlimit="10" id="ygc785_1"/><path fill="rgb(0,0,0)" stroke="rgb(0,0,0)" d="M 8,-3 L 0,0 L 8,3 Z" fill-opacity="1" stroke-opacity="1" stroke-width="1" stroke-linecap="butt" stroke-linejoin="miter" stroke-miterlimit="10" id="ygc785_2"/><path fill="rgb(0,0,0)" stroke="rgb(0,0,0)" d="M 8,-3 L 0,0 L 8,3 Z" fill-opacity="1" stroke-opacity="1" stroke-width="1" stroke-linecap="butt" stroke-linejoin="miter" stroke-miterlimit="10" id="ygc785_3"/></defs><g transform="translate(30 189.75)" image-rendering="auto" shape-rendering="auto" style="pointer-events: visiblepainted;"><g style="box-sizing: initial;"><g transform="translate(0 -159.75)" class="y-group-node yfiles-expanded"><path d="M 153.5 0H 303A 4 4 0 0 1 307 4V 494A 4 4 0 0 1 303 498H 4A 4 4 0 0 1 0 494V 4A 4 4 0 0 1 4 0z" fill="#FFF" transform="translate(0 0)" class="yfiles-group-node-tab-background"/><path d="M 153.5 3H 302A 2 2 0 0 1 304 5V 493A 2 2 0 0 1 302 495H 5A 2 2 0 0 1 3 493V 5A 2 2 0 0 1 5 3z" fill="#FFF" transform="translate(0 0)" class="yfiles-content-transparent yfiles-group-node-content"/><path d="M 153.5 0H 303A 4 4 0 0 1 307 4V 494A 4 4 0 0 1 303 498H 4A 4 4 0 0 1 0 494V 4A 4 4 0 0 1 4 0z" fill="none" stroke="#ABABAB" stroke-width="2" stroke-dasharray="2,4" stroke-dashoffset="1" stroke-linecap="square" stroke-linejoin="miter" stroke-miterlimit="10" transform="translate(0 0)" class="yfiles-group-node-stroke"/></g><g transform="translate(120 -152.75)" class="y-group-node yfiles-expanded"><path d="M 90 0H 176A 4 4 0 0 1 180 4V 480A 4 4 0 0 1 176 484H 4A 4 4 0 0 1 0 480V 4A 4 4 0 0 1 4 0z" fill="#FFF" transform="translate(0 0)" class="yfiles-group-node-tab-background"/><path d="M 90 3H 175A 2 2 0 0 1 177 5V 479A 2 2 0 0 1 175 481H 5A 2 2 0 0 1 3 479V 5A 2 2 0 0 1 5 3z" fill="#FFF" transform="translate(0 0)" class="yfiles-content-transparent yfiles-group-node-content"/><path d="M 90 0H 176A 4 4 0 0 1 180 4V 480A 4 4 0 0 1 176 484H 4A 4 4 0 0 1 0 480V 4A 4 4 0 0 1 4 0z" fill="none" stroke="#ABABAB" stroke-width="2" stroke-dasharray="2,4" stroke-dashoffset="1" stroke-linecap="square" stroke-linejoin="miter" stroke-miterlimit="10" transform="translate(0 0)" class="yfiles-group-node-stroke"/></g><g><path fill="none" stroke="rgb(0,0,0)" d="M 210,84.75 L 210,104.20099937578041" stroke-opacity="1" stroke-width="3" stroke-linecap="butt" stroke-linejoin="miter" stroke-miterlimit="10"/><use transform="matrix(0 -1 1 0 210 112.20099937578041)" xlink:href="#ygc785_0"/></g><g><path fill="none" stroke="rgb(0,0,0)" d="M 210,144.625 L 210,164.0759993757804" stroke-opacity="1" stroke-width="3" stroke-linecap="butt" stroke-linejoin="miter" stroke-miterlimit="10"/><use transform="matrix(0 -1 1 0 210 172.0759993757804)" xlink:href="#ygc785_1"/></g><g><path fill="none" stroke="rgb(0,0,0)" d="M 210,204.5 L 210,223.9509993757804" stroke-opacity="1" stroke-width="3" stroke-linecap="butt" stroke-linejoin="miter" stroke-miterlimit="10"/><use transform="matrix(0 -1 1 0 210 231.9509993757804)" xlink:href="#ygc785_2"/></g><g><path fill="none" stroke="rgb(0,0,0)" d="M 210,264.375 L 210,283.8259993757804" stroke-opacity="1" stroke-width="3" stroke-linecap="butt" stroke-linejoin="miter" stroke-miterlimit="10"/><use transform="matrix(0 -1 1 0 210 291.8259993757804)" xlink:href="#ygc785_2"/></g><image xlink:href="data:image/svg+xml;charset=utf-8,%3Csvg%20xmlns%3D%22http%3A%2F%2Fwww.w3.org%2F2000%2Fsvg%22%20viewBox%3D%220%200%20512%20512%22%20width%3D%22512%22%20height%3D%22512%22%20fill%3D%22rgb(0%2C0%2C0)%22%20fill-opacity%3D%221%22%3E%3Cpath%20d%3D%22M320%20336c0%208.84-7.16%2016-16%2016h-96c-8.84%200-16-7.16-16-16v-48H0v144c0%2025.6%2022.4%2048%2048%2048h416c25.6%200%2048-22.4%2048-48V288H320v48zm144-208h-80V80c0-25.6-22.4-48-48-48H176c-25.6%200-48%2022.4-48%2048v48H48c-25.6%200-48%2022.4-48%2048v80h512v-80c0-25.6-22.4-48-48-48zm-144%200H192V96h128v32z%22%2F%3E%3C%2Fsvg%3E" width="60" height="60" transform="translate(188 -120)"/><ellipse cx="210" cy="9.875" rx="15" ry="15" fill="rgb(0,0,0)" fill-opacity="1" stroke="rgb(0,0,0)" stroke-opacity="1" stroke-width="1" stroke-linecap="butt" stroke-linejoin="miter" stroke-miterlimit="10"/><ellipse cx="210" cy="69.75" rx="15" ry="15" fill="rgb(0,0,0)" fill-opacity="1" stroke="rgb(0,0,0)" stroke-opacity="1" stroke-width="1" stroke-linecap="butt" stroke-linejoin="miter" stroke-miterlimit="10"/><ellipse cx="210" cy="129.625" rx="15" ry="15" fill="rgb(0,0,0)" fill-opacity="1" stroke="rgb(0,0,0)" stroke-opacity="1" stroke-width="1" stroke-linecap="butt" stroke-linejoin="miter" stroke-miterlimit="10"/><ellipse cx="210" cy="189.5" rx="15" ry="15" fill="rgb(0,0,0)" fill-opacity="1" stroke="rgb(0,0,0)" stroke-opacity="1" stroke-width="1" stroke-linecap="butt" stroke-linejoin="miter" stroke-miterlimit="10"/><ellipse cx="210" cy="309.25" rx="15" ry="15" fill="rgb(0,0,0)" fill-opacity="1" stroke="rgb(0,0,0)" stroke-opacity="1" stroke-width="1" stroke-linecap="butt" stroke-linejoin="miter" stroke-miterlimit="10"/><ellipse cx="210" cy="249.375" rx="15" ry="15" fill="rgb(0,0,0)" fill-opacity="1" stroke="rgb(0,0,0)" stroke-opacity="1" stroke-width="1" stroke-linecap="butt" stroke-linejoin="miter" stroke-miterlimit="10"/><image xlink:href="data:image/svg+xml;charset=utf-8,%3Csvg%20xmlns%3D%22http%3A%2F%2Fwww.w3.org%2F2000%2Fsvg%22%20viewBox%3D%220%200%20320%20512%22%20width%3D%22320%22%20height%3D%22512%22%20fill%3D%22rgb(0%2C0%2C0)%22%20fill-opacity%3D%221%22%3E%3Cpath%20d%3D%22M272%200H48C21.5%200%200%2021.5%200%2048v416c0%2026.5%2021.5%2048%2048%2048h224c26.5%200%2048-21.5%2048-48V48c0-26.5-21.5-48-48-48zM160%20480c-17.7%200-32-14.3-32-32s14.3-32%2032-32%2032%2014.3%2032%2032-14.3%2032-32%2032zm112-108c0%206.6-5.4%2012-12%2012H60c-6.6%200-12-5.4-12-12V60c0-6.6%205.4-12%2012-12h200c6.6%200%2012%205.4%2012%2012v312z%22%2F%3E%3C%2Fsvg%3E" width="60" height="60" transform="translate(30 -120)"/><ellipse cx="60" cy="9.875" rx="15" ry="15" fill="rgb(0,0,0)" fill-opacity="1" stroke="rgb(0,0,0)" stroke-opacity="1" stroke-width="1" stroke-linecap="butt" stroke-linejoin="miter" stroke-miterlimit="10"/><ellipse cx="60" cy="309.25" rx="15" ry="15" fill="rgb(0,0,0)" fill-opacity="1" stroke="rgb(0,0,0)" stroke-opacity="1" stroke-width="1" stroke-linecap="butt" stroke-linejoin="miter" stroke-miterlimit="10"/><g><path fill="none" stroke="rgb(0,0,0)" d="M 75,9.875 L 184.5759993757804,9.875" stroke-opacity="1" stroke-width="3" stroke-linecap="butt" stroke-linejoin="miter" stroke-miterlimit="10"/><use transform="matrix(-1 0 0 -1 192.5759993757804 9.875)" xlink:href="#ygc785_3"/></g><g><path fill="none" stroke="rgb(0,0,0)" d="M 195,309.25 L 85.42400062421959,309.25" stroke-opacity="1" stroke-width="3" stroke-linecap="butt" stroke-linejoin="miter" stroke-miterlimit="10"/><use transform="translate(77.42400062421959 309.25)" xlink:href="#ygc785_2"/></g><g transform="translate(315 -159.75)" class="y-group-node yfiles-expanded"><path d="M 67.5 0H 131A 4 4 0 0 1 135 4V 494A 4 4 0 0 1 131 498H 4A 4 4 0 0 1 0 494V 4A 4 4 0 0 1 4 0z" fill="#FFF" transform="translate(0 0)" class="yfiles-group-node-tab-background"/><path d="M 67.5 3H 130A 2 2 0 0 1 132 5V 493A 2 2 0 0 1 130 495H 5A 2 2 0 0 1 3 493V 5A 2 2 0 0 1 5 3z" fill="#FFF" transform="translate(0 0)" class="yfiles-content-transparent yfiles-group-node-content"/><path d="M 67.5 0H 131A 4 4 0 0 1 135 4V 494A 4 4 0 0 1 131 498H 4A 4 4 0 0 1 0 494V 4A 4 4 0 0 1 4 0z" fill="none" stroke="#ABABAB" stroke-width="2" stroke-dasharray="2,4" stroke-dashoffset="1" stroke-linecap="square" stroke-linejoin="miter" stroke-miterlimit="10" transform="translate(0 0)" class="yfiles-group-node-stroke"/></g><image xlink:href="data:image/svg+xml;charset=utf-8,%3Csvg%20xmlns%3D%22http%3A%2F%2Fwww.w3.org%2F2000%2Fsvg%22%20viewBox%3D%220%200%20576%20512%22%20width%3D%22576%22%20height%3D%22512%22%20fill%3D%22rgb(0%2C0%2C0)%22%20fill-opacity%3D%221%22%3E%3Cpath%20d%3D%22M572.694%20292.093L500.27%20416.248A63.997%2063.997%200%200%201%20444.989%20448H45.025c-18.523%200-30.064-20.093-20.731-36.093l72.424-124.155A64%2064%200%200%201%20152%20256h399.964c18.523%200%2030.064%2020.093%2020.73%2036.093zM152%20224h328v-48c0-26.51-21.49-48-48-48H272l-64-64H48C21.49%2064%200%2085.49%200%20112v278.046l69.077-118.418C86.214%20242.25%20117.989%20224%20152%20224z%22%2F%3E%3C%2Fsvg%3E" width="60" height="60" transform="translate(350.875 -120)"/><ellipse cx="375.29156" cy="8.773056" rx="15" ry="15" fill="rgb(0,0,0)" fill-opacity="1" stroke="rgb(0,0,0)" stroke-opacity="1" stroke-width="1" stroke-linecap="butt" stroke-linejoin="miter" stroke-miterlimit="10"/><g><path fill="none" stroke="rgb(0,0,0)" d="M 224.99966667777736,9.775002222148164 L 349.8681289862378,8.942545806758538" stroke-opacity="1" stroke-width="3" stroke-linecap="butt" stroke-linejoin="miter" stroke-miterlimit="10"/><use transform="matrix(-0.9999777785184911 0.006666518523455719 -0.006666518523455719 -0.9999777785184911 357.86795121438576 8.889213658570894)" xlink:href="#ygc785_2"/></g><g><path fill="none" stroke="rgb(0,0,0)" d="M 361.21863009008314,13.964637192373715 L 233.85268647160024,60.95061616771622" stroke-opacity="1" stroke-width="3" stroke-linecap="butt" stroke-linejoin="miter" stroke-miterlimit="10"/><use transform="matrix(0.9381956374276331 -0.34610539711445903 0.34610539711445903 0.9381956374276331 226.34712137217917 63.71945934463189)" xlink:href="#ygc785_2"/></g><g transform="translate(11 -146)"><text font-family="Arial" font-size="12px" font-style="normal" font-weight="normal" text-decoration="none" text-anchor="middle" fill="black" xml:space="preserve" transform="translate(49 0.43359375)"><tspan class="yfiles-label-h2" dy="16.3125px" x="0" style="font-size: 1.5em; font-weight: bold;">Application</tspan></text></g><g transform="translate(169.5 -146)"><text font-family="Arial" font-size="12px" font-style="normal" font-weight="normal" text-decoration="none" text-anchor="middle" fill="black" xml:space="preserve" transform="translate(48.5 0.43359375)"><tspan class="yfiles-label-h2" dy="16.3125px" x="0" style="font-size: 1.5em; font-weight: bold;"><tspan class="yfiles-label-strong" style="font-weight: bold;">Wallet </tspan>SDK</tspan></text></g><g transform="translate(206.5 2.875)"><text font-family="Arial" font-size="12px" font-style="normal" font-weight="normal" text-decoration="none" text-anchor="middle" fill="rgb(255,255,255)" fill-opacity="1" dy="0.90625em" xml:space="preserve" transform="translate(3.5 0.2890625)">2</text></g><g><g><g transform="translate(171.875 -54.375)"><g transform="translate(0 0)"><rect x="0" y="0" width="79" height="38" rx="0" ry="0" stroke="rgb(255,255,255)" stroke-opacity="0" stroke-width="1" stroke-linecap="butt" stroke-linejoin="miter" stroke-miterlimit="10" fill="rgb(224,224,224)" fill-opacity="1"/><path d="M 7.9,0 L 0,0 L 0,38 L 7.9,38" stroke="rgb(0,0,0)" stroke-opacity="1" stroke-width="1" stroke-linecap="butt" stroke-linejoin="miter" stroke-miterlimit="10" fill="rgb(255,255,255)" fill-opacity="0" transform="translate(0 0)"/></g></g><g transform="translate(176.875 -49.375)"><text font-family="Arial" font-size="12px" font-style="normal" font-weight="normal" text-decoration="none" text-anchor="middle" fill="rgb(0,0,0)" fill-opacity="1" transform="translate(34.5 0.08906250000000071)"><tspan x="0" y="10.875" xml:space="preserve">저장 영역에서</tspan><tspan x="0" y="25.275" xml:space="preserve">월렛 파일 읽기</tspan></text></g><g><path d="M 210.79765193370167,-16.375 L 210.45559081770438,-5.118079637180065" stroke="rgb(0,0,0)" stroke-opacity="1" stroke-width="1" stroke-dasharray="0.01,2" stroke-dashoffset="0" stroke-linecap="round" stroke-linejoin="miter" stroke-miterlimit="10" fill="none"/></g></g></g><g transform="translate(206.5 62.75)"><text font-family="Arial" font-size="12px" font-style="normal" font-weight="normal" text-decoration="none" text-anchor="middle" fill="rgb(255,255,255)" fill-opacity="1" dy="0.90625em" xml:space="preserve" transform="translate(3.5 0.2890625)">4</text></g><g><g><g transform="translate(249.5625 52.375)"><g transform="translate(0 0)"><rect x="0" y="0" width="173" height="38" rx="0" ry="0" stroke="rgb(255,255,255)" stroke-opacity="0" stroke-width="1" stroke-linecap="butt" stroke-linejoin="miter" stroke-miterlimit="10" fill="rgb(224,224,224)" fill-opacity="1"/><path d="M 17.3,0 L 0,0 L 0,38 L 17.3,38" stroke="rgb(0,0,0)" stroke-opacity="1" stroke-width="1" stroke-linecap="butt" stroke-linejoin="miter" stroke-miterlimit="10" fill="rgb(255,255,255)" fill-opacity="0" transform="translate(0 0)"/></g></g><g transform="translate(254.5625 57.375)"><text font-family="Arial" font-size="12px" font-style="normal" font-weight="normal" text-decoration="none" text-anchor="middle" fill="rgb(0,0,0)" fill-opacity="1" transform="translate(81.5 0.08906250000000071)"><tspan x="0" y="10.875" xml:space="preserve">키스토어에 저장된</tspan><tspan x="0" y="25.275" xml:space="preserve"> 월렛 서명용 키의 공개키 가져오기</tspan></text></g><g><path d="M 249.5625,70.25997768963808 L 224.9987539311362,69.94334040763984" stroke="rgb(0,0,0)" stroke-opacity="1" stroke-width="1" stroke-dasharray="0.01,2" stroke-dashoffset="0" stroke-linecap="round" stroke-linejoin="miter" stroke-miterlimit="10" fill="none"/></g></g></g><g transform="translate(206.5 122.625)"><text font-family="Arial" font-size="12px" font-style="normal" font-weight="normal" text-decoration="none" text-anchor="middle" fill="rgb(255,255,255)" fill-opacity="1" dy="0.90625em" xml:space="preserve" transform="translate(3.5 0.2890625)">5</text></g><g><g><g transform="translate(249.5625 109.875)"><g transform="translate(0 0)"><rect x="0" y="0" width="166" height="38" rx="0" ry="0" stroke="rgb(255,255,255)" stroke-opacity="0" stroke-width="1" stroke-linecap="butt" stroke-linejoin="miter" stroke-miterlimit="10" fill="rgb(224,224,224)" fill-opacity="1"/><path d="M 16.6,0 L 0,0 L 0,38 L 16.6,38" stroke="rgb(0,0,0)" stroke-opacity="1" stroke-width="1" stroke-linecap="butt" stroke-linejoin="miter" stroke-miterlimit="10" fill="rgb(255,255,255)" fill-opacity="0" transform="translate(0 0)"/></g></g><g transform="translate(254.5625 114.875)"><text font-family="Arial" font-size="12px" font-style="normal" font-weight="normal" text-decoration="none" text-anchor="middle" fill="rgb(0,0,0)" fill-opacity="1" transform="translate(78 0.08906250000000071)"><tspan x="0" y="10.875" xml:space="preserve">월렛 파일의 서명을 검증함으로써</tspan><tspan x="0" y="25.275" xml:space="preserve"> 변조여부 확인</tspan></text></g><g><path d="M 249.5625,129.38290413054563 L 224.99971916167678,129.53321181543083" stroke="rgb(0,0,0)" stroke-opacity="1" stroke-width="1" stroke-dasharray="0.01,2" stroke-dashoffset="0" stroke-linecap="round" stroke-linejoin="miter" stroke-miterlimit="10" fill="none"/></g></g></g><g transform="translate(206.5 182.5)"><text font-family="Arial" font-size="12px" font-style="normal" font-weight="normal" text-decoration="none" text-anchor="middle" fill="rgb(255,255,255)" fill-opacity="1" dy="0.90625em" xml:space="preserve" transform="translate(3.5 0.2890625)">6</text></g><g><g><g transform="translate(247.9375 168.875)"><g transform="translate(0 0)"><rect x="0" y="0" width="145" height="38" rx="0" ry="0" stroke="rgb(255,255,255)" stroke-opacity="0" stroke-width="1" stroke-linecap="butt" stroke-linejoin="miter" stroke-miterlimit="10" fill="rgb(224,224,224)" fill-opacity="1"/><path d="M 14.5,0 L 0,0 L 0,38 L 14.5,38" stroke="rgb(0,0,0)" stroke-opacity="1" stroke-width="1" stroke-linecap="butt" stroke-linejoin="miter" stroke-miterlimit="10" fill="rgb(255,255,255)" fill-opacity="0" transform="translate(0 0)"/></g></g><g transform="translate(252.9375 173.875)"><text font-family="Arial" font-size="12px" font-style="normal" font-weight="normal" text-decoration="none" text-anchor="middle" fill="rgb(0,0,0)" fill-opacity="1" transform="translate(67.5 0.08906250000000071)"><tspan x="0" y="10.875" xml:space="preserve">키스토어에 저장된 키로 </tspan><tspan x="0" y="25.275" xml:space="preserve">암호화된 월렛 데이터 복호화</tspan></text></g><g><path d="M 247.9375,188.94177985285796 L 224.9983764549414,189.27931081616953" stroke="rgb(0,0,0)" stroke-opacity="1" stroke-width="1" stroke-dasharray="0.01,2" stroke-dashoffset="0" stroke-linecap="round" stroke-linejoin="miter" stroke-miterlimit="10" fill="none"/></g></g></g><g transform="translate(206.5 302.25)"><text font-family="Arial" font-size="12px" font-style="normal" font-weight="normal" text-decoration="none" text-anchor="middle" fill="rgb(255,255,255)" fill-opacity="1" dy="0.90625em" xml:space="preserve" transform="translate(3.5 0.2890625)">8</text></g><g><g><g transform="translate(247.5625 295.75)"><g transform="translate(0 0)"><rect x="0" y="0" width="145" height="24" rx="0" ry="0" stroke="rgb(255,255,255)" stroke-opacity="0" stroke-width="1" stroke-linecap="butt" stroke-linejoin="miter" stroke-miterlimit="10" fill="rgb(224,224,224)" fill-opacity="1"/><path d="M 14.5,0 L 0,0 L 0,24 L 14.5,24" stroke="rgb(0,0,0)" stroke-opacity="1" stroke-width="1" stroke-linecap="butt" stroke-linejoin="miter" stroke-miterlimit="10" fill="rgb(255,255,255)" fill-opacity="0" transform="translate(0 0)"/></g></g><g transform="translate(252.5625 300.75)"><text font-family="Arial" font-size="12px" font-style="normal" font-weight="normal" text-decoration="none" text-anchor="middle" fill="rgb(0,0,0)" fill-opacity="1" dy="0.90625em" xml:space="preserve" transform="translate(67.5 0.2890625)">개인키로 해시된 값 서명하기</text></g><g><path d="M 247.5625,308.73807495741056 L 224.99860714938313,309.0455896810987" stroke="rgb(0,0,0)" stroke-opacity="1" stroke-width="1" stroke-dasharray="0.01,2" stroke-dashoffset="0" stroke-linecap="round" stroke-linejoin="miter" stroke-miterlimit="10" fill="none"/></g></g></g><g transform="translate(206.5 242.375)"><text font-family="Arial" font-size="12px" font-style="normal" font-weight="normal" text-decoration="none" text-anchor="middle" fill="rgb(255,255,255)" fill-opacity="1" dy="0.90625em" xml:space="preserve" transform="translate(3.5 0.2890625)">7</text></g><g><g><g transform="translate(248.3125 230.125)"><g transform="translate(0 0)"><rect x="0" y="0" width="121" height="38" rx="0" ry="0" stroke="rgb(255,255,255)" stroke-opacity="0" stroke-width="1" stroke-linecap="butt" stroke-linejoin="miter" stroke-miterlimit="10" fill="rgb(224,224,224)" fill-opacity="1"/><path d="M 12.100000000000001,0 L 0,0 L 0,38 L 12.100000000000001,38" stroke="rgb(0,0,0)" stroke-opacity="1" stroke-width="1" stroke-linecap="butt" stroke-linejoin="miter" stroke-miterlimit="10" fill="rgb(255,255,255)" fill-opacity="0" transform="translate(0 0)"/></g></g><g transform="translate(253.3125 235.125)"><text font-family="Arial" font-size="12px" font-style="normal" font-weight="normal" text-decoration="none" text-anchor="middle" fill="rgb(0,0,0)" fill-opacity="1" transform="translate(55.5 0.08906250000000071)"><tspan x="0" y="10.875" xml:space="preserve">키스토어에 저장된 </tspan><tspan x="0" y="25.275" xml:space="preserve">서명용 개인키 가져오기</tspan></text></g><g><path d="M 248.3125,249.27806767868438 L 224.9999519918002,249.33704945732626" stroke="rgb(0,0,0)" stroke-opacity="1" stroke-width="1" stroke-dasharray="0.01,2" stroke-dashoffset="0" stroke-linecap="round" stroke-linejoin="miter" stroke-miterlimit="10" fill="none"/></g></g></g><g transform="translate(56.5 2.875)"><text font-family="Arial" font-size="12px" font-style="normal" font-weight="normal" text-decoration="none" text-anchor="middle" fill="rgb(255,255,255)" fill-opacity="1" dy="0.90625em" xml:space="preserve" transform="translate(3.5 0.2890625)">1</text></g><g><g><g transform="translate(30.375 -45.375)"><g transform="translate(0 0)"><rect x="0" y="0" width="55" height="24" rx="0" ry="0" stroke="rgb(255,255,255)" stroke-opacity="0" stroke-width="1" stroke-linecap="butt" stroke-linejoin="miter" stroke-miterlimit="10" fill="rgb(224,224,224)" fill-opacity="1"/><path d="M 49.5,0 L 55,0 L 55,24 L 49.5,24" stroke="rgb(0,0,0)" stroke-opacity="1" stroke-width="1" stroke-linecap="butt" stroke-linejoin="miter" stroke-miterlimit="10" fill="rgb(255,255,255)" fill-opacity="0" transform="translate(0 0)"/></g></g><g transform="translate(35.375 -40.375)"><text font-family="Arial" font-size="12px" font-style="normal" font-weight="normal" text-decoration="none" text-anchor="middle" fill="rgb(0,0,0)" fill-opacity="1" dy="0.90625em" xml:space="preserve" transform="translate(22.5 0.2890625)">서명 요청</text></g><g><path d="M 58.464595375722546,-21.375 L 59.263893742170524,-5.106927365235231" stroke="rgb(0,0,0)" stroke-opacity="1" stroke-width="1" stroke-dasharray="0.01,2" stroke-dashoffset="0" stroke-linecap="round" stroke-linejoin="miter" stroke-miterlimit="10" fill="none"/></g></g></g><g transform="translate(56.5 302.25)"><text font-family="Arial" font-size="12px" font-style="normal" font-weight="normal" text-decoration="none" text-anchor="middle" fill="rgb(255,255,255)" fill-opacity="1" dy="0.90625em" xml:space="preserve" transform="translate(3.5 0.2890625)">9</text></g><g><g><g transform="translate(26.125 256.375)"><g transform="translate(0 0)"><rect x="0" y="0" width="66" height="24" rx="0" ry="0" stroke="rgb(255,255,255)" stroke-opacity="0" stroke-width="1" stroke-linecap="butt" stroke-linejoin="miter" stroke-miterlimit="10" fill="rgb(224,224,224)" fill-opacity="1"/><path d="M 59.4,0 L 66,0 L 66,24 L 59.4,24" stroke="rgb(0,0,0)" stroke-opacity="1" stroke-width="1" stroke-linecap="butt" stroke-linejoin="miter" stroke-miterlimit="10" fill="rgb(255,255,255)" fill-opacity="0" transform="translate(0 0)"/></g></g><g transform="translate(31.125 261.375)"><text font-family="Arial" font-size="12px" font-style="normal" font-weight="normal" text-decoration="none" text-anchor="middle" fill="rgb(0,0,0)" fill-opacity="1" dy="0.90625em" xml:space="preserve" transform="translate(28 0.2890625)">서명값 반환</text></g><g><path d="M 59.38188073394495,280.375 L 59.67897262921883,294.2534356792228" stroke="rgb(0,0,0)" stroke-opacity="1" stroke-width="1" stroke-dasharray="0.01,2" stroke-dashoffset="0" stroke-linecap="round" stroke-linejoin="miter" stroke-miterlimit="10" fill="none"/></g></g></g><g transform="translate(346.875 -146)"><text font-family="Arial" font-size="12px" font-style="normal" font-weight="normal" text-decoration="none" text-anchor="middle" fill="rgb(0,0,0)" fill-opacity="1" xml:space="preserve" transform="translate(34 0.43359375)"><tspan class="yfiles-label-h2" dy="16.3125px" x="0" style="font-size: 1.5em; font-weight: bold;">Storage</tspan></text></g><g transform="translate(371.79156465149765 1.7730562356568278)"><text font-family="Arial" font-size="12px" font-style="normal" font-weight="normal" text-decoration="none" text-anchor="middle" fill="rgb(255,255,255)" fill-opacity="1" dy="0.90625em" xml:space="preserve" transform="translate(3.5 0.2890625)">3</text></g><g><g><g transform="translate(348.60406465149765 -42.851943764343176)"><g transform="translate(0 0)"><rect x="0" y="0" width="55" height="24" rx="0" ry="0" stroke="rgb(255,255,255)" stroke-opacity="0" stroke-width="1" stroke-linecap="butt" stroke-linejoin="miter" stroke-miterlimit="10" fill="rgb(224,224,224)" fill-opacity="1"/><path d="M 5.5,0 L 0,0 L 0,24 L 5.5,24" stroke="rgb(0,0,0)" stroke-opacity="1" stroke-width="1" stroke-linecap="butt" stroke-linejoin="miter" stroke-miterlimit="10" fill="rgb(255,255,255)" fill-opacity="0" transform="translate(0 0)"/></g></g><g transform="translate(353.60406465149765 -37.851943764343176)"><text font-family="Arial" font-size="12px" font-style="normal" font-weight="normal" text-decoration="none" text-anchor="middle" fill="rgb(0,0,0)" fill-opacity="1" dy="0.90625em" xml:space="preserve" transform="translate(22.5 0.2890625)">파일 읽기</text></g><g><path d="M 375.85800786916326,-18.851943764343176 L 375.5990709916068,-6.223791428128807" stroke="rgb(0,0,0)" stroke-opacity="1" stroke-width="1" stroke-dasharray="0.01,2" stroke-dashoffset="0" stroke-linecap="round" stroke-linejoin="miter" stroke-miterlimit="10" fill="none"/></g></g></g></g></g></svg>