<?xml version="1.0" encoding="us-ascii" standalone="no"?><svg xmlns="http://www.w3.org/2000/svg" xmlns:xlink="http://www.w3.org/1999/xlink" contentStyleType="text/css" height="293px" preserveAspectRatio="none" style="width:515px;height:293px;background:#FFFFFF;" version="1.1" viewBox="0 0 515 293" width="515px" zoomAndPan="magnify"><defs/><g><text fill="#000000" font-family="sans-serif" font-size="14" font-weight="bold" lengthAdjust="spacing" textLength="130" x="10" y="23.5352">schema-identifier</text><line style="stroke:#181818;stroke-width:1.5;" x1="40" x2="40" y1="49.7324" y2="49.7324"/><rect fill="#F1F1F1" height="26.4883" rx="5" ry="5" style="stroke:#181818;stroke-width:1.5;" width="81" x="40" y="36.4883"/><text fill="#000000" font-family="sans-serif" font-size="14" lengthAdjust="spacing" textLength="71" x="45" y="55.0234">issuer-did</text><line style="stroke:#181818;stroke-width:1.5;" x1="121" x2="141" y1="49.7324" y2="49.7324"/><rect fill="none" height="26.4883" style="stroke:#181818;stroke-width:0.5;" width="14" x="141" y="36.4883"/><text fill="#000000" font-family="sans-serif" font-size="14" lengthAdjust="spacing" textLength="4" x="146" y="55.0234">:</text><line style="stroke:#181818;stroke-width:1.5;" x1="155" x2="175" y1="49.7324" y2="49.7324"/><rect fill="none" height="26.4883" style="stroke:#181818;stroke-width:0.5;" width="19" x="175" y="36.4883"/><text fill="#000000" font-family="sans-serif" font-size="14" lengthAdjust="spacing" textLength="9" x="180" y="55.0234">2</text><line style="stroke:#181818;stroke-width:1.5;" x1="194" x2="214" y1="49.7324" y2="49.7324"/><rect fill="none" height="26.4883" style="stroke:#181818;stroke-width:0.5;" width="14" x="214" y="36.4883"/><text fill="#000000" font-family="sans-serif" font-size="14" lengthAdjust="spacing" textLength="4" x="219" y="55.0234">:</text><line style="stroke:#181818;stroke-width:1.5;" x1="228" x2="248" y1="49.7324" y2="49.7324"/><rect fill="#F1F1F1" height="26.4883" rx="5" ry="5" style="stroke:#181818;stroke-width:1.5;" width="108" x="248" y="36.4883"/><text fill="#000000" font-family="sans-serif" font-size="14" lengthAdjust="spacing" textLength="98" x="253" y="55.0234">schema-name</text><line style="stroke:#181818;stroke-width:1.5;" x1="356" x2="376" y1="49.7324" y2="49.7324"/><rect fill="none" height="26.4883" style="stroke:#181818;stroke-width:0.5;" width="14" x="376" y="36.4883"/><text fill="#000000" font-family="sans-serif" font-size="14" lengthAdjust="spacing" textLength="4" x="381" y="55.0234">:</text><line style="stroke:#181818;stroke-width:1.5;" x1="390" x2="410" y1="49.7324" y2="49.7324"/><rect fill="#F1F1F1" height="26.4883" rx="5" ry="5" style="stroke:#181818;stroke-width:1.5;" width="60" x="410" y="36.4883"/><text fill="#000000" font-family="sans-serif" font-size="14" lengthAdjust="spacing" textLength="50" x="415" y="55.0234">version</text><ellipse cx="14" cy="49.7324" fill="none" rx="4" ry="4" style="stroke:#181818;stroke-width:2.0;"/><ellipse cx="500" cy="49.7324" fill="#181818" rx="4" ry="4" style="stroke:#181818;stroke-width:1.0;"/><line style="stroke:#181818;stroke-width:1.5;" x1="18" x2="40" y1="49.7324" y2="49.7324"/><line style="stroke:#181818;stroke-width:1.5;" x1="470" x2="496" y1="49.7324" y2="49.7324"/><path d="M481,49.7324 L481,46.7324 L487,49.7324 L481,52.7324 L481,49.7324 " fill="#181818" style="stroke:#181818;stroke-width:1.5;"/><text fill="#000000" font-family="sans-serif" font-size="14" font-weight="bold" lengthAdjust="spacing" textLength="76" x="10" y="91.5117">issuer-did</text><rect fill="#F1F1F1" height="26.4883" rx="5" ry="5" style="stroke:#181818;stroke-width:1.5;" width="68" x="40" y="104.4648"/><text fill="#000000" font-family="sans-serif" font-size="14" lengthAdjust="spacing" textLength="58" x="45" y="123">type_did</text><ellipse cx="14" cy="117.709" fill="none" rx="4" ry="4" style="stroke:#181818;stroke-width:2.0;"/><ellipse cx="138" cy="117.709" fill="#181818" rx="4" ry="4" style="stroke:#181818;stroke-width:1.0;"/><line style="stroke:#181818;stroke-width:1.5;" x1="18" x2="40" y1="117.709" y2="117.709"/><line style="stroke:#181818;stroke-width:1.5;" x1="108" x2="134" y1="117.709" y2="117.709"/><path d="M119,117.709 L119,114.709 L125,117.709 L119,120.709 L119,117.709 " fill="#181818" style="stroke:#181818;stroke-width:1.5;"/><text fill="#000000" font-family="sans-serif" font-size="14" font-weight="bold" lengthAdjust="spacing" textLength="102" x="10" y="159.4883">schema-name</text><rect fill="#F1F1F1" height="26.4883" rx="5" ry="5" style="stroke:#181818;stroke-width:1.5;" width="50" x="40" y="172.4414"/><text fill="#000000" font-family="sans-serif" font-size="14" lengthAdjust="spacing" textLength="40" x="45" y="190.9766">string</text><ellipse cx="14" cy="185.6855" fill="none" rx="4" ry="4" style="stroke:#181818;stroke-width:2.0;"/><ellipse cx="120" cy="185.6855" fill="#181818" rx="4" ry="4" style="stroke:#181818;stroke-width:1.0;"/><line style="stroke:#181818;stroke-width:1.5;" x1="18" x2="40" y1="185.6855" y2="185.6855"/><line style="stroke:#181818;stroke-width:1.5;" x1="90" x2="116" y1="185.6855" y2="185.6855"/><path d="M101,185.6855 L101,182.6855 L107,185.6855 L101,188.6855 L101,185.6855 " fill="#181818" style="stroke:#181818;stroke-width:1.5;"/><text fill="#000000" font-family="sans-serif" font-size="14" font-weight="bold" lengthAdjust="spacing" textLength="53" x="10" y="227.4648">version</text><rect fill="#F1F1F1" height="26.4883" rx="5" ry="5" style="stroke:#181818;stroke-width:1.5;" width="96" x="40" y="240.418"/><text fill="#000000" font-family="sans-serif" font-size="14" lengthAdjust="spacing" textLength="86" x="45" y="258.9531">type_version</text><ellipse cx="14" cy="253.6621" fill="none" rx="4" ry="4" style="stroke:#181818;stroke-width:2.0;"/><ellipse cx="166" cy="253.6621" fill="#181818" rx="4" ry="4" style="stroke:#181818;stroke-width:1.0;"/><line style="stroke:#181818;stroke-width:1.5;" x1="18" x2="40" y1="253.6621" y2="253.6621"/><line style="stroke:#181818;stroke-width:1.5;" x1="136" x2="162" y1="253.6621" y2="253.6621"/><path d="M147,253.6621 L147,250.6621 L153,253.6621 L147,256.6621 L147,253.6621 " fill="#181818" style="stroke:#181818;stroke-width:1.5;"/><!--SRC=[JL1DQuD04BtlhnWy9L23iJOKfH3Qr88nDDGarx2werqQrx2x2ldt7LkjlGp3c_SnCsjZkRQOgnBixOfdKtnYpSzIeBAobAZPB-9E23o1DAP5xGefxi097Ig-CtG3NV4Q1wH3RMIZ8ZQfoE8dZTg8_LCGRgoMgehOe1gPVoPhLA9Vbx7zXIjxtALZ02mNlkS7Y_jPh2N4cCDo1LuG1bxeFS0sEq0_dhFPspxjV31Dgmi48Vl4lBNaC6S9xpXyj7HfZI6yNr4bc-q8mAlgf6vKJPzWoMat4LQ1-omjPAXf5pZjs0PBtbuiAOf6q3qX70-n-yXIhggML-JzrR2NXdprZMRPDm00]--></g></svg>