<?xml version="1.0" encoding="us-ascii" standalone="no"?><svg xmlns="http://www.w3.org/2000/svg" xmlns:xlink="http://www.w3.org/1999/xlink" contentStyleType="text/css" height="225px" preserveAspectRatio="none" style="width:666px;height:225px;background:#FFFFFF;" version="1.1" viewBox="0 0 666 225" width="666px" zoomAndPan="magnify"><defs/><g><text fill="#000000" font-family="sans-serif" font-size="14" font-weight="bold" lengthAdjust="spacing" textLength="147" x="10" y="23.5352">definition-identifier</text><line style="stroke:#181818;stroke-width:1.5;" x1="40" x2="40" y1="49.7324" y2="49.7324"/><rect fill="#F1F1F1" height="26.4883" rx="5" ry="5" style="stroke:#181818;stroke-width:1.5;" width="81" x="40" y="36.4883"/><text fill="#000000" font-family="sans-serif" font-size="14" lengthAdjust="spacing" textLength="71" x="45" y="55.0234">issuer-did</text><line style="stroke:#181818;stroke-width:1.5;" x1="121" x2="141" y1="49.7324" y2="49.7324"/><rect fill="none" height="26.4883" style="stroke:#181818;stroke-width:0.5;" width="14" x="141" y="36.4883"/><text fill="#000000" font-family="sans-serif" font-size="14" lengthAdjust="spacing" textLength="4" x="146" y="55.0234">:</text><line style="stroke:#181818;stroke-width:1.5;" x1="155" x2="175" y1="49.7324" y2="49.7324"/><rect fill="none" height="26.4883" style="stroke:#181818;stroke-width:0.5;" width="19" x="175" y="36.4883"/><text fill="#000000" font-family="sans-serif" font-size="14" lengthAdjust="spacing" textLength="9" x="180" y="55.0234">3</text><line style="stroke:#181818;stroke-width:1.5;" x1="194" x2="214" y1="49.7324" y2="49.7324"/><rect fill="none" height="26.4883" style="stroke:#181818;stroke-width:0.5;" width="14" x="214" y="36.4883"/><text fill="#000000" font-family="sans-serif" font-size="14" lengthAdjust="spacing" textLength="4" x="219" y="55.0234">:</text><line style="stroke:#181818;stroke-width:1.5;" x1="228" x2="248" y1="49.7324" y2="49.7324"/><rect fill="none" height="26.4883" style="stroke:#181818;stroke-width:0.5;" width="27" x="248" y="36.4883"/><text fill="#000000" font-family="sans-serif" font-size="14" lengthAdjust="spacing" textLength="17" x="253" y="55.0234">CL</text><line style="stroke:#181818;stroke-width:1.5;" x1="275" x2="295" y1="49.7324" y2="49.7324"/><rect fill="none" height="26.4883" style="stroke:#181818;stroke-width:0.5;" width="14" x="295" y="36.4883"/><text fill="#000000" font-family="sans-serif" font-size="14" lengthAdjust="spacing" textLength="4" x="300" y="55.0234">:</text><line style="stroke:#181818;stroke-width:1.5;" x1="309" x2="329" y1="49.7324" y2="49.7324"/><rect fill="#F1F1F1" height="26.4883" rx="5" ry="5" style="stroke:#181818;stroke-width:1.5;" width="132" x="329" y="36.4883"/><text fill="#000000" font-family="sans-serif" font-size="14" lengthAdjust="spacing" textLength="122" x="334" y="55.0234">schema-identifier</text><line style="stroke:#181818;stroke-width:1.5;" x1="461" x2="481" y1="49.7324" y2="49.7324"/><rect fill="none" height="26.4883" style="stroke:#181818;stroke-width:0.5;" width="14" x="481" y="36.4883"/><text fill="#000000" font-family="sans-serif" font-size="14" lengthAdjust="spacing" textLength="4" x="486" y="55.0234">:</text><line style="stroke:#181818;stroke-width:1.5;" x1="495" x2="515" y1="49.7324" y2="49.7324"/><rect fill="#F1F1F1" height="26.4883" rx="5" ry="5" style="stroke:#181818;stroke-width:1.5;" width="106" x="515" y="36.4883"/><text fill="#000000" font-family="sans-serif" font-size="14" lengthAdjust="spacing" textLength="96" x="520" y="55.0234">definition-tag</text><ellipse cx="14" cy="49.7324" fill="none" rx="4" ry="4" style="stroke:#181818;stroke-width:2.0;"/><ellipse cx="651" cy="49.7324" fill="#181818" rx="4" ry="4" style="stroke:#181818;stroke-width:1.0;"/><line style="stroke:#181818;stroke-width:1.5;" x1="18" x2="40" y1="49.7324" y2="49.7324"/><line style="stroke:#181818;stroke-width:1.5;" x1="621" x2="647" y1="49.7324" y2="49.7324"/><path d="M632,49.7324 L632,46.7324 L638,49.7324 L632,52.7324 L632,49.7324 " fill="#181818" style="stroke:#181818;stroke-width:1.5;"/><text fill="#000000" font-family="sans-serif" font-size="14" font-weight="bold" lengthAdjust="spacing" textLength="76" x="10" y="91.5117">issuer-did</text><rect fill="#F1F1F1" height="26.4883" rx="5" ry="5" style="stroke:#181818;stroke-width:1.5;" width="68" x="40" y="104.4648"/><text fill="#000000" font-family="sans-serif" font-size="14" lengthAdjust="spacing" textLength="58" x="45" y="123">type_did</text><ellipse cx="14" cy="117.709" fill="none" rx="4" ry="4" style="stroke:#181818;stroke-width:2.0;"/><ellipse cx="138" cy="117.709" fill="#181818" rx="4" ry="4" style="stroke:#181818;stroke-width:1.0;"/><line style="stroke:#181818;stroke-width:1.5;" x1="18" x2="40" y1="117.709" y2="117.709"/><line style="stroke:#181818;stroke-width:1.5;" x1="108" x2="134" y1="117.709" y2="117.709"/><path d="M119,117.709 L119,114.709 L125,117.709 L119,120.709 L119,117.709 " fill="#181818" style="stroke:#181818;stroke-width:1.5;"/><text fill="#000000" font-family="sans-serif" font-size="14" font-weight="bold" lengthAdjust="spacing" textLength="103" x="10" y="159.4883">definition-tag</text><rect fill="#F1F1F1" height="26.4883" rx="5" ry="5" style="stroke:#181818;stroke-width:1.5;" width="50" x="40" y="172.4414"/><text fill="#000000" font-family="sans-serif" font-size="14" lengthAdjust="spacing" textLength="40" x="45" y="190.9766">string</text><ellipse cx="14" cy="185.6855" fill="none" rx="4" ry="4" style="stroke:#181818;stroke-width:2.0;"/><ellipse cx="120" cy="185.6855" fill="#181818" rx="4" ry="4" style="stroke:#181818;stroke-width:1.0;"/><line style="stroke:#181818;stroke-width:1.5;" x1="18" x2="40" y1="185.6855" y2="185.6855"/><line style="stroke:#181818;stroke-width:1.5;" x1="90" x2="116" y1="185.6855" y2="185.6855"/><path d="M101,185.6855 L101,182.6855 L107,185.6855 L101,188.6855 L101,185.6855 " fill="#181818" style="stroke:#181818;stroke-width:1.5;"/><!--SRC=[LOz1Qy9048Nl-ok6d1GQYJ6L4Yb8jHOqeTAeLzba9-bGtSZk9k2_xuGgiPTbUE_DDs_dradZCDSbkEi5ZmfBqkIeraTIg1sLX4Rqgj-hy0faROF6LwIUm8izVYRUVLeazz4MttYM3vit_O7gP3KJFOtHVsr8pSJ_65lM6TASdwDMNNCXjYUftJvDe4LZEGZZKHY4qMWoM1c25UOmda8GnL4G1y-moNRGsKCn-DWcRGYsRao1eAWZvqrtQYZMifNmrN3bCyRmUK6zNcxk0hphbaojp_mbiJwaVM0Q-M_a84F3NU2GYYMMiZavtYXgnRrZsEzM_ej8fAuQMJ7xfnQBchdcobxs2m00]--></g></svg>