<?xml version="1.0" encoding="UTF-8"?><svg xmlns="http://www.w3.org/2000/svg" xmlns:xlink="http://www.w3.org/1999/xlink" fill-opacity="1" color-rendering="auto" color-interpolation="auto" text-rendering="auto" stroke="black" stroke-linecap="square" width="1005" stroke-miterlimit="10" shape-rendering="auto" stroke-opacity="1" fill="black" stroke-dasharray="none" font-weight="normal" stroke-width="1" height="497" font-family="'Dialog'" font-style="normal" stroke-linejoin="miter" font-size="12px" stroke-dashoffset="0" image-rendering="auto">
  <!--Generated by ySVG 2.6-->
  <defs id="genericDefs"/>
  <g>
    <defs id="defs1">
      <linearGradient x1="715.5" gradientUnits="userSpaceOnUse" x2="808.5" y1="291.9219" y2="314.9219" id="linearGradient1" spreadMethod="reflect">
        <stop stop-opacity="1" stop-color="white" offset="0%"/>
        <stop stop-opacity="1" stop-color="silver" offset="100%"/>
      </linearGradient>
      <linearGradient x1="1060.9003" gradientUnits="userSpaceOnUse" x2="1193.0997" y1="103.2169" y2="126.2169" id="linearGradient2" spreadMethod="reflect">
        <stop stop-opacity="1" stop-color="white" offset="0%"/>
        <stop stop-opacity="1" stop-color="silver" offset="100%"/>
      </linearGradient>
      <linearGradient x1="1045.9512" gradientUnits="userSpaceOnUse" x2="1107.9512" y1="289.0801" y2="312.9475" id="linearGradient3" spreadMethod="reflect">
        <stop stop-opacity="1" stop-color="white" offset="0%"/>
        <stop stop-opacity="1" stop-color="silver" offset="100%"/>
      </linearGradient>
      <linearGradient x1="1056.5" gradientUnits="userSpaceOnUse" x2="1197.5" y1="128.7307" y2="151.7307" id="linearGradient4" spreadMethod="reflect">
        <stop stop-opacity="1" stop-color="white" offset="0%"/>
        <stop stop-opacity="1" stop-color="silver" offset="100%"/>
      </linearGradient>
      <linearGradient x1="1118.4512" gradientUnits="userSpaceOnUse" x2="1211.4512" y1="289.5138" y2="312.5138" id="linearGradient5" spreadMethod="reflect">
        <stop stop-opacity="1" stop-color="white" offset="0%"/>
        <stop stop-opacity="1" stop-color="silver" offset="100%"/>
      </linearGradient>
      <linearGradient x1="1063.4512" gradientUnits="userSpaceOnUse" x2="1204.4512" y1="315.0276" y2="338.0276" id="linearGradient6" spreadMethod="reflect">
        <stop stop-opacity="1" stop-color="white" offset="0%"/>
        <stop stop-opacity="1" stop-color="silver" offset="100%"/>
      </linearGradient>
      <linearGradient x1="382.7173" gradientUnits="userSpaceOnUse" x2="458.3805" y1="297.4565" y2="321.3239" id="linearGradient7" spreadMethod="reflect">
        <stop stop-opacity="1" stop-color="white" offset="0%"/>
        <stop stop-opacity="1" stop-color="silver" offset="100%"/>
      </linearGradient>
      <clipPath clipPathUnits="userSpaceOnUse" id="clipPath1">
        <path d="M0 0 L1005 0 L1005 497 L0 497 L0 0 Z"/>
      </clipPath>
      <clipPath clipPathUnits="userSpaceOnUse" id="clipPath2">
        <path d="M310 -100 L1315 -100 L1315 397 L310 397 L310 -100 Z"/>
      </clipPath>
      <clipPath clipPathUnits="userSpaceOnUse" id="clipPath3">
        <path d="M669 270.3239 L669 288.8122 L855 288.8122 L855 270.3239 Z"/>
      </clipPath>
      <clipPath clipPathUnits="userSpaceOnUse" id="clipPath4">
        <path d="M669 317.1911 L669 333.3239 L855 333.3239 L855 317.1911 Z"/>
      </clipPath>
      <clipPath clipPathUnits="userSpaceOnUse" id="clipPath5">
        <path d="M1032.5 82.1189 L1032.5 100.6072 L1218.5 100.6072 L1218.5 82.1189 Z"/>
      </clipPath>
      <clipPath clipPathUnits="userSpaceOnUse" id="clipPath6">
        <path d="M-423.7205 -94.406 L581.2795 -94.406 L581.2795 366.0256 L-423.7205 366.0256 L-423.7205 -94.406 Z"/>
      </clipPath>
      <clipPath clipPathUnits="userSpaceOnUse" id="clipPath7">
        <path d="M1034 266.3239 L1034 284.8122 L1220 284.8122 L1220 266.3239 Z"/>
      </clipPath>
      <clipPath clipPathUnits="userSpaceOnUse" id="clipPath8">
        <path d="M327.5489 270.3239 L327.5489 288.8122 L513.5489 288.8122 L513.5489 270.3239 Z"/>
      </clipPath>
    </defs>
    <g fill="white" text-rendering="geometricPrecision" shape-rendering="geometricPrecision" transform="translate(-310,100)" stroke="white">
      <rect x="310" width="1005" height="497" y="-100" clip-path="url(#clipPath2)" stroke="none"/>
    </g>
    <g fill="rgb(67,141,213)" text-rendering="geometricPrecision" shape-rendering="geometricPrecision" transform="matrix(1,0,0,1,-310,100)" stroke="rgb(67,141,213)">
      <rect x="667" width="190" height="106" y="233.3239" clip-path="url(#clipPath2)" stroke="none"/>
    </g>
    <g stroke-linecap="butt" transform="matrix(1,0,0,1,-310,100)" fill="rgb(60,127,192)" text-rendering="geometricPrecision" shape-rendering="geometricPrecision" stroke="rgb(60,127,192)" stroke-miterlimit="1.45">
      <rect fill="none" x="667" width="190" height="106" y="233.3239" clip-path="url(#clipPath2)"/>
    </g>
    <g fill="white" text-rendering="geometricPrecision" shape-rendering="geometricPrecision" transform="matrix(1,0,0,1,-310,100)" stroke="white">
      <path d="M724.8672 283.4558 Q723.3975 284.112 721.3604 284.112 Q718.8721 284.112 717.4844 282.7107 Q716.0967 281.3093 716.0967 278.8005 Q716.0967 276.2439 717.4946 274.8664 Q718.8926 273.489 721.4834 273.489 Q723.1377 273.489 724.7715 273.8786 L724.7715 275.5261 Q722.9189 274.8767 721.668 274.8767 Q720.0684 274.8767 719.2002 275.8918 Q718.332 276.907 718.332 278.7732 Q718.332 280.6052 719.2651 281.6306 Q720.1982 282.656 721.8594 282.656 Q723.3496 282.656 724.8672 281.904 ZM725.5918 283.8591 L729.5293 273.7419 L731.6348 273.7419 L735.5723 283.8591 L733.4121 283.8591 L732.3594 281.1589 L728.1758 281.1589 L727.123 283.8591 ZM728.6953 279.8122 L731.8398 279.8122 L730.2676 275.779 ZM737.0078 286.5593 L737.0078 276.3532 L739.0312 276.3532 L739.0312 277.7683 Q739.8105 276.1823 741.4854 276.1823 Q742.8389 276.1823 743.6147 277.1736 Q744.3906 278.1648 744.3906 279.9011 Q744.3906 281.7878 743.5156 282.9089 Q742.6406 284.03 741.1709 284.03 Q739.9883 284.03 739.0312 283.1003 L739.0312 286.5593 ZM739.0312 281.8972 Q739.7695 282.7175 740.6035 282.7175 Q741.3486 282.7175 741.793 281.9963 Q742.2373 281.2751 742.2373 280.072 Q742.2373 277.7683 740.7539 277.7683 Q739.8584 277.7683 739.0312 278.9236 ZM746.2842 286.5593 L746.2842 276.3532 L748.3076 276.3532 L748.3076 277.7683 Q749.0869 276.1823 750.7617 276.1823 Q752.1152 276.1823 752.8911 277.1736 Q753.667 278.1648 753.667 279.9011 Q753.667 281.7878 752.792 282.9089 Q751.917 284.03 750.4473 284.03 Q749.2646 284.03 748.3076 283.1003 L748.3076 286.5593 ZM748.3076 281.8972 Q749.0459 282.7175 749.8799 282.7175 Q750.625 282.7175 751.0693 281.9963 Q751.5137 281.2751 751.5137 280.072 Q751.5137 277.7683 750.0303 277.7683 Q749.1348 277.7683 748.3076 278.9236 ZM758.8076 272.9831 L758.8076 274.2888 Q756.9893 276.1208 756.9893 279.4704 Q756.9893 282.8269 758.8076 284.6589 L758.8076 285.9646 Q757.1465 285.0691 756.1416 283.2917 Q755.1367 281.5144 755.1367 279.4704 Q755.1367 277.4265 756.1245 275.6765 Q757.1123 273.9265 758.8076 272.9831 ZM762.1504 283.8591 L759.6279 273.7419 L761.6172 273.7419 L763.4629 281.1452 L765.2061 273.7419 L766.9629 273.7419 L768.6172 281.1042 L770.5586 273.7419 L772.0146 273.7419 L769.3623 283.8591 L767.3525 283.8591 L765.7939 276.9206 L764.1602 283.8591 ZM777.0801 283.0525 Q776.0684 284.03 774.9131 284.03 Q773.9287 284.03 773.3135 283.4284 Q772.6982 282.8269 772.6982 281.8698 Q772.6982 280.6257 773.6929 279.9524 Q774.6875 279.279 776.54 279.279 L777.0801 279.279 L777.0801 278.5954 Q777.0801 277.4265 775.7471 277.4265 Q774.5645 277.4265 773.3545 278.0964 L773.3545 276.7019 Q774.7285 276.1823 776.0752 276.1823 Q779.0215 276.1823 779.0215 278.5271 L779.0215 281.8493 Q779.0215 282.7312 779.5889 282.7312 Q779.6914 282.7312 779.8555 282.7038 L779.9033 283.8386 Q779.2607 284.03 778.7686 284.03 Q777.5244 284.03 777.1689 283.0525 ZM777.0801 281.9655 L777.0801 280.4411 L776.6016 280.4411 Q774.6396 280.4411 774.6396 281.6716 Q774.6396 282.0886 774.9233 282.3723 Q775.207 282.656 775.624 282.656 Q776.335 282.656 777.0801 281.9655 ZM781.6328 283.8591 L781.6328 273.0652 L783.6562 273.0652 L783.6562 283.8591 ZM786.1855 283.8591 L786.1855 273.0652 L788.209 273.0652 L788.209 283.8591 ZM796.8496 283.6062 Q795.4072 284.03 794.1152 284.03 Q792.2354 284.03 791.1484 282.9636 Q790.0615 281.8972 790.0615 280.0515 Q790.0615 278.3083 791.0562 277.2453 Q792.0508 276.1823 793.6846 276.1823 Q795.332 276.1823 796.0908 277.2214 Q796.8496 278.2605 796.8496 280.5095 L792.1943 280.5095 Q792.3994 282.656 794.5527 282.656 Q795.5713 282.656 796.8496 282.1843 ZM792.167 279.3679 L794.8604 279.3679 Q794.8604 277.447 793.623 277.447 Q792.3652 277.447 792.167 279.3679 ZM802.8105 283.8181 Q802.0859 284.03 801.6689 284.03 Q799.0371 284.03 799.0371 281.5691 L799.0371 277.6179 L798.1963 277.6179 L798.1963 276.3532 L799.0371 276.3532 L799.0371 275.0886 L801.0605 274.8562 L801.0605 276.3532 L802.667 276.3532 L802.667 277.6179 L801.0605 277.6179 L801.0605 281.3025 Q801.0605 282.6833 802.1885 282.6833 Q802.4482 282.6833 802.8105 282.5876 ZM804.0273 272.9831 L804.0273 274.2888 Q805.8457 276.1208 805.8457 279.4704 Q805.8457 282.8269 804.0273 284.6589 L804.0273 285.9646 Q805.6885 285.0691 806.6934 283.2917 Q807.6982 281.5144 807.6982 279.4704 Q807.6982 277.4265 806.7104 275.6765 Q805.7227 273.9265 804.0273 272.9831 Z" stroke="none" clip-path="url(#clipPath3)"/>
      <text stroke-linecap="butt" x="709.8896" y="261.9255" clip-path="url(#clipPath2)" font-family="sans-serif" stroke="none" stroke-miterlimit="1.45" xml:space="preserve">&lt;&lt;Mobile App&gt;&gt;</text>
      <path d="M697.3945 329.0095 Q695.373 329.0095 694.2715 327.823 Q693.1699 326.6364 693.1699 324.4626 Q693.1699 322.2946 694.292 321.0993 Q695.4141 319.904 697.4531 319.904 Q698.6191 319.904 700.1836 320.2849 L700.1836 321.4392 Q698.4023 320.8239 697.4355 320.8239 Q696.0234 320.8239 695.25 321.779 Q694.4766 322.7341 694.4766 324.4743 Q694.4766 326.1325 695.3027 327.0905 Q696.1289 328.0486 697.5586 328.0486 Q698.7891 328.0486 700.1953 327.2927 L700.1953 328.3474 Q698.9121 329.0095 697.3945 329.0095 ZM706.6816 328.5876 Q705.5215 328.9392 704.6953 328.9392 Q703.2891 328.9392 702.4014 328.0046 Q701.5137 327.07 701.5137 325.5818 Q701.5137 324.1345 702.2959 323.2087 Q703.0781 322.2829 704.2969 322.2829 Q705.4512 322.2829 706.0811 323.1032 Q706.7109 323.9236 706.7109 325.4353 L706.7051 325.7927 L702.6914 325.7927 Q702.9434 328.0603 704.9121 328.0603 Q705.6328 328.0603 706.6816 327.6736 ZM702.7441 324.9255 L705.5508 324.9255 Q705.5508 323.1501 704.2266 323.1501 Q702.8965 323.1501 702.7441 324.9255 ZM708.7031 328.7927 L708.7031 322.4294 L709.8574 322.4294 L709.8574 323.6247 Q710.543 322.2888 711.8496 322.2888 Q712.0254 322.2888 712.2188 322.3181 L712.2188 323.3962 Q711.9199 323.2966 711.6914 323.2966 Q710.5957 323.2966 709.8574 324.5974 L709.8574 328.7927 ZM715.5234 328.9392 Q714.6445 328.9392 714.1523 328.4353 Q713.6602 327.9314 713.6602 327.0349 L713.6602 323.2966 L712.8633 323.2966 L712.8633 322.4294 L713.6602 322.4294 L713.6602 321.2751 L714.8145 321.1638 L714.8145 322.4294 L716.4785 322.4294 L716.4785 323.2966 L714.8145 323.2966 L714.8145 326.8239 Q714.8145 328.072 715.8926 328.072 Q716.1211 328.072 716.4492 327.9958 L716.4492 328.7927 Q715.916 328.9392 715.5234 328.9392 ZM718.1016 328.7927 L718.1016 322.4294 L719.2559 322.4294 L719.2559 328.7927 ZM718.1016 321.2751 L718.1016 320.1208 L719.2559 320.1208 L719.2559 321.2751 ZM722.9473 323.2966 L722.9473 328.7927 L721.7871 328.7927 L721.7871 323.2966 L720.8848 323.2966 L720.8848 322.4294 L721.7871 322.4294 L721.7871 321.6677 Q721.7871 319.3943 723.8613 319.3943 Q724.4414 319.3943 725.1797 319.5876 L725.1797 320.5017 Q724.4004 320.2614 723.9316 320.2614 Q723.3633 320.2614 723.1553 320.5339 Q722.9473 320.8064 722.9473 321.5446 L722.9473 322.4294 L724.5352 322.4294 L724.5352 323.2966 ZM725.9824 328.7927 L725.9824 322.4294 L727.1367 322.4294 L727.1367 328.7927 ZM725.9824 321.2751 L725.9824 320.1208 L727.1367 320.1208 L727.1367 321.2751 ZM734.1152 328.5876 Q732.9551 328.9392 732.1289 328.9392 Q730.7227 328.9392 729.835 328.0046 Q728.9473 327.07 728.9473 325.5818 Q728.9473 324.1345 729.7295 323.2087 Q730.5117 322.2829 731.7305 322.2829 Q732.8848 322.2829 733.5146 323.1032 Q734.1445 323.9236 734.1445 325.4353 L734.1387 325.7927 L730.125 325.7927 Q730.377 328.0603 732.3457 328.0603 Q733.0664 328.0603 734.1152 327.6736 ZM730.1777 324.9255 L732.9844 324.9255 Q732.9844 323.1501 731.6602 323.1501 Q730.3301 323.1501 730.1777 324.9255 ZM740.2207 328.7927 L740.2207 327.5974 Q739.5176 328.9392 738.0996 328.9392 Q736.9512 328.9392 736.292 328.1013 Q735.6328 327.2634 735.6328 325.8103 Q735.6328 324.2224 736.3799 323.2556 Q737.127 322.2888 738.3457 322.2888 Q739.4766 322.2888 740.2207 323.156 L740.2207 319.5407 L741.3809 319.5407 L741.3809 328.7927 ZM740.2207 323.947 Q739.3242 323.156 738.5215 323.156 Q736.8633 323.156 736.8633 325.6931 Q736.8633 327.9255 738.3398 327.9255 Q739.3008 327.9255 740.2207 326.8767 ZM751.8457 325.4763 L750.3691 321.738 L748.8867 325.4763 ZM753.1465 328.7927 L752.2031 326.3904 L748.5293 326.3904 L747.5742 328.7927 L746.4316 328.7927 L749.8711 320.1208 L751.0898 320.1208 L754.4766 328.7927 ZM755.7656 331.1071 L755.7656 322.4294 L756.9199 322.4294 L756.9199 323.6247 Q757.6289 322.2888 759.0469 322.2888 Q760.1953 322.2888 760.8545 323.1267 Q761.5137 323.9646 761.5137 325.4177 Q761.5137 326.9997 760.7666 327.9695 Q760.0195 328.9392 758.8008 328.9392 Q757.6699 328.9392 756.9199 328.072 L756.9199 331.1071 ZM756.9199 327.2751 Q757.8105 328.072 758.6191 328.072 Q760.2832 328.072 760.2832 325.5349 Q760.2832 323.2966 758.8066 323.2966 Q757.8398 323.2966 756.9199 324.3454 ZM763.3184 331.1071 L763.3184 322.4294 L764.4727 322.4294 L764.4727 323.6247 Q765.1816 322.2888 766.5996 322.2888 Q767.748 322.2888 768.4072 323.1267 Q769.0664 323.9646 769.0664 325.4177 Q769.0664 326.9997 768.3193 327.9695 Q767.5723 328.9392 766.3535 328.9392 Q765.2227 328.9392 764.4727 328.072 L764.4727 331.1071 ZM764.4727 327.2751 Q765.3633 328.072 766.1719 328.072 Q767.8359 328.072 767.8359 325.5349 Q767.8359 323.2966 766.3594 323.2966 Q765.3926 323.2966 764.4727 324.3454 ZM776.0449 323.2966 L776.0449 328.7927 L774.8848 328.7927 L774.8848 323.2966 L773.9824 323.2966 L773.9824 322.4294 L774.8848 322.4294 L774.8848 321.6677 Q774.8848 319.3943 776.959 319.3943 Q777.5391 319.3943 778.2773 319.5876 L778.2773 320.5017 Q777.498 320.2614 777.0293 320.2614 Q776.4609 320.2614 776.2529 320.5339 Q776.0449 320.8064 776.0449 321.5446 L776.0449 322.4294 L777.6328 322.4294 L777.6328 323.2966 ZM781.5703 328.9392 Q780.2051 328.9392 779.3906 328.0339 Q778.5762 327.1286 778.5762 325.6111 Q778.5762 324.0759 779.3936 323.1823 Q780.2109 322.2888 781.6113 322.2888 Q783.0117 322.2888 783.8291 323.1823 Q784.6465 324.0759 784.6465 325.5993 Q784.6465 327.1579 783.8262 328.0486 Q783.0059 328.9392 781.5703 328.9392 ZM781.5879 328.072 Q783.4219 328.072 783.4219 325.5993 Q783.4219 323.156 781.6113 323.156 Q779.8066 323.156 779.8066 325.6111 Q779.8066 328.072 781.5879 328.072 ZM786.4512 328.7927 L786.4512 322.4294 L787.6055 322.4294 L787.6055 323.6247 Q788.291 322.2888 789.5977 322.2888 Q789.7734 322.2888 789.9668 322.3181 L789.9668 323.3962 Q789.668 323.2966 789.4395 323.2966 Q788.3438 323.2966 787.6055 324.5974 L787.6055 328.7927 ZM795.1582 328.7927 L795.1582 319.5407 L796.3125 319.5407 L796.3125 323.6247 Q797.2266 322.2888 798.5508 322.2888 Q799.377 322.2888 799.8691 322.8132 Q800.3613 323.3376 800.3613 324.2224 L800.3613 328.7927 L799.207 328.7927 L799.207 324.5974 Q799.207 323.8884 798.999 323.5866 Q798.791 323.2849 798.3105 323.2849 Q797.25 323.2849 796.3125 324.6736 L796.3125 328.7927 ZM805.0957 328.9392 Q803.7305 328.9392 802.916 328.0339 Q802.1016 327.1286 802.1016 325.6111 Q802.1016 324.0759 802.9189 323.1823 Q803.7363 322.2888 805.1367 322.2888 Q806.5371 322.2888 807.3545 323.1823 Q808.1719 324.0759 808.1719 325.5993 Q808.1719 327.1579 807.3516 328.0486 Q806.5312 328.9392 805.0957 328.9392 ZM805.1133 328.072 Q806.9473 328.072 806.9473 325.5993 Q806.9473 323.156 805.1367 323.156 Q803.332 323.156 803.332 325.6111 Q803.332 328.072 805.1133 328.072 ZM809.9766 328.7927 L809.9766 319.5407 L811.1309 319.5407 L811.1309 328.7927 ZM817.5293 328.7927 L817.5293 327.5974 Q816.8262 328.9392 815.4082 328.9392 Q814.2598 328.9392 813.6006 328.1013 Q812.9414 327.2634 812.9414 325.8103 Q812.9414 324.2224 813.6885 323.2556 Q814.4355 322.2888 815.6543 322.2888 Q816.7852 322.2888 817.5293 323.156 L817.5293 319.5407 L818.6895 319.5407 L818.6895 328.7927 ZM817.5293 323.947 Q816.6328 323.156 815.8301 323.156 Q814.1719 323.156 814.1719 325.6931 Q814.1719 327.9255 815.6484 327.9255 Q816.6094 327.9255 817.5293 326.8767 ZM825.6621 328.5876 Q824.502 328.9392 823.6758 328.9392 Q822.2695 328.9392 821.3818 328.0046 Q820.4941 327.07 820.4941 325.5818 Q820.4941 324.1345 821.2764 323.2087 Q822.0586 322.2829 823.2773 322.2829 Q824.4316 322.2829 825.0615 323.1032 Q825.6914 323.9236 825.6914 325.4353 L825.6855 325.7927 L821.6719 325.7927 Q821.9238 328.0603 823.8926 328.0603 Q824.6133 328.0603 825.6621 327.6736 ZM821.7246 324.9255 L824.5312 324.9255 Q824.5312 323.1501 823.207 323.1501 Q821.877 323.1501 821.7246 324.9255 ZM827.6836 328.7927 L827.6836 322.4294 L828.8379 322.4294 L828.8379 323.6247 Q829.5234 322.2888 830.8301 322.2888 Q831.0059 322.2888 831.1992 322.3181 L831.1992 323.3962 Q830.9004 323.2966 830.6719 323.2966 Q829.5762 323.2966 828.8379 324.5974 L828.8379 328.7927 Z" clip-path="url(#clipPath4)" stroke="none"/>
    </g>
    <g fill="url(#linearGradient1)" text-rendering="geometricPrecision" shape-rendering="geometricPrecision" transform="matrix(1,0,0,1,-310,100)" stroke="url(#linearGradient1)">
      <path d="M721.365 291.9219 L808.5 291.9219 L802.635 314.9219 L715.5 314.9219 Z" stroke="none" clip-path="url(#clipPath2)"/>
    </g>
    <g text-rendering="geometricPrecision" stroke-miterlimit="1.45" shape-rendering="geometricPrecision" transform="matrix(1,0,0,1,-310,100)" stroke-linecap="butt">
      <path fill="none" d="M721.365 291.9219 L808.5 291.9219 L802.635 314.9219 L715.5 314.9219 Z" clip-path="url(#clipPath2)"/>
      <text x="722.8301" xml:space="preserve" y="307.957" clip-path="url(#clipPath2)" font-family="sans-serif" stroke="none">Master Secret</text>
    </g>
    <g fill="rgb(67,141,213)" text-rendering="geometricPrecision" shape-rendering="geometricPrecision" transform="matrix(1,0,0,1,-310,100)" stroke="rgb(67,141,213)">
      <rect x="1030.5" width="190" height="121.0269" y="45.1189" clip-path="url(#clipPath2)" stroke="none"/>
    </g>
    <g stroke-linecap="butt" transform="matrix(1,0,0,1,-310,100)" fill="rgb(60,127,192)" text-rendering="geometricPrecision" shape-rendering="geometricPrecision" stroke="rgb(60,127,192)" stroke-miterlimit="1.45">
      <rect fill="none" x="1030.5" width="190" height="121.0269" y="45.1189" clip-path="url(#clipPath2)"/>
    </g>
    <g fill="white" text-rendering="geometricPrecision" shape-rendering="geometricPrecision" transform="matrix(1,0,0,1,-310,100)" stroke="white">
      <path d="M1068.7173 95.6541 L1068.7173 86.9246 L1065.0942 86.9246 L1065.0942 85.5369 L1074.4526 85.5369 L1074.4526 86.9246 L1070.8296 86.9246 L1070.8296 95.6541 ZM1075.8677 95.6541 L1075.8677 88.1482 L1077.8911 88.1482 L1077.8911 89.5633 Q1078.6772 87.9773 1080.2837 87.9773 Q1080.4751 87.9773 1080.6597 88.0184 L1080.6597 89.823 Q1080.229 89.6658 1079.8599 89.6658 Q1078.6499 89.6658 1077.8911 90.8895 L1077.8911 95.6541 ZM1086.8735 95.6541 L1086.8735 94.2391 Q1085.8892 95.825 1084.3169 95.825 Q1083.312 95.825 1082.731 95.1893 Q1082.1499 94.5535 1082.1499 93.4529 L1082.1499 88.1482 L1084.1733 88.1482 L1084.1733 92.9539 Q1084.1733 94.2322 1085.0278 94.2322 Q1085.9849 94.2322 1086.8735 92.8719 L1086.8735 88.1482 L1088.897 88.1482 L1088.897 95.6541 ZM1091.228 95.4148 L1091.228 93.9314 Q1092.7319 94.5603 1093.7983 94.5603 Q1095.0425 94.5603 1095.0425 93.7127 Q1095.0425 93.1658 1094.0171 92.7557 L1093.3335 92.4822 Q1092.2192 92.0311 1091.7407 91.5115 Q1091.2622 90.992 1091.2622 90.2264 Q1091.2622 89.16 1092.0757 88.5686 Q1092.8892 87.9773 1094.3521 87.9773 Q1095.2681 87.9773 1096.5327 88.2439 L1096.5327 89.6658 Q1095.3159 89.242 1094.5161 89.242 Q1093.2583 89.242 1093.2583 90.0213 Q1093.2583 90.534 1094.188 90.8895 L1094.7759 91.115 Q1096.0952 91.6141 1096.6113 92.1268 Q1097.1274 92.6395 1097.1274 93.4461 Q1097.1274 94.5057 1096.249 95.1653 Q1095.3706 95.825 1093.9624 95.825 Q1092.6089 95.825 1091.228 95.4148 ZM1103.2114 95.6131 Q1102.4868 95.825 1102.0698 95.825 Q1099.438 95.825 1099.438 93.3641 L1099.438 89.4129 L1098.5972 89.4129 L1098.5972 88.1482 L1099.438 88.1482 L1099.438 86.8836 L1101.4614 86.6512 L1101.4614 88.1482 L1103.0679 88.1482 L1103.0679 89.4129 L1101.4614 89.4129 L1101.4614 93.0975 Q1101.4614 94.4783 1102.5894 94.4783 Q1102.8491 94.4783 1103.2114 94.3826 ZM1109.6304 95.6541 L1109.6304 85.5369 L1113.4175 85.5369 Q1116.5005 85.5369 1116.5005 88.0457 Q1116.5005 88.9822 1115.9775 89.7513 Q1115.4546 90.5203 1114.5386 90.9305 L1117.8472 95.6541 L1115.2837 95.6541 L1112.7749 91.5184 L1111.6128 91.5184 L1111.6128 95.6541 ZM1111.6128 90.1307 L1112.0981 90.1307 Q1114.3882 90.1307 1114.3882 88.2781 Q1114.3882 86.9246 1112.3442 86.9246 L1111.6128 86.9246 ZM1125.4009 95.4012 Q1123.9585 95.825 1122.6665 95.825 Q1120.7866 95.825 1119.6997 94.7586 Q1118.6128 93.6922 1118.6128 91.8465 Q1118.6128 90.1033 1119.6074 89.0403 Q1120.6021 87.9773 1122.2358 87.9773 Q1123.8833 87.9773 1124.6421 89.0164 Q1125.4009 90.0555 1125.4009 92.3045 L1120.7456 92.3045 Q1120.9507 94.451 1123.104 94.451 Q1124.1226 94.451 1125.4009 93.9793 ZM1120.7183 91.1629 L1123.4116 91.1629 Q1123.4116 89.242 1122.1743 89.242 Q1120.9165 89.242 1120.7183 91.1629 ZM1127.4927 98.3543 L1127.4927 88.1482 L1129.5161 88.1482 L1129.5161 89.5633 Q1130.2954 87.9773 1131.9702 87.9773 Q1133.3237 87.9773 1134.0996 88.9686 Q1134.8755 89.9598 1134.8755 91.6961 Q1134.8755 93.5828 1134.0005 94.7039 Q1133.1255 95.825 1131.6558 95.825 Q1130.4731 95.825 1129.5161 94.8953 L1129.5161 98.3543 ZM1129.5161 93.6922 Q1130.2544 94.5125 1131.0884 94.5125 Q1131.8335 94.5125 1132.2778 93.7913 Q1132.7222 93.0701 1132.7222 91.867 Q1132.7222 89.5633 1131.2388 89.5633 Q1130.3433 89.5633 1129.5161 90.7186 ZM1139.9204 95.825 Q1138.1636 95.825 1137.1279 94.762 Q1136.0923 93.699 1136.0923 91.9012 Q1136.0923 90.0828 1137.1348 89.0301 Q1138.1772 87.9773 1139.9683 87.9773 Q1141.7661 87.9773 1142.8086 89.0301 Q1143.8511 90.0828 1143.8511 91.8875 Q1143.8511 93.7332 1142.8052 94.7791 Q1141.7593 95.825 1139.9204 95.825 ZM1139.9546 94.5603 Q1141.6978 94.5603 1141.6978 91.8875 Q1141.6978 90.6639 1141.2363 89.9529 Q1140.7749 89.242 1139.9683 89.242 Q1139.1685 89.242 1138.707 89.9529 Q1138.2456 90.6639 1138.2456 91.9012 Q1138.2456 93.1248 1138.7036 93.8426 Q1139.1616 94.5603 1139.9546 94.5603 ZM1145.5122 95.4148 L1145.5122 93.9314 Q1147.0161 94.5603 1148.0825 94.5603 Q1149.3267 94.5603 1149.3267 93.7127 Q1149.3267 93.1658 1148.3013 92.7557 L1147.6177 92.4822 Q1146.5034 92.0311 1146.0249 91.5115 Q1145.5464 90.992 1145.5464 90.2264 Q1145.5464 89.16 1146.3599 88.5686 Q1147.1733 87.9773 1148.6362 87.9773 Q1149.5522 87.9773 1150.8169 88.2439 L1150.8169 89.6658 Q1149.6001 89.242 1148.8003 89.242 Q1147.5425 89.242 1147.5425 90.0213 Q1147.5425 90.534 1148.4722 90.8895 L1149.0601 91.115 Q1150.3794 91.6141 1150.8955 92.1268 Q1151.4116 92.6395 1151.4116 93.4461 Q1151.4116 94.5057 1150.5332 95.1653 Q1149.6548 95.825 1148.2466 95.825 Q1146.8931 95.825 1145.5122 95.4148 ZM1153.6265 95.6541 L1153.6265 88.1482 L1155.6499 88.1482 L1155.6499 95.6541 ZM1153.6265 86.8836 L1153.6265 85.1951 L1155.6499 85.1951 L1155.6499 86.8836 ZM1162.0483 95.6131 Q1161.3237 95.825 1160.9067 95.825 Q1158.2749 95.825 1158.2749 93.3641 L1158.2749 89.4129 L1157.4341 89.4129 L1157.4341 88.1482 L1158.2749 88.1482 L1158.2749 86.8836 L1160.2983 86.6512 L1160.2983 88.1482 L1161.9048 88.1482 L1161.9048 89.4129 L1160.2983 89.4129 L1160.2983 93.0975 Q1160.2983 94.4783 1161.4263 94.4783 Q1161.686 94.4783 1162.0483 94.3826 ZM1167.0044 95.825 Q1165.2476 95.825 1164.2119 94.762 Q1163.1763 93.699 1163.1763 91.9012 Q1163.1763 90.0828 1164.2188 89.0301 Q1165.2612 87.9773 1167.0522 87.9773 Q1168.8501 87.9773 1169.8926 89.0301 Q1170.9351 90.0828 1170.9351 91.8875 Q1170.9351 93.7332 1169.8892 94.7791 Q1168.8433 95.825 1167.0044 95.825 ZM1167.0386 94.5603 Q1168.7817 94.5603 1168.7817 91.8875 Q1168.7817 90.6639 1168.3203 89.9529 Q1167.8589 89.242 1167.0522 89.242 Q1166.2524 89.242 1165.791 89.9529 Q1165.3296 90.6639 1165.3296 91.9012 Q1165.3296 93.1248 1165.7876 93.8426 Q1166.2456 94.5603 1167.0386 94.5603 ZM1172.7944 95.6541 L1172.7944 88.1482 L1174.8179 88.1482 L1174.8179 89.5633 Q1175.604 87.9773 1177.2104 87.9773 Q1177.4019 87.9773 1177.5864 88.0184 L1177.5864 89.823 Q1177.1558 89.6658 1176.7866 89.6658 Q1175.5767 89.6658 1174.8179 90.8895 L1174.8179 95.6541 ZM1179.186 98.3543 L1180.8882 95.6541 L1178.106 88.1482 L1180.2798 88.1482 L1182.1392 93.1658 L1184.3472 88.1482 L1185.8853 88.1482 L1181.2505 98.3543 Z" stroke="none" clip-path="url(#clipPath5)"/>
      <text stroke-linecap="butt" x="1075.4023" y="73.7205" clip-path="url(#clipPath2)" font-family="sans-serif" stroke="none" stroke-miterlimit="1.45" xml:space="preserve">&lt;&lt;Blockchain&gt;&gt;</text>
    </g>
    <g fill="url(#linearGradient2)" text-rendering="geometricPrecision" shape-rendering="geometricPrecision" transform="matrix(1,0,0,1,-310,100)" stroke="url(#linearGradient2)">
      <path d="M1066.7653 103.2169 L1193.0997 103.2169 L1187.2347 126.2169 L1060.9003 126.2169 Z" stroke="none" clip-path="url(#clipPath2)"/>
    </g>
    <g text-rendering="geometricPrecision" stroke-miterlimit="1.45" shape-rendering="geometricPrecision" transform="matrix(1,0,0,1,-310,100)" stroke-linecap="butt">
      <path fill="none" d="M1066.7653 103.2169 L1193.0997 103.2169 L1187.2347 126.2169 L1060.9003 126.2169 Z" clip-path="url(#clipPath2)"/>
      <text x="1074.8955" xml:space="preserve" y="119.252" clip-path="url(#clipPath2)" font-family="sans-serif" stroke="none">CredentialSchema</text>
    </g>
    <g text-rendering="geometricPrecision" shape-rendering="geometricPrecision" transform="matrix(1,0,0,1.0794,423.7205,101.9039)">
      <g clip-path="url(#clipPath6)">
        <svg xml:space="preserve" opacity="1" writing-mode="lr-tb" stop-color="rgb(0, 0, 0)" shape-rendering="auto" glyph-orientation-horizontal="0deg" color-profile="auto" lighting-color="rgb(255, 255, 255)" color="rgb(0, 0, 0)" font-weight="400" alignment-baseline="auto" font-style="normal" version="1.1" color-interpolation-filters="linearrgb" text-anchor="start" stroke-linecap="butt" color-interpolation="srgb" font-variant="normal" word-spacing="normal" fill-opacity="1" text-rendering="auto" clip-path="none" text-decoration="none" letter-spacing="normal" viewBox="0 0 57 66" glyph-orientation-vertical="auto" display="inline" font-size-adjust="none" overflow="hidden" fill="rgb(0, 0, 0)" font-stretch="normal" stroke-dasharray="none" id="svg1.Ebene_1" stroke-miterlimit="4" stop-opacity="1" color-rendering="auto" font-size="12" pointer-events="visiblepainted" mask="none" direction="ltr" baseline-shift="baseline" enable-background="new 0 0 57 66" fill-rule="nonzero" image-rendering="auto" stroke-dashoffset="0" width="57px" marker-end="none" clip="auto" cursor="auto" stroke="none" filter="none" visibility="visible" kerning="auto" stroke-width="1" font-family="&quot;Arial&quot;,&quot;Helvetica&quot;,sans-serif" flood-opacity="1" clip-rule="nonzero" src="none" height="66px" unicode-bidi="normal" stroke-linejoin="miter" stroke-opacity="1" flood-color="rgb(0, 0, 0)" dominant-baseline="auto" marker-start="none" x="0px" marker-mid="none" y="0px">
<g>
	
		<linearGradient gradientTransform="matrix(1 0 0 -1 0.2803 -2252.9199)" x1="26.3799" x2="27.6209" gradientUnits="userSpaceOnUse" y1="-2276.8809" y2="-2306.6792" id="svg1.SVGID_1_">
		<stop offset="0.2711" style="stop-color:#FFAB4F"/>
		<stop offset="1" style="stop-color:#FFD28F"/>
	</linearGradient>
	<path fill="url(#svg1.SVGID_1_)" d="M49.529,51.225c-4.396-4.396-10.951-5.884-12.063-6.109   V37.8H19.278c0,0,0.038,6.903,0,6.868c0,0-6.874,0.997-12.308,6.432C1.378,56.691,0.5,62.77,0.5,62.77   c0,1.938,1.575,3.492,3.523,3.492h48.51c1.947,0,3.521-1.558,3.521-3.492C56.055,62.768,54.211,55.906,49.529,51.225z" stroke-miterlimit="10" stroke="#ED9135"/>
	<path fill="#ECECEC" id="svg1.body_13_" d="M0.5,62.768c0,1.938,1.575,3.494,3.523,3.494h48.51   c1.947,0,3.521-1.559,3.521-3.494c0,0-1.844-6.861-6.525-11.543c-4.815-4.813-11.244-6.146-11.244-6.146   c-1.771,1.655-5.61,3.802-10.063,3.802c-4.453,0-8.292-2.146-10.063-3.802c0,0-5.755,0.586-11.189,6.021   C1.378,56.689,0.5,62.768,0.5,62.768z" stroke-miterlimit="10" stroke="#9B9B9B"/>
	<path fill="#2068A3" d="M28.106,33.487c-8.112,0-12.688,4.312-12.688,10.437c0,7.422,12.688,10.438,12.688,10.438   s14.688-3.016,14.688-10.438C42.793,38.75,36.215,33.487,28.106,33.487z M26.288,53.051c0,0-7.135-2.093-8.805-7.201   c-0.222-0.682,0.147-1.156,0.795-1.521V37.8h20.188v6.663c0.235,0.352,1.109,0.737,1.229,1.387   C40.445,49.917,26.288,53.051,26.288,53.051z" stroke="#2068A3"/>
	
		<radialGradient gradientTransform="matrix(1 0 0 -1 0.04 65.1543)" id="svg1.SVGID_2_" r="53.247" cx="14.2417" gradientUnits="userSpaceOnUse" cy="9.1006">
		<stop offset="0" style="stop-color:#74AEEE"/>
		<stop offset="1" style="stop-color:#2068A3"/>
	</radialGradient>
	<path fill="url(#svg1.SVGID_2_)" d="M49.529,51.225c-2.239-2.24-5.041-3.724-7.396-4.67   c-2.854,5.51-14.022,7.807-14.022,7.807s-10.472-2.484-12.387-8.514c-2.439,0.771-5.787,2.287-8.749,5.25   c-5.592,5.592-6.47,11.67-6.47,11.67c0,1.938,1.575,3.492,3.523,3.492h48.51c1.947,0,3.521-1.558,3.521-3.492   C56.055,62.768,54.211,55.906,49.529,51.225z" stroke-miterlimit="10" stroke="#2068A3"/>
	<path fill="#5491CF" d="M13.404,44.173c1.15-1.81,2.039-3.832,3.332-5.397c-0.514,1.027-1.669,4.084-1.669,5.148   c0,5.186,10.366,9.079,14.688,10.438c-3.472,1.627-9.134-1.498-11.335-2.36c-3.601-1.419-4.071-3.063-5.89-4.854   C12.523,47.135,12.878,45,13.404,44.173z" stroke="#2068A3"/>
	<path fill="#5491CF" d="M45.777,43.924c-1.317-1.568-5.11-9.424-6.604-6.617c0.516,1.025,3.617,3.693,3.617,6.617   c0,5.186-10.27,8.576-16.698,9.145c1.429,4.938,11.372,1.293,13.804-0.313c3.563-2.354,4.563-5.133,7.854-3.705   C47.754,49.045,48.006,46.574,45.777,43.924z" stroke="#2068A3"/>
	<path fill="none" d="M30.777,54.167c0.357,0.836-0.153,1.983-0.352,2.813   c-0.256,1.084-0.072,2.104,0.102,3.186c0.164,1.02,0.156,2.107,0.25,3.167c0.082,0.916,0.482,1.849,0.357,2.75" stroke="#2068A3" stroke-linecap="round"/>
	<path fill="none" d="M23.695,53.417c-0.508,0.584-0.476,2.209-0.398,3   c0.116,1.183,0.456,2.099,0.333,3.333c-0.192,1.943,0.154,4.479-0.436,6.333" stroke="#2068A3" stroke-linecap="round"/>
	
		<radialGradient gradientTransform="matrix(1 0 0 -1 0.2803 -2252.9199)" gradientUnits="userSpaceOnUse" r="23.425" cx="27.623" id="svg1.face_x5F_white_1_" cy="-2278.646" fx="23.0534" fy="-2281.1357">
		<stop offset="0" style="stop-color:#FFD28F"/>
		<stop offset="1" style="stop-color:#FFAB4F"/>
	</radialGradient>
	<path fill="url(#svg1.face_x5F_white_1_)" id="svg1.face_x5F_white_3_" d="M43.676,23.357   c0.086,10.2-6.738,18.52-15.25,18.586c-8.5,0.068-15.464-8.146-15.55-18.344C12.794,13.4,19.618,5.079,28.123,5.012   C36.627,4.945,43.59,13.158,43.676,23.357z" stroke-miterlimit="10" stroke="#ED9135"/>
	
		<linearGradient gradientTransform="matrix(0.275 0 0 0.2733 -1558.9874 -3088.4209)" x1="5761.7578" x2="5785.3872" gradientUnits="userSpaceOnUse" y1="11330.6484" y2="11424.0977" id="svg1.face_highlight_1_">
		<stop offset="0" style="stop-color:#FFFFFF;stop-opacity:0.24"/>
		<stop offset="1" style="stop-color:#FFFFFF;stop-opacity:0.16"/>
	</linearGradient>
	<path fill="url(#svg1.face_highlight_1_)" id="svg1.face_highlight_3_" d="M27.958,6.333c-6.035,0.047-10.747,4.493-12.787,10.386   c-0.664,1.919-0.294,4.043,0.98,5.629c2.73,3.398,5.729,6.283,9.461,8.088c3.137,1.518,7.535,2.385,11.893,1.247   c2.274-0.592,3.988-2.459,4.375-4.766c0.187-1.094,0.293-2.289,0.283-3.553C42.083,13.952,36.271,6.268,27.958,6.333z"/>
	<path fill="#CC9869" d="M20.278,13.25   c3.417,4.333,9.333,6.917,9.333,6.917l-1.417-3.5c0,0,7.094,4.691,8.083,4.333c0.968-0.2-1.082-3.807-1.082-3.807   s3.138,1.795,4.854,3.969c1.803,2.28,4.285,3.504,4.285,3.504S47.027,2.719,27.289,2.744C8.278,2.709,12.058,27.678,12.058,27.678   L14.695,17c0,0,0.914,5.757,1.399,4.875C17.861,15.211,18.861,11.5,20.278,13.25z" id="svg1.Hair_Young_Brown_1_" stroke="#99724F" stroke-linecap="round" stroke-linejoin="round"/>
	<path fill="#4B4B4B" d="M28.105,2   C22.464,2,20.2,4.246,18.13,5.533C29.753,2.865,41.152,10.375,44.46,20.5C44.459,16.875,44.459,2,28.105,2z" stroke-miterlimit="10" stroke="#4B4B4B" stroke-linecap="round" stroke-linejoin="round"/>
	<path fill="#9B9B9B" d="M11.151,17.751   C12.878,8.25,18.686,6.309,25.273,7.127C31.295,7.875,36.93,10.491,44.459,20.5C37.777,7.125,20.278-3.375,9.903,3.921   C5.569,6.97,4.903,13.375,11.151,17.751z" stroke-miterlimit="10" stroke="#4B4B4B" stroke-linecap="round" stroke-linejoin="round"/>
</g>
</svg>
      </g>
    </g>
    <g text-rendering="geometricPrecision" stroke-miterlimit="1.45" shape-rendering="geometricPrecision" font-family="sans-serif" transform="matrix(1,0,0,1,-310,100)" stroke-linecap="butt">
      <text x="742.5967" xml:space="preserve" y="-5.5225" clip-path="url(#clipPath2)" stroke="none">Holder</text>
    </g>
    <g fill="rgb(67,141,213)" text-rendering="geometricPrecision" shape-rendering="geometricPrecision" transform="matrix(1,0,0,1,-310,100)" stroke="rgb(67,141,213)">
      <rect x="1032" width="190" height="114" y="229.3239" clip-path="url(#clipPath2)" stroke="none"/>
    </g>
    <g stroke-linecap="butt" transform="matrix(1,0,0,1,-310,100)" fill="rgb(60,127,192)" text-rendering="geometricPrecision" shape-rendering="geometricPrecision" stroke="rgb(60,127,192)" stroke-miterlimit="1.45">
      <rect fill="none" x="1032" width="190" height="114" y="229.3239" clip-path="url(#clipPath2)"/>
    </g>
    <g fill="white" text-rendering="geometricPrecision" shape-rendering="geometricPrecision" transform="matrix(1,0,0,1,-310,100)" stroke="white">
      <path d="M1103.9971 279.8591 L1100.2578 269.7419 L1102.5068 269.7419 L1105.4053 277.5691 L1108.208 269.7419 L1109.7256 269.7419 L1106.1094 279.8591 ZM1117.2451 279.6062 Q1115.8027 280.03 1114.5107 280.03 Q1112.6309 280.03 1111.5439 278.9636 Q1110.457 277.8972 1110.457 276.0515 Q1110.457 274.3083 1111.4517 273.2453 Q1112.4463 272.1823 1114.0801 272.1823 Q1115.7275 272.1823 1116.4863 273.2214 Q1117.2451 274.2605 1117.2451 276.5095 L1112.5898 276.5095 Q1112.7949 278.656 1114.9482 278.656 Q1115.9668 278.656 1117.2451 278.1843 ZM1112.5625 275.3679 L1115.2559 275.3679 Q1115.2559 273.447 1114.0186 273.447 Q1112.7607 273.447 1112.5625 275.3679 ZM1119.3369 279.8591 L1119.3369 272.3532 L1121.3604 272.3532 L1121.3604 273.7683 Q1122.1465 272.1823 1123.7529 272.1823 Q1123.9443 272.1823 1124.1289 272.2234 L1124.1289 274.028 Q1123.6982 273.8708 1123.3291 273.8708 Q1122.1191 273.8708 1121.3604 275.0945 L1121.3604 279.8591 ZM1125.7012 279.8591 L1125.7012 272.3532 L1127.7246 272.3532 L1127.7246 279.8591 ZM1125.7012 271.0886 L1125.7012 269.4001 L1127.7246 269.4001 L1127.7246 271.0886 ZM1130.4658 279.8591 L1130.4658 273.6179 L1129.4336 273.6179 L1129.4336 272.3532 L1130.4658 272.3532 L1130.4658 271.8132 Q1130.4658 268.8943 1133.2344 268.8943 Q1134.1299 268.8943 1135.0801 269.154 L1135.0801 270.5212 Q1134.2188 270.1589 1133.5352 270.1589 Q1132.4893 270.1589 1132.4893 271.738 L1132.4893 272.3532 L1134.3896 272.3532 L1134.3896 273.6179 L1132.4893 273.6179 L1132.4893 279.8591 ZM1136.0576 279.8591 L1136.0576 272.3532 L1138.0811 272.3532 L1138.0811 279.8591 ZM1136.0576 271.0886 L1136.0576 269.4001 L1138.0811 269.4001 L1138.0811 271.0886 ZM1146.7217 279.6062 Q1145.2793 280.03 1143.9873 280.03 Q1142.1074 280.03 1141.0205 278.9636 Q1139.9336 277.8972 1139.9336 276.0515 Q1139.9336 274.3083 1140.9282 273.2453 Q1141.9229 272.1823 1143.5566 272.1823 Q1145.2041 272.1823 1145.9629 273.2214 Q1146.7217 274.2605 1146.7217 276.5095 L1142.0664 276.5095 Q1142.2715 278.656 1144.4248 278.656 Q1145.4434 278.656 1146.7217 278.1843 ZM1142.0391 275.3679 L1144.7324 275.3679 Q1144.7324 273.447 1143.4951 273.447 Q1142.2373 273.447 1142.0391 275.3679 ZM1148.8135 279.8591 L1148.8135 272.3532 L1150.8369 272.3532 L1150.8369 273.7683 Q1151.623 272.1823 1153.2295 272.1823 Q1153.4209 272.1823 1153.6055 272.2234 L1153.6055 274.028 Q1153.1748 273.8708 1152.8057 273.8708 Q1151.5957 273.8708 1150.8369 275.0945 L1150.8369 279.8591 Z" stroke="none" clip-path="url(#clipPath7)"/>
      <text stroke-linecap="butt" x="1076.5537" y="257.9255" clip-path="url(#clipPath2)" font-family="sans-serif" stroke="none" stroke-miterlimit="1.45" xml:space="preserve">&lt;&lt;API Service&gt;&gt;</text>
    </g>
    <g font-size="26px" stroke-linecap="butt" transform="matrix(1,0,0,1,-310,100)" text-rendering="geometricPrecision" font-family="sans-serif" shape-rendering="geometricPrecision" stroke-miterlimit="1.45">
      <text x="628.458" xml:space="preserve" y="-52.1343" clip-path="url(#clipPath2)" stroke="none">ZKP Simple Sequence</text>
    </g>
    <g fill="url(#linearGradient3)" text-rendering="geometricPrecision" shape-rendering="geometricPrecision" transform="matrix(1,0,0,1,-310,100)" stroke="url(#linearGradient3)">
      <path d="M1045.9512 289.0801 L1107.9512 289.0801 L1107.9512 309.9641 Q1092.4512 303.9973 1076.9512 309.9641 Q1061.4512 315.931 1045.9512 309.9641 Z" stroke="none" clip-path="url(#clipPath2)"/>
    </g>
    <g text-rendering="geometricPrecision" stroke-miterlimit="1.45" shape-rendering="geometricPrecision" transform="matrix(1,0,0,1,-310,100)" stroke-linecap="butt">
      <path fill="none" d="M1045.9512 289.0801 L1107.9512 289.0801 L1107.9512 309.9641 Q1092.4512 303.9973 1076.9512 309.9641 Q1061.4512 315.931 1045.9512 309.9641 Z" clip-path="url(#clipPath2)"/>
      <text x="1061.6025" xml:space="preserve" y="302.6816" clip-path="url(#clipPath2)" font-family="sans-serif" stroke="none">Proof</text>
    </g>
    <g fill="url(#linearGradient4)" text-rendering="geometricPrecision" shape-rendering="geometricPrecision" transform="matrix(1,0,0,1,-310,100)" stroke="url(#linearGradient4)">
      <path d="M1062.365 128.7307 L1197.5 128.7307 L1191.635 151.7307 L1056.5 151.7307 Z" stroke="none" clip-path="url(#clipPath2)"/>
    </g>
    <g text-rendering="geometricPrecision" stroke-miterlimit="1.45" shape-rendering="geometricPrecision" transform="matrix(1,0,0,1,-310,100)" stroke-linecap="butt">
      <path fill="none" d="M1062.365 128.7307 L1197.5 128.7307 L1191.635 151.7307 L1056.5 151.7307 Z" clip-path="url(#clipPath2)"/>
      <text x="1068.5586" xml:space="preserve" y="144.7659" clip-path="url(#clipPath2)" font-family="sans-serif" stroke="none">CredentialDefinition</text>
    </g>
    <g fill="url(#linearGradient5)" text-rendering="geometricPrecision" shape-rendering="geometricPrecision" transform="matrix(1,0,0,1,-310,100)" stroke="url(#linearGradient5)">
      <path d="M1124.3162 289.5138 L1211.4512 289.5138 L1205.5862 312.5138 L1118.4512 312.5138 Z" stroke="none" clip-path="url(#clipPath2)"/>
    </g>
    <g text-rendering="geometricPrecision" stroke-miterlimit="1.45" shape-rendering="geometricPrecision" transform="matrix(1,0,0,1,-310,100)" stroke-linecap="butt">
      <path fill="none" d="M1124.3162 289.5138 L1211.4512 289.5138 L1205.5862 312.5138 L1118.4512 312.5138 Z" clip-path="url(#clipPath2)"/>
      <text x="1142.665" xml:space="preserve" y="305.549" clip-path="url(#clipPath2)" font-family="sans-serif" stroke="none">Schema</text>
    </g>
    <g fill="url(#linearGradient6)" text-rendering="geometricPrecision" shape-rendering="geometricPrecision" transform="matrix(1,0,0,1,-310,100)" stroke="url(#linearGradient6)">
      <path d="M1069.3162 315.0276 L1204.4512 315.0276 L1198.5862 338.0276 L1063.4512 338.0276 Z" stroke="none" clip-path="url(#clipPath2)"/>
    </g>
    <g text-rendering="geometricPrecision" stroke-miterlimit="1.45" shape-rendering="geometricPrecision" transform="matrix(1,0,0,1,-310,100)" stroke-linecap="butt">
      <path fill="none" d="M1069.3162 315.0276 L1204.4512 315.0276 L1198.5862 338.0276 L1063.4512 338.0276 Z" clip-path="url(#clipPath2)"/>
      <text x="1075.5098" xml:space="preserve" y="331.0628" clip-path="url(#clipPath2)" font-family="sans-serif" stroke="none">CredentialDefinition</text>
    </g>
    <g fill="rgb(67,141,213)" text-rendering="geometricPrecision" shape-rendering="geometricPrecision" transform="matrix(1,0,0,1,-310,100)" stroke="rgb(67,141,213)">
      <rect x="325.5489" width="190" height="106" y="233.3239" clip-path="url(#clipPath2)" stroke="none"/>
    </g>
    <g stroke-linecap="butt" transform="matrix(1,0,0,1,-310,100)" fill="rgb(60,127,192)" text-rendering="geometricPrecision" shape-rendering="geometricPrecision" stroke="rgb(60,127,192)" stroke-miterlimit="1.45">
      <rect fill="none" x="325.5489" width="190" height="106" y="233.3239" clip-path="url(#clipPath2)"/>
    </g>
    <g fill="white" text-rendering="geometricPrecision" shape-rendering="geometricPrecision" transform="matrix(1,0,0,1,-310,100)" stroke="white">
      <path d="M399.6959 283.8591 L399.6959 273.7419 L401.8013 273.7419 L401.8013 283.8591 ZM404.1392 283.6198 L404.1392 282.1364 Q405.6431 282.7654 406.7095 282.7654 Q407.9537 282.7654 407.9537 281.9177 Q407.9537 281.3708 406.9283 280.9607 L406.2447 280.6872 Q405.1304 280.2361 404.6519 279.7165 Q404.1734 279.197 404.1734 278.4314 Q404.1734 277.365 404.9869 276.7737 Q405.8004 276.1823 407.2632 276.1823 Q408.1793 276.1823 409.4439 276.4489 L409.4439 277.8708 Q408.2271 277.447 407.4273 277.447 Q406.1695 277.447 406.1695 278.2263 Q406.1695 278.739 407.0992 279.0945 L407.6871 279.32 Q409.0064 279.8191 409.5225 280.3318 Q410.0386 280.8445 410.0386 281.6511 Q410.0386 282.7107 409.1602 283.3703 Q408.2818 284.03 406.8736 284.03 Q405.5201 284.03 404.1392 283.6198 ZM412.0552 283.6198 L412.0552 282.1364 Q413.5591 282.7654 414.6255 282.7654 Q415.8697 282.7654 415.8697 281.9177 Q415.8697 281.3708 414.8443 280.9607 L414.1607 280.6872 Q413.0464 280.2361 412.5679 279.7165 Q412.0894 279.197 412.0894 278.4314 Q412.0894 277.365 412.9029 276.7737 Q413.7164 276.1823 415.1793 276.1823 Q416.0953 276.1823 417.3599 276.4489 L417.3599 277.8708 Q416.1431 277.447 415.3433 277.447 Q414.0855 277.447 414.0855 278.2263 Q414.0855 278.739 415.0152 279.0945 L415.6031 279.32 Q416.9224 279.8191 417.4385 280.3318 Q417.9547 280.8445 417.9547 281.6511 Q417.9547 282.7107 417.0762 283.3703 Q416.1978 284.03 414.7896 284.03 Q413.4361 284.03 412.0552 283.6198 ZM424.8111 283.8591 L424.8111 282.4441 Q423.8267 284.03 422.2545 284.03 Q421.2496 284.03 420.6685 283.3943 Q420.0875 282.7585 420.0875 281.6579 L420.0875 276.3532 L422.1109 276.3532 L422.1109 281.1589 Q422.1109 282.4372 422.9654 282.4372 Q423.9224 282.4372 424.8111 281.0769 L424.8111 276.3532 L426.8345 276.3532 L426.8345 283.8591 ZM435.4752 283.6062 Q434.0328 284.03 432.7408 284.03 Q430.8609 284.03 429.774 282.9636 Q428.6871 281.8972 428.6871 280.0515 Q428.6871 278.3083 429.6817 277.2453 Q430.6763 276.1823 432.3101 276.1823 Q433.9576 276.1823 434.7164 277.2214 Q435.4752 278.2605 435.4752 280.5095 L430.8199 280.5095 Q431.025 282.656 433.1783 282.656 Q434.1968 282.656 435.4752 282.1843 ZM430.7925 279.3679 L433.4859 279.3679 Q433.4859 277.447 432.2486 277.447 Q430.9908 277.447 430.7925 279.3679 ZM437.567 283.8591 L437.567 276.3532 L439.5904 276.3532 L439.5904 277.7683 Q440.3765 276.1823 441.983 276.1823 Q442.1744 276.1823 442.3589 276.2234 L442.3589 278.028 Q441.9283 277.8708 441.5591 277.8708 Q440.3492 277.8708 439.5904 279.0945 L439.5904 283.8591 Z" stroke="none" clip-path="url(#clipPath8)"/>
      <text stroke-linecap="butt" x="370.1026" y="261.9255" clip-path="url(#clipPath2)" font-family="sans-serif" stroke="none" stroke-miterlimit="1.45" xml:space="preserve">&lt;&lt;API Service&gt;&gt;</text>
    </g>
    <g fill="url(#linearGradient7)" text-rendering="geometricPrecision" shape-rendering="geometricPrecision" transform="matrix(1,0,0,1,-310,100)" stroke="url(#linearGradient7)">
      <path d="M382.7173 297.4565 L458.3805 297.4565 L458.3805 318.3405 Q439.4647 312.3736 420.5489 318.3405 Q401.6331 324.3074 382.7173 318.3405 Z" stroke="none" clip-path="url(#clipPath2)"/>
    </g>
    <g text-rendering="geometricPrecision" stroke-miterlimit="1.45" shape-rendering="geometricPrecision" transform="matrix(1,0,0,1,-310,100)" stroke-linecap="butt">
      <path fill="none" d="M382.7173 297.4565 L458.3805 297.4565 L458.3805 318.3405 Q439.4647 312.3736 420.5489 318.3405 Q401.6331 324.3074 382.7173 318.3405 Z" clip-path="url(#clipPath2)"/>
      <text x="390.7305" xml:space="preserve" y="311.058" clip-path="url(#clipPath2)" font-family="sans-serif" stroke="none">Credential</text>
    </g>
    <g text-rendering="geometricPrecision" stroke-miterlimit="1.45" shape-rendering="geometricPrecision" transform="matrix(1,0,0,1,-310,100)" stroke-linecap="butt">
      <path fill="none" d="M828.5 233.3205 L828.5 223.3222 L829.125 218.948 L831 215.8235 L834.125 213.9488 L838.5 213.3239 L862 213.3239 L866.375 213.9489 L869.5 215.8239 L871.375 218.9489 L872 223.3239 L872 227.3333 L871.0339 235.275 L869.8262 237.7021 L868.1355 239.1 L864.2709 240.8666" clip-path="url(#clipPath2)"/>
      <path d="M856.9951 244.1927 L869.9876 243.751 L865.1804 240.4509 L865.83 234.6562 Z" clip-path="url(#clipPath2)" stroke="none"/>
      <text x="779.3471" xml:space="preserve" y="204.4436" clip-path="url(#clipPath2)" font-family="sans-serif" stroke="none">1.Generate MS</text>
      <text x="779.3471" xml:space="preserve" y="218.5764" clip-path="url(#clipPath2)" font-family="sans-serif" stroke="none">6. Store/Verify Crednetial</text>
      <path fill="none" d="M1030.4698 135.5 L783.5 135.5 L783.5 225.3038" clip-path="url(#clipPath2)"/>
      <path d="M783.5 233.3038 L788.5 221.3038 L783.5 224.3038 L778.5 221.3038 Z" clip-path="url(#clipPath2)" stroke="none"/>
      <text x="830.7402" xml:space="preserve" y="155.0352" clip-path="url(#clipPath2)" font-family="sans-serif" stroke="none">5.Retrieve Schema,Definition</text>
      <path fill="none" d="M762 73.1563 L762 225.3185" clip-path="url(#clipPath2)"/>
      <path d="M762 233.3185 L767 221.3185 L762 224.3185 L757 221.3185 Z" clip-path="url(#clipPath2)" stroke="none"/>
      <path fill="none" d="M1203 343.3254 L1203 346.3247 L1203.625 347.6368 L1205.5 348.5741 L1213 349.3239 L1232 349.3239 L1236.375 348.6989 L1239.5 346.8239 L1241.375 343.6989 L1242 339.3239 L1242 318.6604 L1240.4963 311.2386 L1238.6167 309.4615 L1235.9854 308.9735 L1229.9708 309.2867" clip-path="url(#clipPath2)"/>
      <path d="M1221.9817 309.7026 L1234.2255 314.0719 L1230.9695 309.2347 L1233.7054 304.0855 Z" clip-path="url(#clipPath2)" stroke="none"/>
      <text x="1188.285" xml:space="preserve" y="376.8505" clip-path="url(#clipPath2)" font-family="sans-serif" stroke="none">9.Verify Proof</text>
      <path fill="none" d="M856.9791 286.3239 L1023.9778 286.3239" clip-path="url(#clipPath2)"/>
      <path d="M1031.9778 286.3239 L1019.9778 281.3239 L1022.9778 286.3239 L1019.9778 291.3239 Z" clip-path="url(#clipPath2)" stroke="none"/>
      <text x="875.6621" xml:space="preserve" y="263.4688" clip-path="url(#clipPath2)" font-family="sans-serif" stroke="none">7.Verifiable Presentation</text>
      <text x="904.8916" xml:space="preserve" y="277.6016" clip-path="url(#clipPath2)" font-family="sans-serif" stroke="none">(+Proof of MS)</text>
      <path fill="none" stroke-dasharray="6,2" d="M1126.0023 166.1458 L1126.4604 221.3242" clip-path="url(#clipPath2)"/>
      <path stroke-dasharray="6,2" d="M1126.5269 229.3239 L1131.4271 217.2829 L1126.4521 220.3242 L1121.4274 217.3659 Z" clip-path="url(#clipPath2)" stroke="none"/>
      <text x="1130.2402" xml:space="preserve" y="199.5352" clip-path="url(#clipPath2)" font-family="sans-serif" stroke="none">8.Retrieve Schema,Definition</text>
      <path fill="none" stroke-dasharray="6,2" d="M1032.0024 307 L864.9769 307" clip-path="url(#clipPath2)"/>
      <path stroke-dasharray="6,2" d="M856.9769 307 L868.9769 312 L865.9769 307 L868.9769 302 Z" clip-path="url(#clipPath2)" stroke="none"/>
      <text x="914.6162" xml:space="preserve" y="326.5352" clip-path="url(#clipPath2)" font-family="sans-serif" stroke="none">10.Result</text>
      <path fill="none" d="M666.9771 277.3239 L517.2883 277.3239 L515.533 277.5919" clip-path="url(#clipPath2)"/>
      <path d="M515.533 277.5919 L528.15 280.724 L524.4299 276.2339 L526.6412 270.8385 Z" clip-path="url(#clipPath2)" stroke="none"/>
      <text x="529.4308" xml:space="preserve" y="266.922" clip-path="url(#clipPath2)" font-family="sans-serif" stroke="none">2.Blined Master Secret</text>
      <path fill="none" d="M488.9018 339.3179 L491.3509 348.6707 L493.0474 352.7625 L495.6877 355.6853 L499.272 357.4389 L503.8 358.0235 L525.5489 358.0235 L529.9239 357.3985 L533.0489 355.5235 L534.9239 352.3985 L535.5489 348.0235 L535.5489 331.1552 L534.0536 323.6552 L532.1844 321.7802 L529.5676 321.1552 L523.5863 321.1552" clip-path="url(#clipPath2)"/>
      <path d="M515.5863 321.1552 L527.5863 326.1552 L524.5863 321.1552 L527.5863 316.1552 Z" clip-path="url(#clipPath2)" stroke="none"/>
      <text x="544.3295" xml:space="preserve" y="354.3081" clip-path="url(#clipPath2)" font-family="sans-serif" stroke="none">3.CL signature</text>
      <text x="521.8852" xml:space="preserve" y="368.4409" clip-path="url(#clipPath2)" font-family="sans-serif" stroke="none">(Attributes, Blined MS)</text>
      <path fill="none" stroke-dasharray="6,2" d="M515.5018 297.4616 L516.5292 297.3239 L658.9653 297.3239" clip-path="url(#clipPath2)"/>
      <path stroke-dasharray="6,2" d="M666.9653 297.3239 L654.9653 292.3239 L657.9653 297.3239 L654.9653 302.3239 Z" clip-path="url(#clipPath2)" stroke="none"/>
      <text x="556.9254" xml:space="preserve" y="311.7071" clip-path="url(#clipPath2)" font-family="sans-serif" stroke="none">4.Credential</text>
      <path fill="none" d="M420.5489 233.3239 L420.5489 105.6324 L1022.5 105.6324" clip-path="url(#clipPath2)"/>
      <path d="M1030.5 105.6324 L1018.5 100.6324 L1021.5 105.6324 L1018.5 110.6324 Z" clip-path="url(#clipPath2)" stroke="none"/>
      <text x="374.0547" xml:space="preserve" y="156.3805" clip-path="url(#clipPath2)" font-family="sans-serif" stroke="none">&lt;precondition&gt;</text>
      <text x="349.0352" xml:space="preserve" y="170.5133" clip-path="url(#clipPath2)" font-family="sans-serif" stroke="none">send schema, definition </text>
    </g>
  </g>
</svg>
