<?xml version="1.0" encoding="us-ascii" standalone="no"?><svg xmlns="http://www.w3.org/2000/svg" xmlns:xlink="http://www.w3.org/1999/xlink" contentStyleType="text/css" height="1371px" preserveAspectRatio="none" style="width:1051px;height:1371px;background:#FFFFFF;" version="1.1" viewBox="0 0 1051 1371" width="1051px" zoomAndPan="magnify"><defs/><g><text fill="#000000" font-family="sans-serif" font-size="25" font-weight="bold" lengthAdjust="spacing" textLength="384" x="329.5" y="39.1699">Summary of Issue VC Protocol</text><rect fill="#FDF5E6" height="1308.6406" style="stroke:#181818;stroke-width:0.5;" width="321.5" x="16" y="56.4434"/><text fill="#000000" font-family="sans-serif" font-size="13" font-weight="bold" lengthAdjust="spacing" textLength="80" x="134.75" y="69.0117">User Mobile</text><rect fill="#FFFFFF" height="1171.377" style="stroke:#181818;stroke-width:1.0;" width="10" x="43" y="133.7305"/><rect fill="#FFFFFF" height="307.7266" style="stroke:#181818;stroke-width:1.0;" width="10" x="275" y="840.5176"/><rect fill="#FFFFFF" height="130.2422" style="stroke:#181818;stroke-width:1.0;" width="10" x="507" y="346.5488"/><rect fill="#FFFFFF" height="29.3105" style="stroke:#181818;stroke-width:1.0;" width="10" x="507" y="506.1016"/><rect fill="#FFFFFF" height="29.3105" style="stroke:#181818;stroke-width:1.0;" width="10" x="507" y="564.7227"/><rect fill="#FFFFFF" height="130.2422" style="stroke:#181818;stroke-width:1.0;" width="10" x="507" y="665.6543"/><rect fill="#FFFFFF" height="160.8633" style="stroke:#181818;stroke-width:1.0;" width="10" x="507" y="885.1387"/><rect fill="#FFFFFF" height="103.2422" style="stroke:#181818;stroke-width:1.0;" width="10" x="507" y="1192.8652"/><rect fill="#FFFFFF" height="71.6211" style="stroke:#181818;stroke-width:1.0;" width="10" x="736" y="375.8594"/><rect fill="#FFFFFF" height="71.6211" style="stroke:#181818;stroke-width:1.0;" width="10" x="736" y="694.9648"/><rect fill="#FFFFFF" height="102.2422" style="stroke:#181818;stroke-width:1.0;" width="10" x="736" y="914.4492"/><rect fill="#FFFFFF" height="29.3105" style="stroke:#181818;stroke-width:1.0;" width="10" x="736" y="1237.4863"/><rect fill="none" height="90.8867" style="stroke:#000000;stroke-width:1.5;" width="271" x="10" y="184.041"/><line style="stroke:#181818;stroke-width:0.5;stroke-dasharray:5.0,5.0;" x1="48" x2="48" y1="123.7305" y2="1314.1074"/><line style="stroke:#181818;stroke-width:0.5;stroke-dasharray:5.0,5.0;" x1="279.5" x2="279.5" y1="123.7305" y2="1314.1074"/><line style="stroke:#181818;stroke-width:0.5;stroke-dasharray:5.0,5.0;" x1="512" x2="512" y1="123.7305" y2="1314.1074"/><line style="stroke:#181818;stroke-width:0.5;stroke-dasharray:5.0,5.0;" x1="740.5" x2="740.5" y1="123.7305" y2="1314.1074"/><rect fill="#E2E2F0" height="46.9766" rx="2.5" ry="2.5" style="stroke:#181818;stroke-width:0.5;" width="56" x="20" y="75.7539"/><text fill="#000000" font-family="sans-serif" font-size="14" font-style="italic" lengthAdjust="spacing" textLength="42" x="27" y="96.2891">&#171;App&#187;</text><text fill="#000000" font-family="sans-serif" font-size="14" font-weight="bold" lengthAdjust="spacing" textLength="38" x="29" y="112.7773">CApp</text><rect fill="#E2E2F0" height="46.9766" rx="2.5" ry="2.5" style="stroke:#181818;stroke-width:0.5;" width="56" x="20" y="1313.1074"/><text fill="#000000" font-family="sans-serif" font-size="14" font-style="italic" lengthAdjust="spacing" textLength="42" x="27" y="1333.6426">&#171;App&#187;</text><text fill="#000000" font-family="sans-serif" font-size="14" font-weight="bold" lengthAdjust="spacing" textLength="38" x="29" y="1350.1309">CApp</text><rect fill="#E2E2F0" height="46.9766" rx="2.5" ry="2.5" style="stroke:#181818;stroke-width:0.5;" width="107" x="226.5" y="75.7539"/><text fill="#000000" font-family="sans-serif" font-size="14" font-style="italic" lengthAdjust="spacing" textLength="41" x="259.5" y="96.2891">&#171;SDK&#187;</text><text fill="#000000" font-family="sans-serif" font-size="14" font-weight="bold" lengthAdjust="spacing" textLength="93" x="233.5" y="112.7773">Client Wallet</text><rect fill="#E2E2F0" height="46.9766" rx="2.5" ry="2.5" style="stroke:#181818;stroke-width:0.5;" width="107" x="226.5" y="1313.1074"/><text fill="#000000" font-family="sans-serif" font-size="14" font-style="italic" lengthAdjust="spacing" textLength="41" x="259.5" y="1333.6426">&#171;SDK&#187;</text><text fill="#000000" font-family="sans-serif" font-size="14" font-weight="bold" lengthAdjust="spacing" textLength="93" x="233.5" y="1350.1309">Client Wallet</text><rect fill="#E2E2F0" height="46.9766" rx="2.5" ry="2.5" style="stroke:#181818;stroke-width:0.5;" width="100" x="462" y="75.7539"/><text fill="#000000" font-family="sans-serif" font-size="14" font-style="italic" lengthAdjust="spacing" textLength="57" x="483.5" y="96.2891">&#171;Server&#187;</text><text fill="#000000" font-family="sans-serif" font-size="14" font-weight="bold" lengthAdjust="spacing" textLength="86" x="469" y="112.7773">Trust Agent</text><rect fill="#E2E2F0" height="46.9766" rx="2.5" ry="2.5" style="stroke:#181818;stroke-width:0.5;" width="100" x="462" y="1313.1074"/><text fill="#000000" font-family="sans-serif" font-size="14" font-style="italic" lengthAdjust="spacing" textLength="57" x="483.5" y="1333.6426">&#171;Server&#187;</text><text fill="#000000" font-family="sans-serif" font-size="14" font-weight="bold" lengthAdjust="spacing" textLength="86" x="469" y="1350.1309">Trust Agent</text><rect fill="#E2E2F0" height="46.9766" rx="2.5" ry="2.5" style="stroke:#181818;stroke-width:0.5;" width="113" x="684.5" y="75.7539"/><text fill="#000000" font-family="sans-serif" font-size="14" font-style="italic" lengthAdjust="spacing" textLength="57" x="712.5" y="96.2891">&#171;Server&#187;</text><text fill="#000000" font-family="sans-serif" font-size="14" font-weight="bold" lengthAdjust="spacing" textLength="99" x="691.5" y="112.7773">Issuer Service</text><rect fill="#E2E2F0" height="46.9766" rx="2.5" ry="2.5" style="stroke:#181818;stroke-width:0.5;" width="113" x="684.5" y="1313.1074"/><text fill="#000000" font-family="sans-serif" font-size="14" font-style="italic" lengthAdjust="spacing" textLength="57" x="712.5" y="1333.6426">&#171;Server&#187;</text><text fill="#000000" font-family="sans-serif" font-size="14" font-weight="bold" lengthAdjust="spacing" textLength="99" x="691.5" y="1350.1309">Issuer Service</text><rect fill="#FFFFFF" height="1171.377" style="stroke:#181818;stroke-width:1.0;" width="10" x="43" y="133.7305"/><rect fill="#FFFFFF" height="307.7266" style="stroke:#181818;stroke-width:1.0;" width="10" x="275" y="840.5176"/><rect fill="#FFFFFF" height="130.2422" style="stroke:#181818;stroke-width:1.0;" width="10" x="507" y="346.5488"/><rect fill="#FFFFFF" height="29.3105" style="stroke:#181818;stroke-width:1.0;" width="10" x="507" y="506.1016"/><rect fill="#FFFFFF" height="29.3105" style="stroke:#181818;stroke-width:1.0;" width="10" x="507" y="564.7227"/><rect fill="#FFFFFF" height="130.2422" style="stroke:#181818;stroke-width:1.0;" width="10" x="507" y="665.6543"/><rect fill="#FFFFFF" height="160.8633" style="stroke:#181818;stroke-width:1.0;" width="10" x="507" y="885.1387"/><rect fill="#FFFFFF" height="103.2422" style="stroke:#181818;stroke-width:1.0;" width="10" x="507" y="1192.8652"/><rect fill="#FFFFFF" height="71.6211" style="stroke:#181818;stroke-width:1.0;" width="10" x="736" y="375.8594"/><rect fill="#FFFFFF" height="71.6211" style="stroke:#181818;stroke-width:1.0;" width="10" x="736" y="694.9648"/><rect fill="#FFFFFF" height="102.2422" style="stroke:#181818;stroke-width:1.0;" width="10" x="736" y="914.4492"/><rect fill="#FFFFFF" height="29.3105" style="stroke:#181818;stroke-width:1.0;" width="10" x="736" y="1237.4863"/><rect fill="#EEEEEE" height="3" style="stroke:#EEEEEE;stroke-width:1.0;" width="1044" x="0" y="154.3857"/><line style="stroke:#000000;stroke-width:1.0;" x1="0" x2="1044" y1="154.3857" y2="154.3857"/><line style="stroke:#000000;stroke-width:1.0;" x1="0" x2="1044" y1="157.3857" y2="157.3857"/><rect fill="#EEEEEE" height="23.3105" style="stroke:#000000;stroke-width:2.0;" width="101" x="471.5" y="143.7305"/><text fill="#000000" font-family="sans-serif" font-size="13" font-weight="bold" lengthAdjust="spacing" textLength="83" x="477.5" y="160.2988">(C) Initiation</text><path d="M10,184.041 L72,184.041 L72,191.3516 L62,201.3516 L10,201.3516 L10,184.041 " fill="#EEEEEE" style="stroke:#000000;stroke-width:1.5;"/><rect fill="none" height="90.8867" style="stroke:#000000;stroke-width:1.5;" width="271" x="10" y="184.041"/><text fill="#000000" font-family="sans-serif" font-size="13" font-weight="bold" lengthAdjust="spacing" textLength="17" x="25" y="197.6094">alt</text><text fill="#000000" font-family="sans-serif" font-size="11" font-weight="bold" lengthAdjust="spacing" textLength="68" x="87" y="196.6758">[Issuer-init]</text><polygon fill="#0000FF" points="64,218.6621,54,222.6621,64,226.6621,60,222.6621" style="stroke:#0000FF;stroke-width:1.0;"/><line style="stroke:#0000FF;stroke-width:1.0;" x1="58" x2="258" y1="222.6621" y2="222.6621"/><text fill="#000000" font-family="sans-serif" font-size="13" font-weight="bold" lengthAdjust="spacing" textLength="19" x="70" y="217.9199">(1)</text><text fill="#000000" font-family="sans-serif" font-size="13" lengthAdjust="spacing" textLength="159" x="93" y="217.9199">Obtain IssueOfferPayload</text><line style="stroke:#000000;stroke-width:1.0;stroke-dasharray:2.0,2.0;" x1="10" x2="281" y1="231.6621" y2="231.6621"/><text fill="#000000" font-family="sans-serif" font-size="11" font-weight="bold" lengthAdjust="spacing" textLength="59" x="15" y="242.2969">[User-init]</text><polygon fill="#0000FF" points="64,262.9277,54,266.9277,64,270.9277,60,266.9277" style="stroke:#0000FF;stroke-width:1.0;"/><line style="stroke:#0000FF;stroke-width:1.0;" x1="58" x2="283" y1="266.9277" y2="266.9277"/><text fill="#000000" font-family="sans-serif" font-size="13" font-weight="bold" lengthAdjust="spacing" textLength="19" x="70" y="262.1855">(2)</text><text fill="#000000" font-family="sans-serif" font-size="13" lengthAdjust="spacing" textLength="184" x="93" y="262.1855">Select VC Plan, Issuer by user</text><rect fill="#EEEEEE" height="3" style="stroke:#EEEEEE;stroke-width:1.0;" width="1044" x="0" y="302.583"/><line style="stroke:#000000;stroke-width:1.0;" x1="0" x2="1044" y1="302.583" y2="302.583"/><line style="stroke:#000000;stroke-width:1.0;" x1="0" x2="1044" y1="305.583" y2="305.583"/><rect fill="#EEEEEE" height="23.3105" style="stroke:#000000;stroke-width:2.0;" width="109" x="467.5" y="291.9277"/><text fill="#000000" font-family="sans-serif" font-size="13" font-weight="bold" lengthAdjust="spacing" textLength="91" x="473.5" y="308.4961">(D) Issueance</text><polygon fill="#181818" points="495,342.5488,505,346.5488,495,350.5488,499,346.5488" style="stroke:#181818;stroke-width:1.0;"/><line style="stroke:#181818;stroke-width:1.0;" x1="53" x2="501" y1="346.5488" y2="346.5488"/><text fill="#000000" font-family="sans-serif" font-size="13" font-weight="bold" lengthAdjust="spacing" textLength="19" x="60" y="341.8066">(3)</text><text fill="#FF4500" font-family="sans-serif" font-size="13" lengthAdjust="spacing" textLength="140" x="83" y="341.8066">[API] Propose Issue VC</text><polygon fill="#181818" points="724,371.8594,734,375.8594,724,379.8594,728,375.8594" style="stroke:#181818;stroke-width:1.0;"/><line style="stroke:#181818;stroke-width:1.0;" x1="517" x2="730" y1="375.8594" y2="375.8594"/><text fill="#000000" font-family="sans-serif" font-size="13" font-weight="bold" lengthAdjust="spacing" textLength="19" x="524" y="371.1172">(4)</text><text fill="#FF4500" font-family="sans-serif" font-size="13" lengthAdjust="spacing" textLength="169" x="547" y="371.1172">[API] Inspect Propose Issue</text><line style="stroke:#181818;stroke-width:1.0;" x1="746" x2="788" y1="405.1699" y2="405.1699"/><line style="stroke:#181818;stroke-width:1.0;" x1="788" x2="788" y1="405.1699" y2="418.1699"/><line style="stroke:#181818;stroke-width:1.0;" x1="747" x2="788" y1="418.1699" y2="418.1699"/><polygon fill="#181818" points="757,414.1699,747,418.1699,757,422.1699,753,418.1699" style="stroke:#181818;stroke-width:1.0;"/><text fill="#000000" font-family="sans-serif" font-size="13" font-weight="bold" lengthAdjust="spacing" textLength="19" x="753" y="400.4277">(5)</text><text fill="#000000" font-family="sans-serif" font-size="13" lengthAdjust="spacing" textLength="180" x="776" y="400.4277">refId = Generate reference id</text><polygon fill="#181818" points="528,443.4805,518,447.4805,528,451.4805,524,447.4805" style="stroke:#181818;stroke-width:1.0;"/><line style="stroke:#181818;stroke-width:1.0;stroke-dasharray:2.0,2.0;" x1="522" x2="740" y1="447.4805" y2="447.4805"/><text fill="#000000" font-family="sans-serif" font-size="13" font-weight="bold" lengthAdjust="spacing" textLength="19" x="534" y="442.7383">(6)</text><text fill="#000000" font-family="sans-serif" font-size="13" lengthAdjust="spacing" textLength="37" x="557" y="442.7383">{refId}</text><polygon fill="#181818" points="64,472.791,54,476.791,64,480.791,60,476.791" style="stroke:#181818;stroke-width:1.0;"/><line style="stroke:#181818;stroke-width:1.0;stroke-dasharray:2.0,2.0;" x1="58" x2="511" y1="476.791" y2="476.791"/><text fill="#000000" font-family="sans-serif" font-size="13" font-weight="bold" lengthAdjust="spacing" textLength="19" x="70" y="472.0488">(7)</text><text fill="#000000" font-family="sans-serif" font-size="13" lengthAdjust="spacing" textLength="37" x="93" y="472.0488">{refId}</text><polygon fill="#181818" points="495,502.1016,505,506.1016,495,510.1016,499,506.1016" style="stroke:#181818;stroke-width:1.0;"/><line style="stroke:#181818;stroke-width:1.0;" x1="53" x2="501" y1="506.1016" y2="506.1016"/><text fill="#000000" font-family="sans-serif" font-size="13" font-weight="bold" lengthAdjust="spacing" textLength="19" x="60" y="501.3594">(8)</text><text fill="#FF4500" font-family="sans-serif" font-size="13" lengthAdjust="spacing" textLength="122" x="83" y="501.3594">[API] Request ECDH</text><polygon fill="#181818" points="64,531.4121,54,535.4121,64,539.4121,60,535.4121" style="stroke:#181818;stroke-width:1.0;"/><line style="stroke:#181818;stroke-width:1.0;stroke-dasharray:2.0,2.0;" x1="58" x2="511" y1="535.4121" y2="535.4121"/><text fill="#000000" font-family="sans-serif" font-size="13" font-weight="bold" lengthAdjust="spacing" textLength="19" x="70" y="530.6699">(9)</text><text fill="#000000" font-family="sans-serif" font-size="13" lengthAdjust="spacing" textLength="18" x="93" y="530.6699">OK</text><polygon fill="#181818" points="495,560.7227,505,564.7227,495,568.7227,499,564.7227" style="stroke:#181818;stroke-width:1.0;"/><line style="stroke:#181818;stroke-width:1.0;" x1="53" x2="501" y1="564.7227" y2="564.7227"/><text fill="#000000" font-family="sans-serif" font-size="13" font-weight="bold" lengthAdjust="spacing" textLength="28" x="60" y="559.9805">(10)</text><text fill="#FF4500" font-family="sans-serif" font-size="13" lengthAdjust="spacing" textLength="169" x="92" y="559.9805">[API] Request Create Token</text><polygon fill="#181818" points="64,590.0332,54,594.0332,64,598.0332,60,594.0332" style="stroke:#181818;stroke-width:1.0;"/><line style="stroke:#181818;stroke-width:1.0;stroke-dasharray:2.0,2.0;" x1="58" x2="511" y1="594.0332" y2="594.0332"/><text fill="#000000" font-family="sans-serif" font-size="13" font-weight="bold" lengthAdjust="spacing" textLength="28" x="70" y="589.291">(11)</text><text fill="#000000" font-family="sans-serif" font-size="13" lengthAdjust="spacing" textLength="114" x="102" y="589.291">{serverTokenData}</text><line style="stroke:#181818;stroke-width:1.0;" x1="53" x2="95" y1="623.3438" y2="623.3438"/><line style="stroke:#181818;stroke-width:1.0;" x1="95" x2="95" y1="623.3438" y2="636.3438"/><line style="stroke:#181818;stroke-width:1.0;" x1="54" x2="95" y1="636.3438" y2="636.3438"/><polygon fill="#181818" points="64,632.3438,54,636.3438,64,640.3438,60,636.3438" style="stroke:#181818;stroke-width:1.0;"/><text fill="#000000" font-family="sans-serif" font-size="13" font-weight="bold" lengthAdjust="spacing" textLength="28" x="60" y="618.6016">(12)</text><text fill="#000000" font-family="sans-serif" font-size="13" lengthAdjust="spacing" textLength="139" x="92" y="618.6016">Calculate serverToken</text><polygon fill="#181818" points="495,661.6543,505,665.6543,495,669.6543,499,665.6543" style="stroke:#181818;stroke-width:1.0;"/><line style="stroke:#181818;stroke-width:1.0;" x1="53" x2="501" y1="665.6543" y2="665.6543"/><text fill="#000000" font-family="sans-serif" font-size="13" font-weight="bold" lengthAdjust="spacing" textLength="28" x="60" y="660.9121">(13)</text><text fill="#FF4500" font-family="sans-serif" font-size="13" lengthAdjust="spacing" textLength="163" x="92" y="660.9121">[API] Request Issue Profile</text><polygon fill="#181818" points="724,690.9648,734,694.9648,724,698.9648,728,694.9648" style="stroke:#181818;stroke-width:1.0;"/><line style="stroke:#181818;stroke-width:1.0;" x1="517" x2="730" y1="694.9648" y2="694.9648"/><text fill="#000000" font-family="sans-serif" font-size="13" font-weight="bold" lengthAdjust="spacing" textLength="28" x="524" y="690.2227">(14)</text><text fill="#FF4500" font-family="sans-serif" font-size="13" lengthAdjust="spacing" textLength="168" x="556" y="690.2227">[API] Generate Issue Profile</text><line style="stroke:#181818;stroke-width:1.0;" x1="746" x2="788" y1="724.2754" y2="724.2754"/><line style="stroke:#181818;stroke-width:1.0;" x1="788" x2="788" y1="724.2754" y2="737.2754"/><line style="stroke:#181818;stroke-width:1.0;" x1="747" x2="788" y1="737.2754" y2="737.2754"/><polygon fill="#181818" points="757,733.2754,747,737.2754,757,741.2754,753,737.2754" style="stroke:#181818;stroke-width:1.0;"/><text fill="#000000" font-family="sans-serif" font-size="13" font-weight="bold" lengthAdjust="spacing" textLength="28" x="753" y="719.5332">(15)</text><text fill="#000000" font-family="sans-serif" font-size="13" lengthAdjust="spacing" textLength="247" x="785" y="719.5332">profile = Generate IssueProfile(opt ZKP)</text><polygon fill="#181818" points="528,762.5859,518,766.5859,528,770.5859,524,766.5859" style="stroke:#181818;stroke-width:1.0;"/><line style="stroke:#181818;stroke-width:1.0;stroke-dasharray:2.0,2.0;" x1="522" x2="740" y1="766.5859" y2="766.5859"/><text fill="#000000" font-family="sans-serif" font-size="13" font-weight="bold" lengthAdjust="spacing" textLength="28" x="534" y="761.8438">(16)</text><text fill="#000000" font-family="sans-serif" font-size="13" lengthAdjust="spacing" textLength="49" x="566" y="761.8438">{profile}</text><polygon fill="#181818" points="64,791.8965,54,795.8965,64,799.8965,60,795.8965" style="stroke:#181818;stroke-width:1.0;"/><line style="stroke:#181818;stroke-width:1.0;stroke-dasharray:2.0,2.0;" x1="58" x2="511" y1="795.8965" y2="795.8965"/><text fill="#000000" font-family="sans-serif" font-size="13" font-weight="bold" lengthAdjust="spacing" textLength="28" x="70" y="791.1543">(17)</text><text fill="#000000" font-family="sans-serif" font-size="13" lengthAdjust="spacing" textLength="49" x="102" y="791.1543">{profile}</text><polygon fill="#181818" points="263,836.5176,273,840.5176,263,844.5176,267,840.5176" style="stroke:#181818;stroke-width:1.0;"/><line style="stroke:#181818;stroke-width:1.0;" x1="53" x2="269" y1="840.5176" y2="840.5176"/><text fill="#000000" font-family="sans-serif" font-size="13" font-weight="bold" lengthAdjust="spacing" textLength="28" x="60" y="828.1201">(18)</text><text fill="#000000" font-family="sans-serif" font-size="13" lengthAdjust="spacing" textLength="125" x="92" y="820.4648">Request to issue VC</text><text fill="#000000" font-family="sans-serif" font-size="13" lengthAdjust="spacing" textLength="171" x="92" y="835.7754">{refId, profile, serverToken}</text><polygon fill="#181818" points="495,881.1387,505,885.1387,495,889.1387,499,885.1387" style="stroke:#181818;stroke-width:1.0;"/><line style="stroke:#181818;stroke-width:1.0;" x1="285" x2="501" y1="885.1387" y2="885.1387"/><text fill="#000000" font-family="sans-serif" font-size="13" font-weight="bold" lengthAdjust="spacing" textLength="28" x="292" y="872.7412">(19)</text><text fill="#FF4500" font-family="sans-serif" font-size="13" lengthAdjust="spacing" textLength="140" x="324" y="865.0859">[API] Request Issue VC</text><text fill="#000000" font-family="sans-serif" font-size="13" lengthAdjust="spacing" textLength="122" x="324" y="880.3965">{refId, serverToken}</text><polygon fill="#181818" points="724,910.4492,734,914.4492,724,918.4492,728,914.4492" style="stroke:#181818;stroke-width:1.0;"/><line style="stroke:#181818;stroke-width:1.0;" x1="517" x2="730" y1="914.4492" y2="914.4492"/><text fill="#000000" font-family="sans-serif" font-size="13" font-weight="bold" lengthAdjust="spacing" textLength="28" x="524" y="909.707">(20)</text><text fill="#FF4500" font-family="sans-serif" font-size="13" lengthAdjust="spacing" textLength="86" x="556" y="909.707">[API] Issue VC</text><text fill="#000000" font-family="sans-serif" font-size="13" lengthAdjust="spacing" textLength="37" x="646" y="909.707">{refId}</text><line style="stroke:#181818;stroke-width:1.0;" x1="746" x2="788" y1="974.3809" y2="974.3809"/><line style="stroke:#181818;stroke-width:1.0;" x1="788" x2="788" y1="974.3809" y2="987.3809"/><line style="stroke:#181818;stroke-width:1.0;" x1="747" x2="788" y1="987.3809" y2="987.3809"/><polygon fill="#181818" points="757,983.3809,747,987.3809,757,991.3809,753,987.3809" style="stroke:#181818;stroke-width:1.0;"/><text fill="#000000" font-family="sans-serif" font-size="13" font-weight="bold" lengthAdjust="spacing" textLength="28" x="753" y="954.3281">(21)</text><ellipse cx="790.5" cy="934.2598" fill="#000000" rx="2.5" ry="2.5" style="stroke:#000000;stroke-width:0.0;"/><text fill="#000000" font-family="sans-serif" font-size="13" lengthAdjust="spacing" textLength="86" x="797" y="939.0176">vc = Issue VC</text><ellipse cx="790.5" cy="949.5703" fill="#000000" rx="2.5" ry="2.5" style="stroke:#000000;stroke-width:0.0;"/><text fill="#000000" font-family="sans-serif" font-size="13" lengthAdjust="spacing" textLength="162" x="797" y="954.3281">encVc = encrypt(credInfo)</text><text fill="#000000" font-family="sans-serif" font-size="13" lengthAdjust="spacing" textLength="138" x="793" y="969.6387">- credInfo = {VC, ZKP}</text><polygon fill="#181818" points="528,1012.6914,518,1016.6914,528,1020.6914,524,1016.6914" style="stroke:#181818;stroke-width:1.0;"/><line style="stroke:#181818;stroke-width:1.0;stroke-dasharray:2.0,2.0;" x1="522" x2="740" y1="1016.6914" y2="1016.6914"/><text fill="#000000" font-family="sans-serif" font-size="13" font-weight="bold" lengthAdjust="spacing" textLength="28" x="534" y="1011.9492">(22)</text><text fill="#000000" font-family="sans-serif" font-size="13" lengthAdjust="spacing" textLength="45" x="566" y="1011.9492">{encVc}</text><polygon fill="#181818" points="296,1042.002,286,1046.002,296,1050.002,292,1046.002" style="stroke:#181818;stroke-width:1.0;"/><line style="stroke:#181818;stroke-width:1.0;stroke-dasharray:2.0,2.0;" x1="290" x2="511" y1="1046.002" y2="1046.002"/><text fill="#000000" font-family="sans-serif" font-size="13" font-weight="bold" lengthAdjust="spacing" textLength="28" x="302" y="1041.2598">(23)</text><text fill="#000000" font-family="sans-serif" font-size="13" lengthAdjust="spacing" textLength="45" x="334" y="1041.2598">{encVc}</text><line style="stroke:#181818;stroke-width:1.0;" x1="285" x2="327" y1="1105.9336" y2="1105.9336"/><line style="stroke:#181818;stroke-width:1.0;" x1="327" x2="327" y1="1105.9336" y2="1118.9336"/><line style="stroke:#181818;stroke-width:1.0;" x1="286" x2="327" y1="1118.9336" y2="1118.9336"/><polygon fill="#181818" points="296,1114.9336,286,1118.9336,296,1122.9336,292,1118.9336" style="stroke:#181818;stroke-width:1.0;"/><text fill="#000000" font-family="sans-serif" font-size="13" font-weight="bold" lengthAdjust="spacing" textLength="28" x="292" y="1085.8809">(24)</text><ellipse cx="329.5" cy="1065.8125" fill="#000000" rx="2.5" ry="2.5" style="stroke:#000000;stroke-width:0.0;"/><text fill="#000000" font-family="sans-serif" font-size="13" lengthAdjust="spacing" textLength="164" x="336" y="1070.5703">CredInfo = decrypt(encVc)</text><ellipse cx="329.5" cy="1081.123" fill="#000000" rx="2.5" ry="2.5" style="stroke:#000000;stroke-width:0.0;"/><text fill="#000000" font-family="sans-serif" font-size="13" lengthAdjust="spacing" textLength="106" x="336" y="1085.8809">Store vc(opt ZKP)</text><ellipse cx="329.5" cy="1096.4336" fill="#000000" rx="2.5" ry="2.5" style="stroke:#000000;stroke-width:0.0;"/><text fill="#000000" font-family="sans-serif" font-size="13" lengthAdjust="spacing" textLength="125" x="336" y="1101.1914">vcId = Extract VC id</text><polygon fill="#181818" points="64,1144.2441,54,1148.2441,64,1152.2441,60,1148.2441" style="stroke:#181818;stroke-width:1.0;"/><line style="stroke:#181818;stroke-width:1.0;stroke-dasharray:2.0,2.0;" x1="58" x2="279" y1="1148.2441" y2="1148.2441"/><text fill="#000000" font-family="sans-serif" font-size="13" font-weight="bold" lengthAdjust="spacing" textLength="28" x="70" y="1143.502">(25)</text><text fill="#000000" font-family="sans-serif" font-size="13" lengthAdjust="spacing" textLength="34" x="102" y="1143.502">{vcId}</text><polygon fill="#181818" points="495,1188.8652,505,1192.8652,495,1196.8652,499,1192.8652" style="stroke:#181818;stroke-width:1.0;"/><line style="stroke:#181818;stroke-width:1.0;" x1="53" x2="501" y1="1192.8652" y2="1192.8652"/><text fill="#000000" font-family="sans-serif" font-size="13" font-weight="bold" lengthAdjust="spacing" textLength="28" x="60" y="1180.4678">(26)</text><text fill="#FF4500" font-family="sans-serif" font-size="13" lengthAdjust="spacing" textLength="141" x="92" y="1172.8125">[API] Confirm Issue VC</text><text fill="#000000" font-family="sans-serif" font-size="13" lengthAdjust="spacing" textLength="34" x="96" y="1188.123">{vcId}</text><polygon fill="#181818" points="724,1233.4863,734,1237.4863,724,1241.4863,728,1237.4863" style="stroke:#181818;stroke-width:1.0;"/><line style="stroke:#181818;stroke-width:1.0;" x1="517" x2="730" y1="1237.4863" y2="1237.4863"/><text fill="#000000" font-family="sans-serif" font-size="13" font-weight="bold" lengthAdjust="spacing" textLength="28" x="524" y="1225.0889">(27)</text><text fill="#FF4500" font-family="sans-serif" font-size="13" lengthAdjust="spacing" textLength="113" x="556" y="1217.4336">[API] Complete VC</text><text fill="#000000" font-family="sans-serif" font-size="13" lengthAdjust="spacing" textLength="34" x="560" y="1232.7441">{vcId}</text><polygon fill="#181818" points="528,1262.7969,518,1266.7969,528,1270.7969,524,1266.7969" style="stroke:#181818;stroke-width:1.0;"/><line style="stroke:#181818;stroke-width:1.0;stroke-dasharray:2.0,2.0;" x1="522" x2="740" y1="1266.7969" y2="1266.7969"/><text fill="#000000" font-family="sans-serif" font-size="13" font-weight="bold" lengthAdjust="spacing" textLength="28" x="534" y="1262.0547">(28)</text><text fill="#000000" font-family="sans-serif" font-size="13" lengthAdjust="spacing" textLength="18" x="566" y="1262.0547">OK</text><polygon fill="#181818" points="64,1292.1074,54,1296.1074,64,1300.1074,60,1296.1074" style="stroke:#181818;stroke-width:1.0;"/><line style="stroke:#181818;stroke-width:1.0;stroke-dasharray:2.0,2.0;" x1="58" x2="511" y1="1296.1074" y2="1296.1074"/><text fill="#000000" font-family="sans-serif" font-size="13" font-weight="bold" lengthAdjust="spacing" textLength="28" x="70" y="1291.3652">(29)</text><text fill="#000000" font-family="sans-serif" font-size="13" lengthAdjust="spacing" textLength="18" x="102" y="1291.3652">OK</text><!--SRC=[XPHTRzem58QlbrznHcy81LMQj1iKCdMXsb0tWKhNIMjxuIGdbJLZPux3ogh-znqxNy1WM88azddEntji6su4Uc-2Wl_1yRltuR9ShPZUWCfWLXGbmbq42wsCIfG8BgnLwA5CmJZEOwLHibp5gA4Nn67_p0ykuh3dUMzJpBX4O3c_nMVJD_JdGq1Ub1xFDPDFU8DfU7-vc3s2NGmkt5heUR5wXcy5UVogOYuGpkOY_S8Iz816phJX2S-PDD0R3ABBF1yCUi0AI1W40Ns6uK53mP7UlZCXqDJ4RoO8MKwlmwec2kpjORUwB0nSFX5RGuP-1A5UeoPkpzvffi4kymHhX1SxY3UPG3_oOIQvuSnm9M4o8IaJmzVC81NYCM4g-VM8avKhoDPtV_PHbFWu-Z26UMmObvNLFCjGBzX6A9PwA0fq-Xr5boWmCQwpWibX7GdY3PI4MIcg7AT-jSHaWYv5yZCAdGBdv-EsjJtQ7xcYeCs6wVakghKZSrlzZlbC5hcDluFLZ1qMgBWnQCncAKpW4qhKLXoQG8qs8PuwGgCfjOGNP_dgxNqUI_a6VvL8dRsAffyfT4tDhqy2aKQRngtwYR83NmhNN3SxPOQrWHCsXeY9f1IMsh8w6QWIapJAw0oSKBHLvn2qBsbUhMwBwh2QwglSm8_hXR-ZRWrr-hOJTHtsBDcSclIDij7STdYGLJU6JUZXjX2lBex5JwjXjrRdxHyd_zrqhODsRy3Ms1Pe0Ek4r6cllmFZGGw0Dk6TjQEdtkIcdsXCPp9J_c40O0ID2L4lTz7GojobqIZh_BvwHwPgeUXX4uqwXobMQJXRVp_PfL4QgQwsk_i6wyITiwjderbrDz3vQkBRnUDdAL8outgrqwE6-LzB8hNAwJ8-X7JdiNlx2m00]--></g></svg>